<?xml version="1.0" encoding="UTF-8" standalone="no"?><svg xmlns="http://www.w3.org/2000/svg" xmlns:xlink="http://www.w3.org/1999/xlink" contentScriptType="application/ecmascript" contentStyleType="text/css" height="668px" preserveAspectRatio="none" style="width:483px;height:668px;" version="1.1" viewBox="0 0 483 668" width="483px" zoomAndPan="magnify"><defs><filter height="300%" id="fjd8q9gt2ybct" width="300%" x="-1" y="-1"><feGaussianBlur result="blurOut" stdDeviation="2.0"/><feColorMatrix in="blurOut" result="blurOut2" type="matrix" values="0 0 0 0 0 0 0 0 0 0 0 0 0 0 0 0 0 0 .4 0"/><feOffset dx="4.0" dy="4.0" in="blurOut2" result="blurOut3"/><feBlend in="SourceGraphic" in2="blurOut3" mode="normal"/></filter></defs><g><ellipse cx="344.5" cy="16" fill="#000000" filter="url(#fjd8q9gt2ybct)" rx="10" ry="10" style="stroke: none; stroke-width: 1.0;"/><g id="State0"><rect fill="#FEFECE" filter="url(#fjd8q9gt2ybct)" height="50" rx="12.5" ry="12.5" style="stroke: #A80036; stroke-width: 1.5;" width="61" x="314" y="87"/><line style="stroke: #A80036; stroke-width: 1.5;" x1="314" x2="375" y1="114.6094" y2="114.6094"/><text fill="#000000" font-family="sans-serif" font-size="14" lengthAdjust="spacingAndGlyphs" textLength="41" x="324" y="106.5332">State0</text></g><g id="State1"><rect fill="#FEFECE" filter="url(#fjd8q9gt2ybct)" height="50" rx="12.5" ry="12.5" style="stroke: #A80036; stroke-width: 1.5;" width="61" x="7" y="215"/><line style="stroke: #A80036; stroke-width: 1.5;" x1="7" x2="68" y1="242.6094" y2="242.6094"/><text fill="#000000" font-family="sans-serif" font-size="14" lengthAdjust="spacingAndGlyphs" textLength="41" x="17" y="234.5332">State1</text></g><g id="State3"><rect fill="#FEFECE" filter="url(#fjd8q9gt2ybct)" height="50" rx="12.5" ry="12.5" style="stroke: #A80036; stroke-width: 1.5;" width="61" x="91" y="343"/><line style="stroke: #A80036; stroke-width: 1.5;" x1="91" x2="152" y1="370.6094" y2="370.6094"/><text fill="#000000" font-family="sans-serif" font-size="14" lengthAdjust="spacingAndGlyphs" textLength="41" x="101" y="362.5332">State3</text></g><g id="State4"><rect fill="#FEFECE" filter="url(#fjd8q9gt2ybct)" height="50" rx="12.5" ry="12.5" style="stroke: #A80036; stroke-width: 1.5;" width="61" x="91" y="471"/><line style="stroke: #A80036; stroke-width: 1.5;" x1="91" x2="152" y1="498.6094" y2="498.6094"/><text fill="#000000" font-family="sans-serif" font-size="14" lengthAdjust="spacingAndGlyphs" textLength="41" x="101" y="490.5332">State4</text></g><g id="State2"><rect fill="#FEFECE" filter="url(#fjd8q9gt2ybct)" height="50" rx="12.5" ry="12.5" style="stroke: #A80036; stroke-width: 1.5;" width="61" x="42" y="599"/><line style="stroke: #A80036; stroke-width: 1.5;" x1="42" x2="103" y1="626.6094" y2="626.6094"/><text fill="#000000" font-family="sans-serif" font-size="14" lengthAdjust="spacingAndGlyphs" textLength="41" x="52" y="618.5332">State2</text></g><!--MD5=[6bf52256a5a3d79cde37855053ede169]
link *start to State0--><path d="M344.5,26.013 C344.5,38.698 344.5,62.409 344.5,81.57 " fill="none" id="*start-&gt;State0" style="stroke: #A80036; stroke-width: 1.0;"/><polygon fill="#A80036" points="344.5,86.84,348.5,77.84,344.5,81.84,340.5,77.84,344.5,86.84" style="stroke: #A80036; stroke-width: 1.0;"/><!--MD5=[a9c2f088fcd292d29c9f53cd9a680591]
link State0 to State1--><path d="M313.941,125.542 C256.852,148.973 134.288,199.276 73.3786,224.275 " fill="none" id="State0-&gt;State1" style="stroke: #A80036; stroke-width: 1.0;"/><polygon fill="#A80036" points="68.3907,226.322,78.2355,226.6051,73.0162,224.4235,75.1979,219.2043,68.3907,226.322" style="stroke: #A80036; stroke-width: 1.0;"/><text fill="#000000" font-family="sans-serif" font-size="13" lengthAdjust="spacingAndGlyphs" textLength="28" x="210.5" y="181.4951">Start</text><!--MD5=[dcf63a51bdeb3e817e699e6130214cc7]
link State1 to State1--><path d="M68.159,236.235 C86.1553,235.432 103,236.687 103,240 C103,243.002 89.1656,244.314 73.1772,243.937 " fill="none" id="State1-&gt;State1" style="stroke: #A80036; stroke-width: 1.0;"/><polygon fill="#A80036" points="68.159,243.765,77.0171,248.0702,73.1561,243.9359,77.2904,240.0749,68.159,243.765" style="stroke: #A80036; stroke-width: 1.0;"/><text fill="#000000" font-family="sans-serif" font-size="13" lengthAdjust="spacingAndGlyphs" textLength="59" x="109" y="245.4951">Movement</text><!--MD5=[dcf63a51bdeb3e817e699e6130214cc7]
link State1 to State1--><path d="M68.3094,234.461 C111.761,229.862 174,231.708 174,240 C174,247.968 116.528,249.984 73.4825,246.048 " fill="none" id="State1-&gt;State1-1" style="stroke: #A80036; stroke-width: 1.0;"/><polygon fill="#A80036" points="68.3094,245.539,76.8739,250.402,73.2853,246.0292,77.6582,242.4406,68.3094,245.539" style="stroke: #A80036; stroke-width: 1.0;"/><text fill="#000000" font-family="sans-serif" font-size="13" lengthAdjust="spacingAndGlyphs" textLength="90" x="180" y="245.4951">[undoable]Undo</text><!--MD5=[dcf63a51bdeb3e817e699e6130214cc7]
link State1 to State1--><path d="M68.2212,233.672 C138.363,224.391 276,226.5 276,240 C276,253.184 144.739,255.504 73.2617,246.962 " fill="none" id="State1-&gt;State1-2" style="stroke: #A80036; stroke-width: 1.0;"/><polygon fill="#A80036" points="68.2212,246.328,76.6517,251.4199,73.1821,246.952,77.65,243.4824,68.2212,246.328" style="stroke: #A80036; stroke-width: 1.0;"/><text fill="#000000" font-family="sans-serif" font-size="13" lengthAdjust="spacingAndGlyphs" textLength="87" x="282" y="245.4951">[redoable]Redo</text><!--MD5=[98642968b161d6b5aa442c8e772df306]
link State1 to State3--><path d="M53.696,265.294 C67.6409,286.211 87.7819,316.423 102.4883,338.482 " fill="none" id="State1-&gt;State3" style="stroke: #A80036; stroke-width: 1.0;"/><polygon fill="#A80036" points="105.3537,342.781,103.6907,333.0736,102.5807,338.6204,97.0338,337.5104,105.3537,342.781" style="stroke: #A80036; stroke-width: 1.0;"/><text fill="#000000" font-family="sans-serif" font-size="13" lengthAdjust="spacingAndGlyphs" textLength="23" x="86.5" y="309.4951">Exit</text><!--MD5=[ba4168f70349cc0467fd74c2e3858fc7]
link State3 to State4--><path d="M121.5,393.294 C121.5,413.95 121.5,443.669 121.5,465.651 " fill="none" id="State3-&gt;State4" style="stroke: #A80036; stroke-width: 1.0;"/><polygon fill="#A80036" points="121.5,470.781,125.5,461.781,121.5,465.781,117.5,461.781,121.5,470.781" style="stroke: #A80036; stroke-width: 1.0;"/><text fill="#000000" font-family="sans-serif" font-size="13" lengthAdjust="spacingAndGlyphs" textLength="28" x="122.5" y="437.4951">Save</text><!--MD5=[93b975ae79a95d342785a7ad49888945]
link State0 to State4--><path d="M368.614,137.194 C395.637,167.385 433.019,220.468 411.5,265 C357.956,375.805 222.229,449.543 157.244,479.662 " fill="none" id="State0-&gt;State4" style="stroke: #A80036; stroke-width: 1.0;"/><polygon fill="#A80036" points="152.312,481.927,162.1601,481.8044,156.8554,479.8396,158.8202,474.5349,152.312,481.927" style="stroke: #A80036; stroke-width: 1.0;"/><text fill="#000000" font-family="sans-serif" font-size="13" lengthAdjust="spacingAndGlyphs" textLength="77" x="394.5" y="309.4951">[isTicTacToe]</text><!--MD5=[dc702cd49c4e27e6abb2620dc4bb28d8]
link State1 to State2--><path d="M39.716,265.186 C45.8646,332.294 63.1243,520.671 69.8085,593.6241 " fill="none" id="State1-&gt;State2" style="stroke: #A80036; stroke-width: 1.0;"/><polygon fill="#A80036" points="70.2712,598.674,73.4332,589.3465,69.8149,593.6949,65.4666,590.0766,70.2712,598.674" style="stroke: #A80036; stroke-width: 1.0;"/><text fill="#000000" font-family="sans-serif" font-size="13" lengthAdjust="spacingAndGlyphs" textLength="37" x="57.5" y="437.4951">Result</text><!--MD5=[7065fc78f72d7464487d94bfa1e5711f]
link State4 to State2--><path d="M112.052,521.294 C103.9856,542.037 92.3644,571.92 83.8053,593.9293 " fill="none" id="State4-&gt;State2" style="stroke: #A80036; stroke-width: 1.0;"/><polygon fill="#A80036" points="81.9187,598.7805,88.9088,591.8423,83.731,594.1205,81.4528,588.9427,81.9187,598.7805" style="stroke: #A80036; stroke-width: 1.0;"/><text fill="#000000" font-family="sans-serif" font-size="13" lengthAdjust="spacingAndGlyphs" textLength="37" x="101.5" y="565.4951">Result</text><!--MD5=[3a41ce7614f389668f2e23bbaa428dc0]
@startuml

[*] - -> State0
State0 - -> State1 : Start
State1 - -> State1 : Movement
State1 - -> State1 : [undoable]Undo
State1 - -> State1 : [redoable]Redo
State1 - -> State3 : Exit
State3 - -> State4 : Save
State0 - -> State4 : [isTicTacToe]
State1 - -> State2 : Result
State4 - -> State2 : Result
@enduml

PlantUML version 1.2020.15(Sun Jun 28 13:39:45 CEST 2020)
(GPL source distribution)
Java Runtime: Java(TM) SE Runtime Environment
JVM: Java HotSpot(TM) 64-Bit Server VM
Default Encoding: windows-1252
Language: es
Country: ES
--></g></svg>