<?xml version="1.0" encoding="UTF-8" standalone="no"?><svg xmlns="http://www.w3.org/2000/svg" xmlns:xlink="http://www.w3.org/1999/xlink" contentScriptType="application/ecmascript" contentStyleType="text/css" height="508px" preserveAspectRatio="none" style="width:503px;height:508px;" version="1.1" viewBox="0 0 503 508" width="503px" zoomAndPan="magnify"><defs><filter height="300%" id="f1xfue5d00newp" width="300%" x="-1" y="-1"><feGaussianBlur result="blurOut" stdDeviation="2.0"/><feColorMatrix in="blurOut" result="blurOut2" type="matrix" values="0 0 0 0 0 0 0 0 0 0 0 0 0 0 0 0 0 0 .4 0"/><feOffset dx="4.0" dy="4.0" in="blurOut2" result="blurOut3"/><feBlend in="SourceGraphic" in2="blurOut3" mode="normal"/></filter></defs><g><ellipse cx="357.5" cy="16" fill="#000000" filter="url(#f1xfue5d00newp)" rx="10" ry="10" style="stroke: none; stroke-width: 1.0;"/><g id="State0"><rect fill="#FEFECE" filter="url(#f1xfue5d00newp)" height="50" rx="12.5" ry="12.5" style="stroke: #A80036; stroke-width: 1.5;" width="61" x="327" y="87"/><line style="stroke: #A80036; stroke-width: 1.5;" x1="327" x2="388" y1="114.6094" y2="114.6094"/><text fill="#000000" font-family="sans-serif" font-size="14" lengthAdjust="spacingAndGlyphs" textLength="41" x="337" y="106.5332">State0</text></g><g id="State1"><rect fill="#FEFECE" filter="url(#f1xfue5d00newp)" height="50" rx="12.5" ry="12.5" style="stroke: #A80036; stroke-width: 1.5;" width="61" x="7" y="215"/><line style="stroke: #A80036; stroke-width: 1.5;" x1="7" x2="68" y1="242.6094" y2="242.6094"/><text fill="#000000" font-family="sans-serif" font-size="14" lengthAdjust="spacingAndGlyphs" textLength="41" x="17" y="234.5332">State1</text></g><g id="State2"><rect fill="#FEFECE" filter="url(#f1xfue5d00newp)" height="50" rx="12.5" ry="12.5" style="stroke: #A80036; stroke-width: 1.5;" width="61" x="290" y="343"/><line style="stroke: #A80036; stroke-width: 1.5;" x1="290" x2="351" y1="370.6094" y2="370.6094"/><text fill="#000000" font-family="sans-serif" font-size="14" lengthAdjust="spacingAndGlyphs" textLength="41" x="300" y="362.5332">State2</text></g><ellipse cx="320.5" cy="481" fill="none" filter="url(#f1xfue5d00newp)" rx="10" ry="10" style="stroke: #000000; stroke-width: 1.0;"/><ellipse cx="321" cy="481.5" fill="#000000" rx="6" ry="6" style="stroke: none; stroke-width: 1.0;"/><!--MD5=[6bf52256a5a3d79cde37855053ede169]
link *start to State0--><path d="M357.5,26.013 C357.5,38.698 357.5,62.409 357.5,81.57 " fill="none" id="*start-&gt;State0" style="stroke: #A80036; stroke-width: 1.0;"/><polygon fill="#A80036" points="357.5,86.84,361.5,77.84,357.5,81.84,353.5,77.84,357.5,86.84" style="stroke: #A80036; stroke-width: 1.0;"/><!--MD5=[a9c2f088fcd292d29c9f53cd9a680591]
link State0 to State1--><path d="M326.817,125.081 C267.205,148.554 136.061,200.192 72.8866,225.067 " fill="none" id="State0-&gt;State1" style="stroke: #A80036; stroke-width: 1.0;"/><polygon fill="#A80036" points="68.0901,226.955,77.9298,227.3796,72.7425,225.1232,74.9989,219.9359,68.0901,226.955" style="stroke: #A80036; stroke-width: 1.0;"/><text fill="#000000" font-family="sans-serif" font-size="13" lengthAdjust="spacingAndGlyphs" textLength="28" x="218.5" y="181.4951">Start</text><!--MD5=[dcf63a51bdeb3e817e699e6130214cc7]
link State1 to State1--><path d="M68.159,236.235 C86.1553,235.432 103,236.687 103,240 C103,243.002 89.1656,244.314 73.1772,243.937 " fill="none" id="State1-&gt;State1" style="stroke: #A80036; stroke-width: 1.0;"/><polygon fill="#A80036" points="68.159,243.765,77.0171,248.0702,73.1561,243.9359,77.2904,240.0749,68.159,243.765" style="stroke: #A80036; stroke-width: 1.0;"/><text fill="#000000" font-family="sans-serif" font-size="13" lengthAdjust="spacingAndGlyphs" textLength="59" x="109" y="245.4951">Movement</text><!--MD5=[dcf63a51bdeb3e817e699e6130214cc7]
link State1 to State1--><path d="M68.3094,234.461 C111.761,229.862 174,231.708 174,240 C174,247.968 116.528,249.984 73.4825,246.048 " fill="none" id="State1-&gt;State1-1" style="stroke: #A80036; stroke-width: 1.0;"/><polygon fill="#A80036" points="68.3094,245.539,76.8739,250.402,73.2853,246.0292,77.6582,242.4406,68.3094,245.539" style="stroke: #A80036; stroke-width: 1.0;"/><text fill="#000000" font-family="sans-serif" font-size="13" lengthAdjust="spacingAndGlyphs" textLength="90" x="180" y="245.4951">[undoable]Undo</text><!--MD5=[dcf63a51bdeb3e817e699e6130214cc7]
link State1 to State1--><path d="M68.2212,233.672 C138.363,224.391 276,226.5 276,240 C276,253.184 144.739,255.504 73.2617,246.962 " fill="none" id="State1-&gt;State1-2" style="stroke: #A80036; stroke-width: 1.0;"/><polygon fill="#A80036" points="68.2212,246.328,76.6517,251.4199,73.1821,246.952,77.65,243.4824,68.2212,246.328" style="stroke: #A80036; stroke-width: 1.0;"/><text fill="#000000" font-family="sans-serif" font-size="13" lengthAdjust="spacingAndGlyphs" textLength="87" x="282" y="245.4951">[redoable]Redo</text><!--MD5=[dc702cd49c4e27e6abb2620dc4bb28d8]
link State1 to State2--><path d="M68.0548,254.604 C120.881,278.124 228.994,326.259 285.043,351.213 " fill="none" id="State1-&gt;State2" style="stroke: #A80036; stroke-width: 1.0;"/><polygon fill="#A80036" points="289.644,353.262,283.0493,345.9469,285.0764,351.2281,279.7951,353.2551,289.644,353.262" style="stroke: #A80036; stroke-width: 1.0;"/><text fill="#000000" font-family="sans-serif" font-size="13" lengthAdjust="spacingAndGlyphs" textLength="125" x="197.5" y="309.4951">[isTicTacToe]Resume</text><!--MD5=[5e39cec6328142e5e49f463209477919]
link State2 to State0--><path d="M351.423,343.066 C372.81,324.427 399.495,296.488 411.5,265 C427.807,222.226 401.273,172.105 379.959,141.458 " fill="none" id="State2-&gt;State0" style="stroke: #A80036; stroke-width: 1.0;"/><polygon fill="#A80036" points="376.858,137.081,378.7961,146.7373,379.7481,141.1611,385.3243,142.1132,376.858,137.081" style="stroke: #A80036; stroke-width: 1.0;"/><text fill="#000000" font-family="sans-serif" font-size="13" lengthAdjust="spacingAndGlyphs" textLength="73" x="418.5" y="245.4951">[isResumed]</text><!--MD5=[37ebb224bae70bf8df0e6bab9d19d55b]
link State2 to *end--><path d="M320.5,393.0853 C320.5,415.1589 320.5,447.1177 320.5,465.5025 " fill="none" id="State2-&gt;*end" style="stroke: #A80036; stroke-width: 1.0;"/><polygon fill="#A80036" points="320.5,470.7464,324.5,461.7464,320.5,465.7464,316.5,461.7464,320.5,470.7464" style="stroke: #A80036; stroke-width: 1.0;"/><text fill="#000000" font-family="sans-serif" font-size="13" lengthAdjust="spacingAndGlyphs" textLength="32" x="321.5" y="437.4951">[else]</text><!--MD5=[4011bba177112c831e77bb34bea44224]
@startuml

[*] - -> State0
State0 - -> State1 : Start
State1 - -> State1 : Movement
State1 - -> State1 : [undoable]Undo
State1 - -> State1 : [redoable]Redo
State1 - -> State2 : [isTicTacToe]Resume
State2 - -> State0 : [isResumed]
State2 - -> [*] : [else]
@enduml

PlantUML version 1.2020.15(Sun Jun 28 13:39:45 CEST 2020)
(GPL source distribution)
Java Runtime: Java(TM) SE Runtime Environment
JVM: Java HotSpot(TM) 64-Bit Server VM
Default Encoding: windows-1252
Language: es
Country: ES
--></g></svg>