<?xml version="1.0" encoding="UTF-8" standalone="no"?><svg xmlns="http://www.w3.org/2000/svg" xmlns:xlink="http://www.w3.org/1999/xlink" contentScriptType="application/ecmascript" contentStyleType="text/css" height="508px" preserveAspectRatio="none" style="width:270px;height:508px;" version="1.1" viewBox="0 0 270 508" width="270px" zoomAndPan="magnify"><defs><filter height="300%" id="f1t43ua417uwks" width="300%" x="-1" y="-1"><feGaussianBlur result="blurOut" stdDeviation="2.0"/><feColorMatrix in="blurOut" result="blurOut2" type="matrix" values="0 0 0 0 0 0 0 0 0 0 0 0 0 0 0 0 0 0 .4 0"/><feOffset dx="4.0" dy="4.0" in="blurOut2" result="blurOut3"/><feBlend in="SourceGraphic" in2="blurOut3" mode="normal"/></filter></defs><g><ellipse cx="154.5" cy="16" fill="#000000" filter="url(#f1t43ua417uwks)" rx="10" ry="10" style="stroke: none; stroke-width: 1.0;"/><g id="State0"><rect fill="#FEFECE" filter="url(#f1t43ua417uwks)" height="50" rx="12.5" ry="12.5" style="stroke: #A80036; stroke-width: 1.5;" width="61" x="124" y="87"/><line style="stroke: #A80036; stroke-width: 1.5;" x1="124" x2="185" y1="114.6094" y2="114.6094"/><text fill="#000000" font-family="sans-serif" font-size="14" lengthAdjust="spacingAndGlyphs" textLength="41" x="134" y="106.5332">State0</text></g><g id="State1"><rect fill="#FEFECE" filter="url(#f1t43ua417uwks)" height="50" rx="12.5" ry="12.5" style="stroke: #A80036; stroke-width: 1.5;" width="61" x="7" y="215"/><line style="stroke: #A80036; stroke-width: 1.5;" x1="7" x2="68" y1="242.6094" y2="242.6094"/><text fill="#000000" font-family="sans-serif" font-size="14" lengthAdjust="spacingAndGlyphs" textLength="41" x="17" y="234.5332">State1</text></g><g id="State2"><rect fill="#FEFECE" filter="url(#f1t43ua417uwks)" height="50" rx="12.5" ry="12.5" style="stroke: #A80036; stroke-width: 1.5;" width="61" x="87" y="343"/><line style="stroke: #A80036; stroke-width: 1.5;" x1="87" x2="148" y1="370.6094" y2="370.6094"/><text fill="#000000" font-family="sans-serif" font-size="14" lengthAdjust="spacingAndGlyphs" textLength="41" x="97" y="362.5332">State2</text></g><ellipse cx="117.5" cy="481" fill="none" filter="url(#f1t43ua417uwks)" rx="10" ry="10" style="stroke: #000000; stroke-width: 1.0;"/><ellipse cx="118" cy="481.5" fill="#000000" rx="6" ry="6" style="stroke: none; stroke-width: 1.0;"/><!--MD5=[6bf52256a5a3d79cde37855053ede169]
link *start to State0--><path d="M154.5,26.013 C154.5,38.698 154.5,62.409 154.5,81.57 " fill="none" id="*start-&gt;State0" style="stroke: #A80036; stroke-width: 1.0;"/><polygon fill="#A80036" points="154.5,86.84,158.5,77.84,154.5,81.84,150.5,77.84,154.5,86.84" style="stroke: #A80036; stroke-width: 1.0;"/><!--MD5=[a9c2f088fcd292d29c9f53cd9a680591]
link State0 to State1--><path d="M131.941,137.294 C112.356,158.386 83.9963,188.927 63.4701,211.032 " fill="none" id="State0-&gt;State1" style="stroke: #A80036; stroke-width: 1.0;"/><polygon fill="#A80036" points="59.9895,214.781,69.0442,210.9065,63.3913,211.1166,63.1812,205.4637,59.9895,214.781" style="stroke: #A80036; stroke-width: 1.0;"/><text fill="#000000" font-family="sans-serif" font-size="13" lengthAdjust="spacingAndGlyphs" textLength="28" x="104.5" y="181.4951">Start</text><!--MD5=[dcf63a51bdeb3e817e699e6130214cc7]
link State1 to State1--><path d="M68.159,228.704 C86.1553,226.297 103,230.062 103,240 C103,249.006 89.1656,252.943 73.1772,251.81 " fill="none" id="State1-&gt;State1" style="stroke: #A80036; stroke-width: 1.0;"/><polygon fill="#A80036" points="68.159,251.296,76.7044,256.1926,73.133,251.8057,77.5199,248.2343,68.159,251.296" style="stroke: #A80036; stroke-width: 1.0;"/><text fill="#000000" font-family="sans-serif" font-size="13" lengthAdjust="spacingAndGlyphs" textLength="26" x="109" y="245.4951">Play</text><!--MD5=[dc702cd49c4e27e6abb2620dc4bb28d8]
link State1 to State2--><path d="M33.7863,265.129 C32.7015,279.841 33.5154,298.532 41.5,313 C50.5009,329.31 66.7701,341.87 81.9528,350.754 " fill="none" id="State1-&gt;State2" style="stroke: #A80036; stroke-width: 1.0;"/><polygon fill="#A80036" points="86.6206,353.393,80.7549,345.4814,82.2681,350.9321,76.8174,352.4453,86.6206,353.393" style="stroke: #A80036; stroke-width: 1.0;"/><text fill="#000000" font-family="sans-serif" font-size="13" lengthAdjust="spacingAndGlyphs" textLength="125" x="42.5" y="309.4951">[isTicTacToe]Resume</text><!--MD5=[5e39cec6328142e5e49f463209477919]
link State2 to State0--><path d="M148.112,345.028 C157.798,336.278 167.322,325.339 172.5,313 C196.318,256.237 178.716,182.63 165.501,142.419 " fill="none" id="State2-&gt;State0" style="stroke: #A80036; stroke-width: 1.0;"/><polygon fill="#A80036" points="163.752,137.209,162.8246,147.0141,165.3434,141.949,170.4085,144.4678,163.752,137.209" style="stroke: #A80036; stroke-width: 1.0;"/><text fill="#000000" font-family="sans-serif" font-size="13" lengthAdjust="spacingAndGlyphs" textLength="73" x="185.5" y="245.4951">[isResumed]</text><!--MD5=[37ebb224bae70bf8df0e6bab9d19d55b]
link State2 to *end--><path d="M117.5,393.0853 C117.5,415.1589 117.5,447.1177 117.5,465.5025 " fill="none" id="State2-&gt;*end" style="stroke: #A80036; stroke-width: 1.0;"/><polygon fill="#A80036" points="117.5,470.7464,121.5,461.7464,117.5,465.7464,113.5,461.7464,117.5,470.7464" style="stroke: #A80036; stroke-width: 1.0;"/><text fill="#000000" font-family="sans-serif" font-size="13" lengthAdjust="spacingAndGlyphs" textLength="32" x="118.5" y="437.4951">[else]</text><!--MD5=[ba151432a2c3c19c4dc7ec3787fa54c4]
@startuml

[*] - -> State0
State0 - -> State1 : Start
State1 - -> State1 : Play
State1 - -> State2 : [isTicTacToe]Resume
State2 - -> State0 : [isResumed]
State2 - -> [*] : [else]
@enduml

PlantUML version 1.2020.15(Sun Jun 28 13:39:45 CEST 2020)
(GPL source distribution)
Java Runtime: Java(TM) SE Runtime Environment
JVM: Java HotSpot(TM) 64-Bit Server VM
Default Encoding: windows-1252
Language: es
Country: ES
--></g></svg>