<?xml version="1.0" encoding="UTF-8" standalone="no"?><svg xmlns="http://www.w3.org/2000/svg" xmlns:xlink="http://www.w3.org/1999/xlink" contentScriptType="application/ecmascript" contentStyleType="text/css" height="185px" preserveAspectRatio="none" style="width:202px;height:185px;" version="1.1" viewBox="0 0 202 185" width="202px" zoomAndPan="magnify"><defs><filter height="300%" id="f1k6h423b1x2zx" width="300%" x="-1" y="-1"><feGaussianBlur result="blurOut" stdDeviation="2.0"/><feColorMatrix in="blurOut" result="blurOut2" type="matrix" values="0 0 0 0 0 0 0 0 0 0 0 0 0 0 0 0 0 0 .4 0"/><feOffset dx="4.0" dy="4.0" in="blurOut2" result="blurOut3"/><feBlend in="SourceGraphic" in2="blurOut3" mode="normal"/></filter></defs><g><!--MD5=[de2effd8dc5bf946a609466312d0f75f]
entity Player--><ellipse cx="26" cy="55.5" fill="#FEFECE" filter="url(#f1k6h423b1x2zx)" rx="8" ry="8" style="stroke: #A80036; stroke-width: 1.5;"/><path d="M26,63.5 L26,90.5 M13,71.5 L39,71.5 M26,90.5 L13,105.5 M26,90.5 L39,105.5 " fill="none" filter="url(#f1k6h423b1x2zx)" style="stroke: #A80036; stroke-width: 1.5;"/><text fill="#000000" font-family="sans-serif" font-size="14" lengthAdjust="spacingAndGlyphs" textLength="40" x="6" y="125.5332">Player</text><ellipse cx="146.2132" cy="21.4517" fill="#FEFECE" filter="url(#f1k6h423b1x2zx)" rx="24.2132" ry="15.4517" style="stroke: #A80036; stroke-width: 1.5;"/><text fill="#000000" font-family="sans-serif" font-size="14" lengthAdjust="spacingAndGlyphs" textLength="30" x="131.2132" y="26.7564">Start</text><ellipse cx="146.0919" cy="87.4517" fill="#FEFECE" filter="url(#f1k6h423b1x2zx)" rx="22.0919" ry="15.4517" style="stroke: #A80036; stroke-width: 1.5;"/><text fill="#000000" font-family="sans-serif" font-size="14" lengthAdjust="spacingAndGlyphs" textLength="27" x="132.5919" y="92.7564">Play</text><ellipse cx="145.7696" cy="153.4517" fill="#FEFECE" filter="url(#f1k6h423b1x2zx)" rx="39.7696" ry="15.4517" style="stroke: #A80036; stroke-width: 1.5;"/><text fill="#000000" font-family="sans-serif" font-size="14" lengthAdjust="spacingAndGlyphs" textLength="52" x="119.7696" y="158.7564">Resume</text><!--MD5=[39353cd92ba960c69c4d2a9385fee2c7]
link Player to Start--><path d="M46.2214,76.7491 C67.1948,65.018 100.7215,46.266 122.801,33.916 " fill="none" id="Player-&gt;Start" style="stroke: #A80036; stroke-width: 1.0;"/><polygon fill="#A80036" points="127.33,31.383,117.5228,32.2874,122.9667,33.8247,121.4294,39.2686,127.33,31.383" style="stroke: #A80036; stroke-width: 1.0;"/><!--MD5=[9a505df3ac87f02537cb93af365c2474]
link Player to Play--><path d="M46.2214,87.5 C65.931,87.5 96.7267,87.5 118.69,87.5 " fill="none" id="Player-&gt;Play" style="stroke: #A80036; stroke-width: 1.0;"/><polygon fill="#A80036" points="123.792,87.5,114.792,83.5,118.792,87.5,114.792,91.5,123.792,87.5" style="stroke: #A80036; stroke-width: 1.0;"/><!--MD5=[5fec2ab2a197ce562aec9d83f689b0ce]
link Player to Resume--><path d="M46.2214,98.2509 C65.6096,109.0952 95.7252,125.9395 117.609,138.1795 " fill="none" id="Player-&gt;Resume" style="stroke: #A80036; stroke-width: 1.0;"/><polygon fill="#A80036" points="122.147,140.7177,116.2437,132.8341,117.7829,138.2775,112.3394,139.8167,122.147,140.7177" style="stroke: #A80036; stroke-width: 1.0;"/><!--MD5=[1bf20b1ae4d02a7ce791e65e3ce0c2f9]
@startuml
left to right direction
actor Player
usecase Start
usecase Play
usecase Resume

Player - -> Start
Player - -> Play
Player - -> Resume

@enduml

PlantUML version 1.2020.15(Sun Jun 28 13:39:45 CEST 2020)
(GPL source distribution)
Java Runtime: OpenJDK Runtime Environment
JVM: OpenJDK 64-Bit Server VM
Default Encoding: windows-1252
Language: es
Country: ES
--></g></svg>