<?xml version="1.0" encoding="UTF-8" standalone="no"?><svg xmlns="http://www.w3.org/2000/svg" xmlns:xlink="http://www.w3.org/1999/xlink" contentScriptType="application/ecmascript" contentStyleType="text/css" height="412px" preserveAspectRatio="none" style="width:147px;height:412px;" version="1.1" viewBox="0 0 147 412" width="147px" zoomAndPan="magnify"><defs><filter height="300%" id="fqx8zo86bw40v" width="300%" x="-1" y="-1"><feGaussianBlur result="blurOut" stdDeviation="2.0"/><feColorMatrix in="blurOut" result="blurOut2" type="matrix" values="0 0 0 0 0 0 0 0 0 0 0 0 0 0 0 0 0 0 .4 0"/><feOffset dx="4.0" dy="4.0" in="blurOut2" result="blurOut3"/><feBlend in="SourceGraphic" in2="blurOut3" mode="normal"/></filter></defs><g><ellipse cx="37.5" cy="16" fill="#000000" filter="url(#fqx8zo86bw40v)" rx="10" ry="10" style="stroke: none; stroke-width: 1.0;"/><g id="State0"><rect fill="#FEFECE" filter="url(#fqx8zo86bw40v)" height="50" rx="12.5" ry="12.5" style="stroke: #A80036; stroke-width: 1.5;" width="61" x="7" y="87"/><line style="stroke: #A80036; stroke-width: 1.5;" x1="7" x2="68" y1="114.6094" y2="114.6094"/><text fill="#000000" font-family="sans-serif" font-size="14" lengthAdjust="spacingAndGlyphs" textLength="41" x="17" y="106.5332">State0</text></g><g id="State1"><rect fill="#FEFECE" filter="url(#fqx8zo86bw40v)" height="50" rx="12.5" ry="12.5" style="stroke: #A80036; stroke-width: 1.5;" width="61" x="7" y="215"/><line style="stroke: #A80036; stroke-width: 1.5;" x1="7" x2="68" y1="242.6094" y2="242.6094"/><text fill="#000000" font-family="sans-serif" font-size="14" lengthAdjust="spacingAndGlyphs" textLength="41" x="17" y="234.5332">State1</text></g><g id="State2"><rect fill="#FEFECE" filter="url(#fqx8zo86bw40v)" height="50" rx="12.5" ry="12.5" style="stroke: #A80036; stroke-width: 1.5;" width="61" x="7" y="343"/><line style="stroke: #A80036; stroke-width: 1.5;" x1="7" x2="68" y1="370.6094" y2="370.6094"/><text fill="#000000" font-family="sans-serif" font-size="14" lengthAdjust="spacingAndGlyphs" textLength="41" x="17" y="362.5332">State2</text></g><!--MD5=[6bf52256a5a3d79cde37855053ede169]
link *start to State0--><path d="M37.5,26.013 C37.5,38.698 37.5,62.409 37.5,81.57 " fill="none" id="*start-&gt;State0" style="stroke: #A80036; stroke-width: 1.0;"/><polygon fill="#A80036" points="37.5,86.84,41.5,77.84,37.5,81.84,33.5,77.84,37.5,86.84" style="stroke: #A80036; stroke-width: 1.0;"/><!--MD5=[a9c2f088fcd292d29c9f53cd9a680591]
link State0 to State1--><path d="M37.5,137.294 C37.5,157.95 37.5,187.669 37.5,209.651 " fill="none" id="State0-&gt;State1" style="stroke: #A80036; stroke-width: 1.0;"/><polygon fill="#A80036" points="37.5,214.781,41.5,205.781,37.5,209.781,33.5,205.781,37.5,214.781" style="stroke: #A80036; stroke-width: 1.0;"/><text fill="#000000" font-family="sans-serif" font-size="13" lengthAdjust="spacingAndGlyphs" textLength="28" x="38.5" y="181.4951">Start</text><!--MD5=[dcf63a51bdeb3e817e699e6130214cc7]
link State1 to State1--><path d="M68.159,228.704 C86.1553,226.297 103,230.062 103,240 C103,249.006 89.1656,252.943 73.1772,251.81 " fill="none" id="State1-&gt;State1" style="stroke: #A80036; stroke-width: 1.0;"/><polygon fill="#A80036" points="68.159,251.296,76.7044,256.1926,73.133,251.8057,77.5199,248.2343,68.159,251.296" style="stroke: #A80036; stroke-width: 1.0;"/><text fill="#000000" font-family="sans-serif" font-size="13" lengthAdjust="spacingAndGlyphs" textLength="26" x="109" y="245.4951">Play</text><!--MD5=[dc702cd49c4e27e6abb2620dc4bb28d8]
link State1 to State2--><path d="M37.5,265.294 C37.5,285.95 37.5,315.669 37.5,337.6514 " fill="none" id="State1-&gt;State2" style="stroke: #A80036; stroke-width: 1.0;"/><polygon fill="#A80036" points="37.5,342.7805,41.5,333.7805,37.5,337.7805,33.5,333.7805,37.5,342.7805" style="stroke: #A80036; stroke-width: 1.0;"/><text fill="#000000" font-family="sans-serif" font-size="13" lengthAdjust="spacingAndGlyphs" textLength="37" x="38.5" y="309.4951">Result</text><!--MD5=[f1beeb77b51825adb81a74ba49ae2dca]
@startuml

[*] - -> State0
State0 - -> State1 : Start
State1 - -> State1 : Play
State1 - -> State2 : Result
@enduml

PlantUML version 1.2020.15(Sun Jun 28 13:39:45 CEST 2020)
(GPL source distribution)
Java Runtime: Java(TM) SE Runtime Environment
JVM: Java HotSpot(TM) 64-Bit Server VM
Default Encoding: windows-1252
Language: es
Country: ES
--></g></svg>