<?xml version="1.0" encoding="UTF-8" standalone="no"?><svg xmlns="http://www.w3.org/2000/svg" xmlns:xlink="http://www.w3.org/1999/xlink" contentScriptType="application/ecmascript" contentStyleType="text/css" height="508px" preserveAspectRatio="none" style="width:348px;height:508px;" version="1.1" viewBox="0 0 348 508" width="348px" zoomAndPan="magnify"><defs><filter height="300%" id="f1krdzexroxko7" width="300%" x="-1" y="-1"><feGaussianBlur result="blurOut" stdDeviation="2.0"/><feColorMatrix in="blurOut" result="blurOut2" type="matrix" values="0 0 0 0 0 0 0 0 0 0 0 0 0 0 0 0 0 0 .4 0"/><feOffset dx="4.0" dy="4.0" in="blurOut2" result="blurOut3"/><feBlend in="SourceGraphic" in2="blurOut3" mode="normal"/></filter></defs><g><ellipse cx="225.0794" cy="16" fill="#000000" filter="url(#f1krdzexroxko7)" rx="10" ry="10" style="stroke: none; stroke-width: 1.0;"/><g id="State0"><rect fill="#FEFECE" filter="url(#f1krdzexroxko7)" height="50" rx="12.5" ry="12.5" style="stroke: #A80036; stroke-width: 1.5;" width="61" x="194.5794" y="87"/><line style="stroke: #A80036; stroke-width: 1.5;" x1="194.5794" x2="255.5794" y1="114.6094" y2="114.6094"/><text fill="#000000" font-family="sans-serif" font-size="14" lengthAdjust="spacingAndGlyphs" textLength="41" x="204.5794" y="106.5332">State0</text></g><g id="State1"><rect fill="#FEFECE" filter="url(#f1krdzexroxko7)" height="50" rx="12.5" ry="12.5" style="stroke: #A80036; stroke-width: 1.5;" width="61" x="77.5789" y="215"/><line style="stroke: #A80036; stroke-width: 1.5;" x1="77.5789" x2="138.5789" y1="242.6094" y2="242.6094"/><text fill="#000000" font-family="sans-serif" font-size="14" lengthAdjust="spacingAndGlyphs" textLength="41" x="87.5789" y="234.5332">State1</text></g><g id="State2"><rect fill="#FEFECE" filter="url(#f1krdzexroxko7)" height="50" rx="12.5" ry="12.5" style="stroke: #A80036; stroke-width: 1.5;" width="61" x="84.5789" y="343"/><line style="stroke: #A80036; stroke-width: 1.5;" x1="84.5789" x2="145.5789" y1="370.6094" y2="370.6094"/><text fill="#000000" font-family="sans-serif" font-size="14" lengthAdjust="spacingAndGlyphs" textLength="41" x="94.5789" y="362.5332">State2</text></g><ellipse cx="115.0789" cy="481" fill="none" filter="url(#f1krdzexroxko7)" rx="10" ry="10" style="stroke: #000000; stroke-width: 1.0;"/><ellipse cx="115.5789" cy="481.5" fill="#000000" rx="6" ry="6" style="stroke: none; stroke-width: 1.0;"/><!--MD5=[6bf52256a5a3d79cde37855053ede169]
link *start to State0--><path d="M225.0794,26.013 C225.0794,38.698 225.0794,62.409 225.0794,81.57 " fill="none" id="*start-&gt;State0" style="stroke: #A80036; stroke-width: 1.0;"/><polygon fill="#A80036" points="225.0794,86.84,229.0794,77.84,225.0794,81.84,221.0794,77.84,225.0794,86.84" style="stroke: #A80036; stroke-width: 1.0;"/><!--MD5=[a9c2f088fcd292d29c9f53cd9a680591]
link State0 to State1--><path d="M202.5204,137.294 C182.9354,158.386 154.5754,188.927 134.0494,211.032 " fill="none" id="State0-&gt;State1" style="stroke: #A80036; stroke-width: 1.0;"/><polygon fill="#A80036" points="130.5684,214.781,139.623,210.9062,133.9701,211.1165,133.7598,205.4635,130.5684,214.781" style="stroke: #A80036; stroke-width: 1.0;"/><text fill="#000000" font-family="sans-serif" font-size="13" lengthAdjust="spacingAndGlyphs" textLength="28" x="175.0794" y="181.4951">Start</text><!--MD5=[dcf63a51bdeb3e817e699e6130214cc7]
link State1 to State1--><path d="M138.7384,228.704 C156.7344,226.297 173.5794,230.062 173.5794,240 C173.5794,249.006 159.7444,252.943 143.7564,251.81 " fill="none" id="State1-&gt;State1" style="stroke: #A80036; stroke-width: 1.0;"/><polygon fill="#A80036" points="138.7384,251.296,147.2835,256.1931,143.7123,251.806,148.0994,248.2348,138.7384,251.296" style="stroke: #A80036; stroke-width: 1.0;"/><text fill="#000000" font-family="sans-serif" font-size="13" lengthAdjust="spacingAndGlyphs" textLength="26" x="179.5794" y="245.4951">Play</text><!--MD5=[dc702cd49c4e27e6abb2620dc4bb28d8]
link State1 to State2--><path d="M77.4065,251.161 C46.6536,263.161 6,285.071 22.0789,313 C34.411,334.421 58.8592,348.128 79.5943,356.371 " fill="none" id="State1-&gt;State2" style="stroke: #A80036; stroke-width: 1.0;"/><polygon fill="#A80036" points="84.5015,358.249,77.526,351.2962,79.8319,356.4617,74.6663,358.7676,84.5015,358.249" style="stroke: #A80036; stroke-width: 1.0;"/><text fill="#000000" font-family="sans-serif" font-size="13" lengthAdjust="spacingAndGlyphs" textLength="48" x="23.0789" y="309.4951">Resume</text><!--MD5=[dc702cd49c4e27e6abb2620dc4bb28d8]
link State1 to State2--><path d="M109.4286,265.294 C110.5761,285.95 112.2272,315.669 113.4484,337.651 " fill="none" id="State1-&gt;State2-1" style="stroke: #A80036; stroke-width: 1.0;"/><polygon fill="#A80036" points="113.7334,342.781,117.2284,333.5731,113.4563,337.7887,109.2407,334.0166,113.7334,342.781" style="stroke: #A80036; stroke-width: 1.0;"/><text fill="#000000" font-family="sans-serif" font-size="13" lengthAdjust="spacingAndGlyphs" textLength="125" x="113.0789" y="309.4951">[isTicTacToe]Resume</text><!--MD5=[5e39cec6328142e5e49f463209477919]
link State2 to State0--><path d="M145.7244,363.626 C176.2384,358.454 221.5444,345.458 243.0794,313 C277.6914,260.832 254.8864,183.439 238.1864,141.881 " fill="none" id="State2-&gt;State0" style="stroke: #A80036; stroke-width: 1.0;"/><polygon fill="#A80036" points="236.2864,137.239,235.9944,147.0835,238.1807,141.8663,243.398,144.0526,236.2864,137.239" style="stroke: #A80036; stroke-width: 1.0;"/><text fill="#000000" font-family="sans-serif" font-size="13" lengthAdjust="spacingAndGlyphs" textLength="73" x="263.0794" y="245.4951">[isResumed]</text><!--MD5=[37ebb224bae70bf8df0e6bab9d19d55b]
link State2 to *end--><path d="M115.0789,393.0853 C115.0789,415.1589 115.0789,447.1177 115.0789,465.5025 " fill="none" id="State2-&gt;*end" style="stroke: #A80036; stroke-width: 1.0;"/><polygon fill="#A80036" points="115.0789,470.7464,119.0789,461.7464,115.0789,465.7464,111.0789,461.7464,115.0789,470.7464" style="stroke: #A80036; stroke-width: 1.0;"/><text fill="#000000" font-family="sans-serif" font-size="13" lengthAdjust="spacingAndGlyphs" textLength="32" x="116.0789" y="437.4951">[else]</text><!--MD5=[20550344dc02b7078beeb798908a7d91]
@startuml

[*] - -> State0
State0 - -> State1 : Start
State1 - -> State1 : Play
State1 - -> State2 : Resume
State1 - -> State2 : [isTicTacToe]Resume
State2 - -> State0 : [isResumed]
State2 - -> [*] : [else]
@enduml

PlantUML version 1.2020.15(Sun Jun 28 13:39:45 CEST 2020)
(GPL source distribution)
Java Runtime: Java(TM) SE Runtime Environment
JVM: Java HotSpot(TM) 64-Bit Server VM
Default Encoding: windows-1252
Language: es
Country: ES
--></g></svg>