<?xml version="1.0" encoding="UTF-8" standalone="no"?><svg xmlns="http://www.w3.org/2000/svg" xmlns:xlink="http://www.w3.org/1999/xlink" contentScriptType="application/ecmascript" contentStyleType="text/css" height="764px" preserveAspectRatio="none" style="width:635px;height:764px;" version="1.1" viewBox="0 0 635 764" width="635px" zoomAndPan="magnify"><defs><filter height="300%" id="f1ab3k6sshtkuy" width="300%" x="-1" y="-1"><feGaussianBlur result="blurOut" stdDeviation="2.0"/><feColorMatrix in="blurOut" result="blurOut2" type="matrix" values="0 0 0 0 0 0 0 0 0 0 0 0 0 0 0 0 0 0 .4 0"/><feOffset dx="4.0" dy="4.0" in="blurOut2" result="blurOut3"/><feBlend in="SourceGraphic" in2="blurOut3" mode="normal"/></filter></defs><g><ellipse cx="447.5" cy="16" fill="#000000" filter="url(#f1ab3k6sshtkuy)" rx="10" ry="10" style="stroke: none; stroke-width: 1.0;"/><g id="State0"><rect fill="#FEFECE" filter="url(#f1ab3k6sshtkuy)" height="50" rx="12.5" ry="12.5" style="stroke: #A80036; stroke-width: 1.5;" width="61" x="417" y="87"/><line style="stroke: #A80036; stroke-width: 1.5;" x1="417" x2="478" y1="114.6094" y2="114.6094"/><text fill="#000000" font-family="sans-serif" font-size="14" lengthAdjust="spacingAndGlyphs" textLength="41" x="427" y="106.5332">State0</text></g><g id="State1"><rect fill="#FEFECE" filter="url(#f1ab3k6sshtkuy)" height="50" rx="12.5" ry="12.5" style="stroke: #A80036; stroke-width: 1.5;" width="61" x="7" y="215"/><line style="stroke: #A80036; stroke-width: 1.5;" x1="7" x2="68" y1="242.6094" y2="242.6094"/><text fill="#000000" font-family="sans-serif" font-size="14" lengthAdjust="spacingAndGlyphs" textLength="41" x="17" y="234.5332">State1</text></g><g id="State3"><rect fill="#FEFECE" filter="url(#f1ab3k6sshtkuy)" height="50" rx="12.5" ry="12.5" style="stroke: #A80036; stroke-width: 1.5;" width="61" x="72" y="343"/><line style="stroke: #A80036; stroke-width: 1.5;" x1="72" x2="133" y1="370.6094" y2="370.6094"/><text fill="#000000" font-family="sans-serif" font-size="14" lengthAdjust="spacingAndGlyphs" textLength="41" x="82" y="362.5332">State3</text></g><g id="State4"><rect fill="#FEFECE" filter="url(#f1ab3k6sshtkuy)" height="50" rx="12.5" ry="12.5" style="stroke: #A80036; stroke-width: 1.5;" width="61" x="417" y="471"/><line style="stroke: #A80036; stroke-width: 1.5;" x1="417" x2="478" y1="498.6094" y2="498.6094"/><text fill="#000000" font-family="sans-serif" font-size="14" lengthAdjust="spacingAndGlyphs" textLength="41" x="427" y="490.5332">State4</text></g><g id="State2"><rect fill="#FEFECE" filter="url(#f1ab3k6sshtkuy)" height="50" rx="12.5" ry="12.5" style="stroke: #A80036; stroke-width: 1.5;" width="61" x="475" y="599"/><line style="stroke: #A80036; stroke-width: 1.5;" x1="475" x2="536" y1="626.6094" y2="626.6094"/><text fill="#000000" font-family="sans-serif" font-size="14" lengthAdjust="spacingAndGlyphs" textLength="41" x="485" y="618.5332">State2</text></g><ellipse cx="505.5" cy="737" fill="none" filter="url(#f1ab3k6sshtkuy)" rx="10" ry="10" style="stroke: #000000; stroke-width: 1.0;"/><ellipse cx="506" cy="737.5" fill="#000000" rx="6" ry="6" style="stroke: none; stroke-width: 1.0;"/><!--MD5=[6bf52256a5a3d79cde37855053ede169]
link *start to State0--><path d="M447.5,26.013 C447.5,38.698 447.5,62.409 447.5,81.57 " fill="none" id="*start-&gt;State0" style="stroke: #A80036; stroke-width: 1.0;"/><polygon fill="#A80036" points="447.5,86.84,451.5,77.84,447.5,81.84,443.5,77.84,447.5,86.84" style="stroke: #A80036; stroke-width: 1.0;"/><!--MD5=[a9c2f088fcd292d29c9f53cd9a680591]
link State0 to State1--><path d="M416.683,122.47 C342.151,145.375 152.456,203.672 73.175,228.036 " fill="none" id="State0-&gt;State1" style="stroke: #A80036; stroke-width: 1.0;"/><polygon fill="#A80036" points="68.115,229.592,77.893,230.7711,72.8943,228.1229,75.5425,223.1242,68.115,229.592" style="stroke: #A80036; stroke-width: 1.0;"/><text fill="#000000" font-family="sans-serif" font-size="13" lengthAdjust="spacingAndGlyphs" textLength="28" x="268.5" y="181.4951">Start</text><!--MD5=[dcf63a51bdeb3e817e699e6130214cc7]
link State1 to State1--><path d="M68.159,236.235 C86.1553,235.432 103,236.687 103,240 C103,243.002 89.1656,244.314 73.1772,243.937 " fill="none" id="State1-&gt;State1" style="stroke: #A80036; stroke-width: 1.0;"/><polygon fill="#A80036" points="68.159,243.765,77.0171,248.0702,73.1561,243.9359,77.2904,240.0749,68.159,243.765" style="stroke: #A80036; stroke-width: 1.0;"/><text fill="#000000" font-family="sans-serif" font-size="13" lengthAdjust="spacingAndGlyphs" textLength="59" x="109" y="245.4951">Movement</text><!--MD5=[dcf63a51bdeb3e817e699e6130214cc7]
link State1 to State1--><path d="M68.3094,234.461 C111.761,229.862 174,231.708 174,240 C174,247.968 116.528,249.984 73.4825,246.048 " fill="none" id="State1-&gt;State1-1" style="stroke: #A80036; stroke-width: 1.0;"/><polygon fill="#A80036" points="68.3094,245.539,76.8739,250.402,73.2853,246.0292,77.6582,242.4406,68.3094,245.539" style="stroke: #A80036; stroke-width: 1.0;"/><text fill="#000000" font-family="sans-serif" font-size="13" lengthAdjust="spacingAndGlyphs" textLength="90" x="180" y="245.4951">[undoable]Undo</text><!--MD5=[dcf63a51bdeb3e817e699e6130214cc7]
link State1 to State1--><path d="M68.2212,233.672 C138.363,224.391 276,226.5 276,240 C276,253.184 144.739,255.504 73.2617,246.962 " fill="none" id="State1-&gt;State1-2" style="stroke: #A80036; stroke-width: 1.0;"/><polygon fill="#A80036" points="68.2212,246.328,76.6517,251.4199,73.1821,246.952,77.65,243.4824,68.2212,246.328" style="stroke: #A80036; stroke-width: 1.0;"/><text fill="#000000" font-family="sans-serif" font-size="13" lengthAdjust="spacingAndGlyphs" textLength="87" x="282" y="245.4951">[redoable]Redo</text><!--MD5=[98642968b161d6b5aa442c8e772df306]
link State1 to State3--><path d="M30.9557,265.178 C28.3264,279.733 27.3738,298.241 34.5,313 C41.5669,327.636 54.742,339.522 67.6271,348.378 " fill="none" id="State1-&gt;State3" style="stroke: #A80036; stroke-width: 1.0;"/><polygon fill="#A80036" points="71.9765,351.265,66.6902,342.955,67.8107,348.4998,62.2659,349.6203,71.9765,351.265" style="stroke: #A80036; stroke-width: 1.0;"/><text fill="#000000" font-family="sans-serif" font-size="13" lengthAdjust="spacingAndGlyphs" textLength="23" x="35.5" y="309.4951">Exit</text><!--MD5=[98642968b161d6b5aa442c8e772df306]
link State1 to State3--><path d="M50.0327,265.294 C60.7783,286.124 76.2788,316.171 87.6461,338.206 " fill="none" id="State1-&gt;State3-1" style="stroke: #A80036; stroke-width: 1.0;"/><polygon fill="#A80036" points="90.0058,342.781,89.436,332.9486,87.7142,338.3371,82.3258,336.6152,90.0058,342.781" style="stroke: #A80036; stroke-width: 1.0;"/><text fill="#000000" font-family="sans-serif" font-size="13" lengthAdjust="spacingAndGlyphs" textLength="77" x="75.5" y="309.4951">[isTicTacToe]</text><!--MD5=[ba4168f70349cc0467fd74c2e3858fc7]
link State3 to State4--><path d="M133.116,380.182 C197.052,403.532 344.422,457.354 412.211,482.112 " fill="none" id="State3-&gt;State4" style="stroke: #A80036; stroke-width: 1.0;"/><polygon fill="#A80036" points="416.952,483.843,409.8707,476.9979,412.2555,482.1275,407.1259,484.5123,416.952,483.843" style="stroke: #A80036; stroke-width: 1.0;"/><text fill="#000000" font-family="sans-serif" font-size="13" lengthAdjust="spacingAndGlyphs" textLength="28" x="297.5" y="437.4951">Save</text><!--MD5=[93b975ae79a95d342785a7ad49888945]
link State0 to State4--><path d="M446.78,137.012 C445.734,174.558 443.976,249.453 444.5,313 C444.944,366.913 446.129,429.801 446.87,465.756 " fill="none" id="State0-&gt;State4" style="stroke: #A80036; stroke-width: 1.0;"/><polygon fill="#A80036" points="446.976,470.861,450.79,461.7806,446.8731,465.8621,442.7917,461.9452,446.976,470.861" style="stroke: #A80036; stroke-width: 1.0;"/><text fill="#000000" font-family="sans-serif" font-size="13" lengthAdjust="spacingAndGlyphs" textLength="77" x="445.5" y="309.4951">[isTicTacToe]</text><!--MD5=[5e39cec6328142e5e49f463209477919]
link State2 to State0--><path d="M519.422,598.773 C532.313,574.023 549.5,534.073 549.5,497 C549.5,239 549.5,239 549.5,239 C549.5,195.275 511.934,158.216 482.398,135.836 " fill="none" id="State2-&gt;State0" style="stroke: #A80036; stroke-width: 1.0;"/><polygon fill="#A80036" points="478.103,132.641,482.9344,141.2234,482.1139,135.6264,487.711,134.8059,478.103,132.641" style="stroke: #A80036; stroke-width: 1.0;"/><text fill="#000000" font-family="sans-serif" font-size="13" lengthAdjust="spacingAndGlyphs" textLength="73" x="550.5" y="373.4951">[isResumed]</text><!--MD5=[7065fc78f72d7464487d94bfa1e5711f]
link State4 to State2--><path d="M454.948,521.13 C459.641,535.333 466.186,553.494 473.5,569 C477.501,577.482 482.429,586.364 487.207,594.419 " fill="none" id="State4-&gt;State2" style="stroke: #A80036; stroke-width: 1.0;"/><polygon fill="#A80036" points="489.84,598.801,488.6323,589.0265,487.2644,594.5154,481.7754,593.1475,489.84,598.801" style="stroke: #A80036; stroke-width: 1.0;"/><text fill="#000000" font-family="sans-serif" font-size="13" lengthAdjust="spacingAndGlyphs" textLength="48" x="474.5" y="565.4951">Resume</text><!--MD5=[37ebb224bae70bf8df0e6bab9d19d55b]
link State2 to *end--><path d="M505.5,649.0853 C505.5,671.1589 505.5,703.1177 505.5,721.5025 " fill="none" id="State2-&gt;*end" style="stroke: #A80036; stroke-width: 1.0;"/><polygon fill="#A80036" points="505.5,726.7464,509.5,717.7464,505.5,721.7464,501.5,717.7464,505.5,726.7464" style="stroke: #A80036; stroke-width: 1.0;"/><text fill="#000000" font-family="sans-serif" font-size="13" lengthAdjust="spacingAndGlyphs" textLength="32" x="506.5" y="693.4951">[else]</text><!--MD5=[77e6c6aab4346de4c6fe6c294ab119c5]
@startuml

[*] - -> State0
State0 - -> State1 : Start
State1 - -> State1 : Movement
State1 - -> State1 : [undoable]Undo
State1 - -> State1 : [redoable]Redo
State1 - -> State3 : Exit
State3 - -> State4 : Save
State1 - -> State3 : [isTicTacToe]
State0 - -> State4 : [isTicTacToe]
State2 - -> State0 : [isResumed]
State4 - -> State2 : Resume
State2 - -> [*] : [else]
@enduml

PlantUML version 1.2020.15(Sun Jun 28 13:39:45 CEST 2020)
(GPL source distribution)
Java Runtime: Java(TM) SE Runtime Environment
JVM: Java HotSpot(TM) 64-Bit Server VM
Default Encoding: windows-1252
Language: es
Country: ES
--></g></svg>