<?xml version="1.0" encoding="UTF-8" standalone="no"?><svg xmlns="http://www.w3.org/2000/svg" xmlns:xlink="http://www.w3.org/1999/xlink" contentScriptType="application/ecmascript" contentStyleType="text/css" height="195px" preserveAspectRatio="none" style="width:496px;height:195px;" version="1.1" viewBox="0 0 496 195" width="496px" zoomAndPan="magnify"><defs><filter height="300%" id="f1horicrw1chfm" width="300%" x="-1" y="-1"><feGaussianBlur result="blurOut" stdDeviation="2.0"/><feColorMatrix in="blurOut" result="blurOut2" type="matrix" values="0 0 0 0 0 0 0 0 0 0 0 0 0 0 0 0 0 0 .4 0"/><feOffset dx="4.0" dy="4.0" in="blurOut2" result="blurOut3"/><feBlend in="SourceGraphic" in2="blurOut3" mode="normal"/></filter></defs><g><!--MD5=[de2effd8dc5bf946a609466312d0f75f]
entity Player--><ellipse cx="249" cy="14" fill="#FEFECE" filter="url(#f1horicrw1chfm)" rx="8" ry="8" style="stroke: #A80036; stroke-width: 1.5;"/><path d="M249,22 L249,49 M236,30 L262,30 M249,49 L236,64 M249,49 L262,64 " fill="none" filter="url(#f1horicrw1chfm)" style="stroke: #A80036; stroke-width: 1.5;"/><text fill="#000000" font-family="sans-serif" font-size="14" lengthAdjust="spacingAndGlyphs" textLength="40" x="229" y="84.0332">Player</text><ellipse cx="30.2132" cy="162.9517" fill="#FEFECE" filter="url(#f1horicrw1chfm)" rx="24.2132" ry="15.4517" style="stroke: #A80036; stroke-width: 1.5;"/><text fill="#000000" font-family="sans-serif" font-size="14" lengthAdjust="spacingAndGlyphs" textLength="30" x="15.2132" y="168.2564">Start</text><ellipse cx="137.9619" cy="162.9517" fill="#FEFECE" filter="url(#f1horicrw1chfm)" rx="48.9619" ry="15.4517" style="stroke: #A80036; stroke-width: 1.5;"/><text fill="#000000" font-family="sans-serif" font-size="14" lengthAdjust="spacingAndGlyphs" textLength="65" x="105.4619" y="168.2564">Movement</text><ellipse cx="248.8345" cy="162.9517" fill="#FEFECE" filter="url(#f1horicrw1chfm)" rx="26.3345" ry="15.4517" style="stroke: #A80036; stroke-width: 1.5;"/><text fill="#000000" font-family="sans-serif" font-size="14" lengthAdjust="spacingAndGlyphs" textLength="33" x="232.3345" y="168.2564">Undo</text><ellipse cx="338.0416" cy="162.9517" fill="#FEFECE" filter="url(#f1horicrw1chfm)" rx="27.0416" ry="15.4517" style="stroke: #A80036; stroke-width: 1.5;"/><text fill="#000000" font-family="sans-serif" font-size="14" lengthAdjust="spacingAndGlyphs" textLength="34" x="321.0416" y="168.2564">Redo</text><ellipse cx="439.7696" cy="162.9517" fill="#FEFECE" filter="url(#f1horicrw1chfm)" rx="39.7696" ry="15.4517" style="stroke: #A80036; stroke-width: 1.5;"/><text fill="#000000" font-family="sans-serif" font-size="14" lengthAdjust="spacingAndGlyphs" textLength="52" x="413.7696" y="168.2564">Resume</text><!--MD5=[39353cd92ba960c69c4d2a9385fee2c7]
link Player to Start--><path d="M228.79,57.613 C187.821,79.1261 95.2538,127.7343 52.4655,150.203 " fill="none" id="Player-&gt;Start" style="stroke: #A80036; stroke-width: 1.0;"/><polygon fill="#A80036" points="47.9915,152.5524,57.8193,151.9094,52.4182,150.2277,54.0999,144.8266,47.9915,152.5524" style="stroke: #A80036; stroke-width: 1.0;"/><!--MD5=[1e5622e419e61827803d8907ecf40cdc]
link Player to Movement--><path d="M228.899,67.826 C207.843,89.6399 175.122,123.5407 155.215,144.1642 " fill="none" id="Player-&gt;Movement" style="stroke: #A80036; stroke-width: 1.0;"/><polygon fill="#A80036" points="151.653,147.8546,160.7816,144.1575,155.1256,144.2573,155.0258,138.6013,151.653,147.8546" style="stroke: #A80036; stroke-width: 1.0;"/><!--MD5=[0380c48cc03698e9c08b2a5affc527cb]
link Player to Undo--><path d="M249,87.5447 C249,106.0898 249,127.2191 249,142.2195 " fill="none" id="Player-&gt;Undo" style="stroke: #A80036; stroke-width: 1.0;"/><polygon fill="#A80036" points="249,147.4525,253,138.4525,249,142.4525,245,138.4525,249,147.4525" style="stroke: #A80036; stroke-width: 1.0;"/><!--MD5=[714833a1def7c2d3f9278f33fd9da27b]
link Player to Redo--><path d="M269.195,73.095 C286.074,94.9051 309.683,125.4103 324.395,144.4209 " fill="none" id="Player-&gt;Redo" style="stroke: #A80036; stroke-width: 1.0;"/><polygon fill="#A80036" points="327.574,148.5282,325.2292,138.9625,324.5139,144.574,318.9025,143.8587,327.574,148.5282" style="stroke: #A80036; stroke-width: 1.0;"/><!--MD5=[5fec2ab2a197ce562aec9d83f689b0ce]
link Player to Resume--><path d="M269.079,59.09 C304.145,80.2028 376.459,123.7421 414.82,146.8391 " fill="none" id="Player-&gt;Resume" style="stroke: #A80036; stroke-width: 1.0;"/><polygon fill="#A80036" points="419.325,149.5516,413.6773,141.4829,415.0413,146.9729,409.5513,148.3368,419.325,149.5516" style="stroke: #A80036; stroke-width: 1.0;"/><!--MD5=[8fc482790f45ff07dafc4cbb10919499]
@startuml

actor Player
usecase Start
usecase Movement
usecase Undo
usecase Redo
usecase Resume

Player - -> Start
Player - -> Movement
Player - -> Undo
Player - -> Redo
Player - -> Resume

@enduml

PlantUML version 1.2020.15(Sun Jun 28 13:39:45 CEST 2020)
(GPL source distribution)
Java Runtime: Java(TM) SE Runtime Environment
JVM: Java HotSpot(TM) 64-Bit Server VM
Default Encoding: windows-1252
Language: es
Country: ES
--></g></svg>