<?xml version="1.0" encoding="UTF-8" standalone="no"?><svg xmlns="http://www.w3.org/2000/svg" xmlns:xlink="http://www.w3.org/1999/xlink" contentScriptType="application/ecmascript" contentStyleType="text/css" height="508px" preserveAspectRatio="none" style="width:258px;height:508px;" version="1.1" viewBox="0 0 258 508" width="258px" zoomAndPan="magnify"><defs><filter height="300%" id="fc11820zcydfr" width="300%" x="-1" y="-1"><feGaussianBlur result="blurOut" stdDeviation="2.0"/><feColorMatrix in="blurOut" result="blurOut2" type="matrix" values="0 0 0 0 0 0 0 0 0 0 0 0 0 0 0 0 0 0 .4 0"/><feOffset dx="4.0" dy="4.0" in="blurOut2" result="blurOut3"/><feBlend in="SourceGraphic" in2="blurOut3" mode="normal"/></filter></defs><g><g id="State0"><rect fill="#FEFECE" filter="url(#fc11820zcydfr)" height="50" rx="12.5" ry="12.5" style="stroke: #A80036; stroke-width: 1.5;" width="50" x="120" y="87"/><line style="stroke: #A80036; stroke-width: 1.5;" x1="120" x2="170" y1="114.6094" y2="114.6094"/><text fill="#000000" font-family="sans-serif" font-size="14" lengthAdjust="spacingAndGlyphs" textLength="0" x="147" y="106.5332"/></g><g id="State1"><rect fill="#FEFECE" filter="url(#fc11820zcydfr)" height="50" rx="12.5" ry="12.5" style="stroke: #A80036; stroke-width: 1.5;" width="50" x="7" y="215"/><line style="stroke: #A80036; stroke-width: 1.5;" x1="7" x2="57" y1="242.6094" y2="242.6094"/><text fill="#000000" font-family="sans-serif" font-size="14" lengthAdjust="spacingAndGlyphs" textLength="0" x="34" y="234.5332"/></g><g id="State2"><rect fill="#FEFECE" filter="url(#fc11820zcydfr)" height="50" rx="12.5" ry="12.5" style="stroke: #A80036; stroke-width: 1.5;" width="50" x="83" y="343"/><line style="stroke: #A80036; stroke-width: 1.5;" x1="83" x2="133" y1="370.6094" y2="370.6094"/><text fill="#000000" font-family="sans-serif" font-size="14" lengthAdjust="spacingAndGlyphs" textLength="0" x="110" y="362.5332"/></g><ellipse cx="145" cy="16" fill="#000000" filter="url(#fc11820zcydfr)" rx="10" ry="10" style="stroke: none; stroke-width: 1.0;"/><ellipse cx="108" cy="481" fill="none" filter="url(#fc11820zcydfr)" rx="10" ry="10" style="stroke: #000000; stroke-width: 1.0;"/><ellipse cx="108.5" cy="481.5" fill="#000000" rx="6" ry="6" style="stroke: none; stroke-width: 1.0;"/><!--MD5=[6bf52256a5a3d79cde37855053ede169]
link *start to State0--><path d="M145,26.013 C145,38.698 145,62.409 145,81.57 " fill="none" id="*start-&gt;State0" style="stroke: #A80036; stroke-width: 1.0;"/><polygon fill="#A80036" points="145,86.84,149,77.84,145,81.84,141,77.84,145,86.84" style="stroke: #A80036; stroke-width: 1.0;"/><!--MD5=[a9c2f088fcd292d29c9f53cd9a680591]
link State0 to State1--><path d="M123.212,137.294 C104.297,158.386 76.9067,188.927 57.0822,211.032 " fill="none" id="State0-&gt;State1" style="stroke: #A80036; stroke-width: 1.0;"/><polygon fill="#A80036" points="53.7206,214.781,62.7075,210.7517,57.059,211.0588,56.7519,205.4102,53.7206,214.781" style="stroke: #A80036; stroke-width: 1.0;"/><text fill="#000000" font-family="sans-serif" font-size="13" lengthAdjust="spacingAndGlyphs" textLength="28" x="97" y="181.4951">Start</text><!--MD5=[dcf63a51bdeb3e817e699e6130214cc7]
link State1 to State1--><path d="M57.2777,229.172 C74.7734,225.891 92,229.5 92,240 C92,249.434 78.0949,253.305 62.5823,251.615 " fill="none" id="State1-&gt;State1" style="stroke: #A80036; stroke-width: 1.0;"/><polygon fill="#A80036" points="57.2777,250.828,65.5938,256.1046,62.2236,251.5613,66.767,248.1911,57.2777,250.828" style="stroke: #A80036; stroke-width: 1.0;"/><text fill="#000000" font-family="sans-serif" font-size="13" lengthAdjust="spacingAndGlyphs" textLength="26" x="98" y="245.4951">Play</text><!--MD5=[dc702cd49c4e27e6abb2620dc4bb28d8]
link State1 to State2--><path d="M25.6548,265.022 C23.1104,279.693 22.3393,298.379 30,313 C40.1312,332.336 60.6794,346.125 78.1427,354.927 " fill="none" id="State1-&gt;State2" style="stroke: #A80036; stroke-width: 1.0;"/><polygon fill="#A80036" points="82.9752,357.278,76.6314,349.7443,78.4789,355.091,73.1322,356.9384,82.9752,357.278" style="stroke: #A80036; stroke-width: 1.0;"/><text fill="#000000" font-family="sans-serif" font-size="13" lengthAdjust="spacingAndGlyphs" textLength="125" x="31" y="309.4951">[isTicTacToe]Resume</text><!--MD5=[5e39cec6328142e5e49f463209477919]
link State2 to State0--><path d="M133.043,348.87 C143.812,339.515 155.235,327.105 161,313 C184.271,256.067 167.829,182.524 155.386,142.37 " fill="none" id="State2-&gt;State0" style="stroke: #A80036; stroke-width: 1.0;"/><polygon fill="#A80036" points="153.738,137.168,152.6424,146.9557,155.2478,141.9346,160.269,144.54,153.738,137.168" style="stroke: #A80036; stroke-width: 1.0;"/><text fill="#000000" font-family="sans-serif" font-size="13" lengthAdjust="spacingAndGlyphs" textLength="73" x="173" y="245.4951">[isResumed]</text><!--MD5=[37ebb224bae70bf8df0e6bab9d19d55b]
link State2 to *end--><path d="M108,393.0853 C108,415.1589 108,447.1177 108,465.5025 " fill="none" id="State2-&gt;*end" style="stroke: #A80036; stroke-width: 1.0;"/><polygon fill="#A80036" points="108,470.7464,112,461.7464,108,465.7464,104,461.7464,108,470.7464" style="stroke: #A80036; stroke-width: 1.0;"/><text fill="#000000" font-family="sans-serif" font-size="13" lengthAdjust="spacingAndGlyphs" textLength="32" x="109" y="437.4951">[else]</text><!--MD5=[a39ebaa7ad6630515fcbf95639c7bb0a]
@startuml
state State0 as " "
state State1 as " "
state State2 as " "
[*] - -> State0
State0 - -> State1 : Start
State1 - -> State1 : Play
State1 - -> State2 : [isTicTacToe]Resume
State2 - -> State0 : [isResumed]
State2 - -> [*] : [else]
@enduml

PlantUML version 1.2020.15(Sun Jun 28 13:39:45 CEST 2020)
(GPL source distribution)
Java Runtime: OpenJDK Runtime Environment
JVM: OpenJDK 64-Bit Server VM
Default Encoding: windows-1252
Language: es
Country: ES
--></g></svg>