<?xml version="1.0" encoding="UTF-8" standalone="no"?><svg xmlns="http://www.w3.org/2000/svg" xmlns:xlink="http://www.w3.org/1999/xlink" contentScriptType="application/ecmascript" contentStyleType="text/css" height="195px" preserveAspectRatio="none" style="width:638px;height:195px;" version="1.1" viewBox="0 0 638 195" width="638px" zoomAndPan="magnify"><defs><filter height="300%" id="f134r02pm9vrzq" width="300%" x="-1" y="-1"><feGaussianBlur result="blurOut" stdDeviation="2.0"/><feColorMatrix in="blurOut" result="blurOut2" type="matrix" values="0 0 0 0 0 0 0 0 0 0 0 0 0 0 0 0 0 0 .4 0"/><feOffset dx="4.0" dy="4.0" in="blurOut2" result="blurOut3"/><feBlend in="SourceGraphic" in2="blurOut3" mode="normal"/></filter></defs><g><!--MD5=[de2effd8dc5bf946a609466312d0f75f]
entity Player--><ellipse cx="338" cy="14" fill="#FEFECE" filter="url(#f134r02pm9vrzq)" rx="8" ry="8" style="stroke: #A80036; stroke-width: 1.5;"/><path d="M338,22 L338,49 M325,30 L351,30 M338,49 L325,64 M338,49 L351,64 " fill="none" filter="url(#f134r02pm9vrzq)" style="stroke: #A80036; stroke-width: 1.5;"/><text fill="#000000" font-family="sans-serif" font-size="14" lengthAdjust="spacingAndGlyphs" textLength="40" x="318" y="84.0332">Player</text><ellipse cx="30.2132" cy="162.9517" fill="#FEFECE" filter="url(#f134r02pm9vrzq)" rx="24.2132" ry="15.4517" style="stroke: #A80036; stroke-width: 1.5;"/><text fill="#000000" font-family="sans-serif" font-size="14" lengthAdjust="spacingAndGlyphs" textLength="30" x="15.2132" y="168.2564">Start</text><ellipse cx="137.9619" cy="162.9517" fill="#FEFECE" filter="url(#f134r02pm9vrzq)" rx="48.9619" ry="15.4517" style="stroke: #A80036; stroke-width: 1.5;"/><text fill="#000000" font-family="sans-serif" font-size="14" lengthAdjust="spacingAndGlyphs" textLength="65" x="105.4619" y="168.2564">Movement</text><ellipse cx="248.8345" cy="162.9517" fill="#FEFECE" filter="url(#f134r02pm9vrzq)" rx="26.3345" ry="15.4517" style="stroke: #A80036; stroke-width: 1.5;"/><text fill="#000000" font-family="sans-serif" font-size="14" lengthAdjust="spacingAndGlyphs" textLength="33" x="232.3345" y="168.2564">Undo</text><ellipse cx="338.0416" cy="162.9517" fill="#FEFECE" filter="url(#f134r02pm9vrzq)" rx="27.0416" ry="15.4517" style="stroke: #A80036; stroke-width: 1.5;"/><text fill="#000000" font-family="sans-serif" font-size="14" lengthAdjust="spacingAndGlyphs" textLength="34" x="321.0416" y="168.2564">Redo</text><ellipse cx="419.0605" cy="162.9484" fill="#FEFECE" filter="url(#f134r02pm9vrzq)" rx="18.5605" ry="15.4484" style="stroke: #A80036; stroke-width: 1.5;"/><text fill="#000000" font-family="sans-serif" font-size="14" lengthAdjust="spacingAndGlyphs" textLength="22" x="408.0605" y="168.2531">Exit</text><ellipse cx="498.1274" cy="162.9517" fill="#FEFECE" filter="url(#f134r02pm9vrzq)" rx="25.6274" ry="15.4517" style="stroke: #A80036; stroke-width: 1.5;"/><text fill="#000000" font-family="sans-serif" font-size="14" lengthAdjust="spacingAndGlyphs" textLength="32" x="482.1274" y="168.2564">Save</text><ellipse cx="589.7843" cy="162.9517" fill="#FEFECE" filter="url(#f134r02pm9vrzq)" rx="31.2843" ry="15.4517" style="stroke: #A80036; stroke-width: 1.5;"/><text fill="#000000" font-family="sans-serif" font-size="14" lengthAdjust="spacingAndGlyphs" textLength="40" x="569.7843" y="168.2564">Result</text><!--MD5=[39353cd92ba960c69c4d2a9385fee2c7]
link Player to Start--><path d="M317.791,54.545 C263.51,74.813 114.625,130.4028 55.0884,152.6326 " fill="none" id="Player-&gt;Start" style="stroke: #A80036; stroke-width: 1.0;"/><polygon fill="#A80036" points="50.2832,154.4267,60.1138,155.0255,54.9673,152.6776,57.3152,147.531,50.2832,154.4267" style="stroke: #A80036; stroke-width: 1.0;"/><!--MD5=[1e5622e419e61827803d8907ecf40cdc]
link Player to Movement--><path d="M317.722,58.66 C281.555,79.456 205.906,122.9543 165.243,146.3354 " fill="none" id="Player-&gt;Movement" style="stroke: #A80036; stroke-width: 1.0;"/><polygon fill="#A80036" points="160.462,149.0842,170.258,148.0648,164.7963,146.5915,166.2696,141.1299,160.462,149.0842" style="stroke: #A80036; stroke-width: 1.0;"/><!--MD5=[0380c48cc03698e9c08b2a5affc527cb]
link Player to Undo--><path d="M317.805,73.095 C300.926,94.9051 277.317,125.4103 262.605,144.4209 " fill="none" id="Player-&gt;Undo" style="stroke: #A80036; stroke-width: 1.0;"/><polygon fill="#A80036" points="259.426,148.5282,268.0975,143.8587,262.4861,144.574,261.7708,138.9625,259.426,148.5282" style="stroke: #A80036; stroke-width: 1.0;"/><!--MD5=[714833a1def7c2d3f9278f33fd9da27b]
link Player to Redo--><path d="M338,87.5447 C338,106.0898 338,127.2191 338,142.2195 " fill="none" id="Player-&gt;Redo" style="stroke: #A80036; stroke-width: 1.0;"/><polygon fill="#A80036" points="338,147.4525,342,138.4525,338,142.4525,334,138.4525,338,147.4525" style="stroke: #A80036; stroke-width: 1.0;"/><!--MD5=[8e8f658c86bf230e4048e4af0c39e552]
link Player to Exit--><path d="M358.022,75.427 C373.398,97.2558 394.116,126.6707 407.01,144.9776 " fill="none" id="Player-&gt;Exit" style="stroke: #A80036; stroke-width: 1.0;"/><polygon fill="#A80036" points="410.112,149.3812,408.1988,139.72,407.2324,145.2937,401.6587,144.3273,410.112,149.3812" style="stroke: #A80036; stroke-width: 1.0;"/><!--MD5=[4b15e63cbdec9d7363171c88be305ecc]
link Player to Save--><path d="M358.264,61.565 C389.041,83.6856 447.222,125.5031 477.9,147.5534 " fill="none" id="Player-&gt;Save" style="stroke: #A80036; stroke-width: 1.0;"/><polygon fill="#A80036" points="482.221,150.6586,477.248,142.1575,478.1611,147.7401,472.5785,148.6532,482.221,150.6586" style="stroke: #A80036; stroke-width: 1.0;"/><!--MD5=[50fa493b18ddf617f1898be6efab284a]
link Player to Result--><path d="M358.196,56.217 C403.341,76.818 512.436,126.6039 563.195,149.7673 " fill="none" id="Player-&gt;Result" style="stroke: #A80036; stroke-width: 1.0;"/><polygon fill="#A80036" points="567.92,151.924,561.3927,144.5487,563.3712,149.8483,558.0716,151.8268,567.92,151.924" style="stroke: #A80036; stroke-width: 1.0;"/><!--MD5=[04fd51337c64e6056d65e1fba9892d9e]
@startuml

actor Player
usecase Start
usecase Movement
usecase Undo
usecase Redo
usecase Exit
usecase Save
usecase Result

Player - -> Start
Player - -> Movement
Player - -> Undo
Player - -> Redo
Player - -> Exit
Player - -> Save
Player - -> Result

@enduml

PlantUML version 1.2020.15(Sun Jun 28 13:39:45 CEST 2020)
(GPL source distribution)
Java Runtime: Java(TM) SE Runtime Environment
JVM: Java HotSpot(TM) 64-Bit Server VM
Default Encoding: windows-1252
Language: es
Country: ES
--></g></svg>