<?xml version="1.0" encoding="UTF-8" standalone="no"?><svg xmlns="http://www.w3.org/2000/svg" xmlns:xlink="http://www.w3.org/1999/xlink" contentScriptType="application/ecmascript" contentStyleType="text/css" height="803px" preserveAspectRatio="none" style="width:300px;height:803px;" version="1.1" viewBox="0 0 300 803" width="300px" zoomAndPan="magnify"><defs><filter height="300%" id="f1x24i6uxd1btk" width="300%" x="-1" y="-1"><feGaussianBlur result="blurOut" stdDeviation="2.0"/><feColorMatrix in="blurOut" result="blurOut2" type="matrix" values="0 0 0 0 0 0 0 0 0 0 0 0 0 0 0 0 0 0 .4 0"/><feOffset dx="4.0" dy="4.0" in="blurOut2" result="blurOut3"/><feBlend in="SourceGraphic" in2="blurOut3" mode="normal"/></filter></defs><g><ellipse cx="176.8" cy="16" fill="#000000" filter="url(#f1x24i6uxd1btk)" rx="10" ry="10" style="stroke: none; stroke-width: 1.0;"/><rect fill="#FEFECE" filter="url(#f1x24i6uxd1btk)" height="35.0938" rx="12.5" ry="12.5" style="stroke: #A80036; stroke-width: 1.5;" width="83" x="135.3" y="67"/><text fill="#000000" font-family="sans-serif" font-size="12" lengthAdjust="spacingAndGlyphs" textLength="63" x="145.3" y="89.457">put player X</text><polygon fill="#FEFECE" filter="url(#f1x24i6uxd1btk)" points="121.8,143,133.8,155,121.8,167,109.8,155,121.8,143" style="stroke: #A80036; stroke-width: 1.5;"/><ellipse cx="121.8" cy="776" fill="none" filter="url(#f1x24i6uxd1btk)" rx="10" ry="10" style="stroke: #000000; stroke-width: 1.0;"/><ellipse cx="122.3" cy="776.5" fill="#000000" rx="6" ry="6" style="stroke: none; stroke-width: 1.0;"/><rect fill="#FEFECE" filter="url(#f1x24i6uxd1btk)" height="35.0938" rx="12.5" ry="12.5" style="stroke: #A80036; stroke-width: 1.5;" width="85" x="79.3" y="222"/><text fill="#000000" font-family="sans-serif" font-size="12" lengthAdjust="spacingAndGlyphs" textLength="65" x="89.3" y="244.457">put player O</text><polygon fill="#FEFECE" filter="url(#f1x24i6uxd1btk)" points="121.8,298,133.8,310,121.8,322,109.8,310,121.8,298" style="stroke: #A80036; stroke-width: 1.5;"/><polygon fill="#FEFECE" filter="url(#f1x24i6uxd1btk)" points="204.8,363,216.8,375,204.8,387,192.8,375,204.8,363" style="stroke: #A80036; stroke-width: 1.5;"/><rect fill="#FEFECE" filter="url(#f1x24i6uxd1btk)" height="35.0938" rx="12.5" ry="12.5" style="stroke: #A80036; stroke-width: 1.5;" width="96" x="163.8" y="442"/><text fill="#000000" font-family="sans-serif" font-size="12" lengthAdjust="spacingAndGlyphs" textLength="76" x="173.8" y="464.457">move player X</text><polygon fill="#FEFECE" filter="url(#f1x24i6uxd1btk)" points="211.8,518,223.8,530,211.8,542,199.8,530,211.8,518" style="stroke: #A80036; stroke-width: 1.5;"/><rect fill="#FEFECE" filter="url(#f1x24i6uxd1btk)" height="35.0938" rx="12.5" ry="12.5" style="stroke: #A80036; stroke-width: 1.5;" width="98" x="173.8" y="597"/><text fill="#000000" font-family="sans-serif" font-size="12" lengthAdjust="spacingAndGlyphs" textLength="78" x="183.8" y="619.457">move player O</text><polygon fill="#FEFECE" filter="url(#f1x24i6uxd1btk)" points="222.8,687,234.8,699,222.8,711,210.8,699,222.8,687" style="stroke: #A80036; stroke-width: 1.5;"/><!--MD5=[c99c04afee2ad7e3684af5e7b0c73427]
link start to put player X--><path d="M176.8,26.247 C176.8,35.427 176.8,49.836 176.8,61.901 " fill="none" id="start-&gt;put player X" style="stroke: #A80036; stroke-width: 1.0;"/><polygon fill="#A80036" points="176.8,66.907,180.8,57.907,176.8,61.907,172.8,57.907,176.8,66.907" style="stroke: #A80036; stroke-width: 1.0;"/><!--MD5=[70132c0e4500572de370bccfa656625c]
link put player X to #168--><path d="M163.486,102.082 C153.045,115.085 138.848,132.767 130.009,143.776 " fill="none" id="put player X-&gt;#168" style="stroke: #A80036; stroke-width: 1.0;"/><polygon fill="#A80036" points="126.793,147.781,135.5466,143.2672,129.9233,143.8821,129.3084,138.2588,126.793,147.781" style="stroke: #A80036; stroke-width: 1.0;"/><text fill="#000000" font-family="sans-serif" font-size="11" lengthAdjust="spacingAndGlyphs" textLength="95" x="141.5567" y="142.459">is tictactoe player X</text><!--MD5=[e708928e00a02ce34def3fb49a897288]
link #168 to end--><path d="M114.4341,159.676 C95.7166,169.597 47.8,198.865 47.8,238.5 C47.8,238.5 47.8,238.5 47.8,700 C47.8,734.0379 86.8986,758.2196 108.2555,768.8894 " fill="none" id="#168-&gt;end" style="stroke: #A80036; stroke-width: 1.0;"/><polygon fill="#A80036" points="113.0206,771.1932,106.6588,763.6747,108.5191,769.0169,103.1768,770.8771,113.0206,771.1932" style="stroke: #A80036; stroke-width: 1.0;"/><text fill="#000000" font-family="sans-serif" font-size="11" lengthAdjust="spacingAndGlyphs" textLength="20" x="48.8" y="464.4189">Yes</text><!--MD5=[106fa2e6dadac0d4bae21b358984ff7e]
link #168 to put player O--><path d="M121.8,167.126 C121.8,179.771 121.8,200.72 121.8,216.66 " fill="none" id="#168-&gt;put player O" style="stroke: #A80036; stroke-width: 1.0;"/><polygon fill="#A80036" points="121.8,221.855,125.8,212.855,121.8,216.855,117.8,212.855,121.8,221.855" style="stroke: #A80036; stroke-width: 1.0;"/><text fill="#000000" font-family="sans-serif" font-size="11" lengthAdjust="spacingAndGlyphs" textLength="13" x="122.8" y="199.4189">No</text><!--MD5=[12faae7cabfbd8344a2336ab6be9f408]
link put player O to #175--><path d="M121.8,257.082 C121.8,267.872 121.8,281.883 121.8,292.63 " fill="none" id="put player O-&gt;#175" style="stroke: #A80036; stroke-width: 1.0;"/><polygon fill="#A80036" points="121.8,297.918,125.8,288.918,121.8,292.918,117.8,288.918,121.8,297.918" style="stroke: #A80036; stroke-width: 1.0;"/><text fill="#000000" font-family="sans-serif" font-size="11" lengthAdjust="spacingAndGlyphs" textLength="96" x="6" y="288.8443">is tictactoe player O</text><!--MD5=[294f570e90bb1ca934d26501c0193ac2]
link #175 to end--><path d="M117.751,318.113 C111.6486,329.521 100.8,352.786 100.8,374 C100.8,374 100.8,374 100.8,700 C100.8,722.3529 109.5569,747.1116 115.7611,761.848 " fill="none" id="#175-&gt;end" style="stroke: #A80036; stroke-width: 1.0;"/><polygon fill="#A80036" points="117.751,766.4433,117.8453,756.5949,115.7641,761.855,110.504,759.7739,117.751,766.4433" style="stroke: #A80036; stroke-width: 1.0;"/><text fill="#000000" font-family="sans-serif" font-size="11" lengthAdjust="spacingAndGlyphs" textLength="20" x="101.8" y="534.9189">Yes</text><!--MD5=[7639ee8d5dcc4981fbf84389adc2e740]
link #175 to #179--><path d="M128.313,315.944 C142.687,326.854 177.219,353.065 194.536,366.209 " fill="none" id="#175-&gt;#179" style="stroke: #A80036; stroke-width: 1.0;"/><polygon fill="#A80036" points="198.545,369.252,193.7942,360.6247,194.5622,366.2292,188.9577,366.9972,198.545,369.252" style="stroke: #A80036; stroke-width: 1.0;"/><text fill="#000000" font-family="sans-serif" font-size="11" lengthAdjust="spacingAndGlyphs" textLength="110" x="75.1449" y="365.0831">are all tokens on board</text><!--MD5=[e2c3c2b72c01bbe556ef5110a7a39c00]
link #179 to move player X--><path d="M205.687,386.449 C206.751,398.992 208.564,420.364 209.94,436.583 " fill="none" id="#179-&gt;move player X" style="stroke: #A80036; stroke-width: 1.0;"/><polygon fill="#A80036" points="210.389,441.865,213.6136,432.559,209.9662,436.8829,205.6423,433.2355,210.389,441.865" style="stroke: #A80036; stroke-width: 1.0;"/><text fill="#000000" font-family="sans-serif" font-size="11" lengthAdjust="spacingAndGlyphs" textLength="20" x="209.8" y="419.4189">Yes</text><!--MD5=[7c641476062cb2ac1c44fca0d0fb0fa8]
link move player X to #184--><path d="M211.8,477.082 C211.8,487.872 211.8,501.883 211.8,512.63 " fill="none" id="move player X-&gt;#184" style="stroke: #A80036; stroke-width: 1.0;"/><polygon fill="#A80036" points="211.8,517.918,215.8,508.918,211.8,512.918,207.8,508.918,211.8,517.918" style="stroke: #A80036; stroke-width: 1.0;"/><text fill="#000000" font-family="sans-serif" font-size="11" lengthAdjust="spacingAndGlyphs" textLength="95" x="97.2063" y="508.8443">is tictactoe player X</text><!--MD5=[e2c9cd98233c6bfc1d36bf8baf9d9331]
link #184 to end--><path d="M206.427,536.677 C196.473,547.513 175.146,572.276 163.8,597 C137.618,654.05 126.827,729.1397 123.2691,760.3842 " fill="none" id="#184-&gt;end" style="stroke: #A80036; stroke-width: 1.0;"/><polygon fill="#A80036" points="122.687,765.6938,127.6442,757.1834,123.232,760.7236,119.6918,756.3114,122.687,765.6938" style="stroke: #A80036; stroke-width: 1.0;"/><text fill="#000000" font-family="sans-serif" font-size="11" lengthAdjust="spacingAndGlyphs" textLength="20" x="144.8" y="664.4189">Yes</text><!--MD5=[6af0ded648e545ab915ac2a53427c40c]
link #184 to move player O--><path d="M213.105,540.788 C214.762,553.212 217.668,575.013 219.868,591.512 " fill="none" id="#184-&gt;move player O" style="stroke: #A80036; stroke-width: 1.0;"/><polygon fill="#A80036" points="220.584,596.882,223.3582,587.4319,219.9225,591.9259,215.4285,588.4903,220.584,596.882" style="stroke: #A80036; stroke-width: 1.0;"/><text fill="#000000" font-family="sans-serif" font-size="11" lengthAdjust="spacingAndGlyphs" textLength="13" x="217.8" y="574.4189">No</text><!--MD5=[68dba4087de2bc3252b3b4429af7244e]
link move player O to #190--><path d="M222.8,632.195 C222.8,646.494 222.8,666.981 222.8,681.286 " fill="none" id="move player O-&gt;#190" style="stroke: #A80036; stroke-width: 1.0;"/><polygon fill="#A80036" points="222.8,686.6262,226.8,677.6262,222.8,681.6262,218.8,677.6262,222.8,686.6262" style="stroke: #A80036; stroke-width: 1.0;"/><text fill="#000000" font-family="sans-serif" font-size="11" lengthAdjust="spacingAndGlyphs" textLength="96" x="107" y="677.4318">is tictactoe player O</text><!--MD5=[9fdebbae56096dd4822802fff0b86f06]
link #190 to end--><path d="M216.482,704.6916 C199.951,716.9667 155.219,750.1842 133.691,766.1701 " fill="none" id="#190-&gt;end" style="stroke: #A80036; stroke-width: 1.0;"/><polygon fill="#A80036" points="129.468,769.3061,139.0787,767.1533,133.4827,766.3258,134.3102,760.7298,129.468,769.3061" style="stroke: #A80036; stroke-width: 1.0;"/><text fill="#000000" font-family="sans-serif" font-size="11" lengthAdjust="spacingAndGlyphs" textLength="20" x="179.8" y="743.4189">Yes</text><!--MD5=[b62f2042d5de3e8e53eb02ee01390b17]
link #190 to move player X--><path d="M229.634,693.163 C242.766,683.395 271.165,659.855 281.8,632 C287.349,617.468 285.451,612.121 281.8,597 C271.164,552.949 243.741,507.153 226.546,481.393 " fill="none" id="#190-&gt;move player X" style="stroke: #A80036; stroke-width: 1.0;"/><polygon fill="#A80036" points="223.67,477.127,225.3856,486.8253,226.4655,481.2725,232.0184,482.3524,223.67,477.127" style="stroke: #A80036; stroke-width: 1.0;"/><text fill="#000000" font-family="sans-serif" font-size="11" lengthAdjust="spacingAndGlyphs" textLength="13" x="275.8" y="574.4189">No</text><!--MD5=[96846de94bf90ae4396e993032c532e2]
link #179 to put player X--><path d="M204.8,362.847 C204.8,350.256 204.8,329.156 204.8,311 C204.8,154 204.8,154 204.8,154 C204.8,137.294 197.576,119.886 190.467,106.8 " fill="none" id="#179-&gt;put player X" style="stroke: #A80036; stroke-width: 1.0;"/><polygon fill="#A80036" points="187.866,102.183,188.7992,111.9875,190.3205,106.5391,195.769,108.0604,187.866,102.183" style="stroke: #A80036; stroke-width: 1.0;"/><text fill="#000000" font-family="sans-serif" font-size="11" lengthAdjust="spacingAndGlyphs" textLength="13" x="205.8" y="244.4189">No</text><!--MD5=[cc11beb152cce4a3d0b4e333209b323b]
@startuml
(*)  - -> "put player X"
If "is tictactoe player X" then
- -> [Yes] (*)
else
- -> [No] "put player O"
 If "is tictactoe player O" then
 - -> [Yes] (*)
 else
  If "are all tokens on board" then
- -> [Yes] "move player X"
  If "is tictactoe player X" then
- -> [Yes] (*)
else
- -> [No] "move player O"
 If "is tictactoe player O" then
 - -> [Yes] (*)
 else
  - -> [No] "move player X"
 Endif
Endif
  else
  - -> [No] "put player X"
  Endif
 Endif
Endif
@enduml

PlantUML version 1.2020.15(Sun Jun 28 13:39:45 CEST 2020)
(GPL source distribution)
Java Runtime: Java(TM) SE Runtime Environment
JVM: Java HotSpot(TM) 64-Bit Server VM
Default Encoding: windows-1252
Language: es
Country: ES
--></g></svg>