<?xml version="1.0" encoding="UTF-8" standalone="no"?><svg xmlns="http://www.w3.org/2000/svg" xmlns:xlink="http://www.w3.org/1999/xlink" contentScriptType="application/ecmascript" contentStyleType="text/css" height="764px" preserveAspectRatio="none" style="width:371px;height:764px;" version="1.1" viewBox="0 0 371 764" width="371px" zoomAndPan="magnify"><defs><filter height="300%" id="fbxp9o33qubpz" width="300%" x="-1" y="-1"><feGaussianBlur result="blurOut" stdDeviation="2.0"/><feColorMatrix in="blurOut" result="blurOut2" type="matrix" values="0 0 0 0 0 0 0 0 0 0 0 0 0 0 0 0 0 0 .4 0"/><feOffset dx="4.0" dy="4.0" in="blurOut2" result="blurOut3"/><feBlend in="SourceGraphic" in2="blurOut3" mode="normal"/></filter></defs><g><g id="A"><rect fill="#FEFECE" filter="url(#fbxp9o33qubpz)" height="50" rx="12.5" ry="12.5" style="stroke: #A80036; stroke-width: 1.5;" width="50" x="253.6322" y="87"/><line style="stroke: #A80036; stroke-width: 1.5;" x1="253.6322" x2="303.6322" y1="114.6094" y2="114.6094"/><text fill="#000000" font-family="sans-serif" font-size="14" lengthAdjust="spacingAndGlyphs" textLength="0" x="280.6322" y="106.5332"/></g><g id="B"><rect fill="#FEFECE" filter="url(#fbxp9o33qubpz)" height="50" rx="12.5" ry="12.5" style="stroke: #A80036; stroke-width: 1.5;" width="50" x="253.6322" y="215"/><line style="stroke: #A80036; stroke-width: 1.5;" x1="253.6322" x2="303.6322" y1="242.6094" y2="242.6094"/><text fill="#000000" font-family="sans-serif" font-size="14" lengthAdjust="spacingAndGlyphs" textLength="0" x="280.6322" y="234.5332"/></g><g id="C"><rect fill="#FEFECE" filter="url(#fbxp9o33qubpz)" height="50" rx="12.5" ry="12.5" style="stroke: #A80036; stroke-width: 1.5;" width="50" x="253.6322" y="343"/><line style="stroke: #A80036; stroke-width: 1.5;" x1="253.6322" x2="303.6322" y1="370.6094" y2="370.6094"/><text fill="#000000" font-family="sans-serif" font-size="14" lengthAdjust="spacingAndGlyphs" textLength="0" x="280.6322" y="362.5332"/></g><g id="D"><rect fill="#FEFECE" filter="url(#fbxp9o33qubpz)" height="50" rx="12.5" ry="12.5" style="stroke: #A80036; stroke-width: 1.5;" width="50" x="103.6325" y="471"/><line style="stroke: #A80036; stroke-width: 1.5;" x1="103.6325" x2="153.6325" y1="498.6094" y2="498.6094"/><text fill="#000000" font-family="sans-serif" font-size="14" lengthAdjust="spacingAndGlyphs" textLength="0" x="130.6325" y="490.5332"/></g><g id="E"><rect fill="#FEFECE" filter="url(#fbxp9o33qubpz)" height="50" rx="12.5" ry="12.5" style="stroke: #A80036; stroke-width: 1.5;" width="50" x="45.6325" y="599"/><line style="stroke: #A80036; stroke-width: 1.5;" x1="45.6325" x2="95.6325" y1="626.6094" y2="626.6094"/><text fill="#000000" font-family="sans-serif" font-size="14" lengthAdjust="spacingAndGlyphs" textLength="0" x="72.6325" y="618.5332"/></g><ellipse cx="278.6322" cy="16" fill="#000000" filter="url(#fbxp9o33qubpz)" rx="10" ry="10" style="stroke: none; stroke-width: 1.0;"/><ellipse cx="172.6322" cy="737" fill="none" filter="url(#fbxp9o33qubpz)" rx="10" ry="10" style="stroke: #000000; stroke-width: 1.0;"/><ellipse cx="173.1322" cy="737.5" fill="#000000" rx="6" ry="6" style="stroke: none; stroke-width: 1.0;"/><!--MD5=[ba0fdac9700f9825b754e67fda8ee1b2]
link *start to A--><path d="M278.6322,26.013 C278.6322,38.698 278.6322,62.409 278.6322,81.57 " fill="none" id="*start-&gt;A" style="stroke: #A80036; stroke-width: 1.0;"/><polygon fill="#A80036" points="278.6322,86.84,282.6322,77.84,278.6322,81.84,274.6322,77.84,278.6322,86.84" style="stroke: #A80036; stroke-width: 1.0;"/><!--MD5=[5e2eec62a50b26b6b0db6c12e4ee289c]
link A to B--><path d="M256.9502,137.079 C250.3862,145.866 244.0232,156.29 240.6322,167 C235.8412,182.133 242.5672,197.845 251.6272,210.716 " fill="none" id="A-&gt;B" style="stroke: #A80036; stroke-width: 1.0;"/><polygon fill="#A80036" points="254.7752,214.966,252.634,205.3527,251.7997,210.9477,246.2047,210.1135,254.7752,214.966" style="stroke: #A80036; stroke-width: 1.0;"/><text fill="#000000" font-family="sans-serif" font-size="13" lengthAdjust="spacingAndGlyphs" textLength="29" x="241.6322" y="181.4951">put X</text><!--MD5=[2c777c0c38089c390787dfc0786ecb92]
link B to A--><path d="M278.6322,214.781 C278.6322,194.147 278.6322,164.429 278.6322,142.428 " fill="none" id="B-&gt;A" style="stroke: #A80036; stroke-width: 1.0;"/><polygon fill="#A80036" points="278.6322,137.294,274.6322,146.294,278.6322,142.294,282.6322,146.294,278.6322,137.294" style="stroke: #A80036; stroke-width: 1.0;"/><text fill="#000000" font-family="sans-serif" font-size="13" lengthAdjust="spacingAndGlyphs" textLength="32" x="279.6322" y="181.4951">put O</text><!--MD5=[cd25d8247324207f828a4db9f58ed69d]
link B to C--><path d="M278.6322,265.294 C278.6322,285.95 278.6322,315.669 278.6322,337.651 " fill="none" id="B-&gt;C" style="stroke: #A80036; stroke-width: 1.0;"/><polygon fill="#A80036" points="278.6322,342.781,282.6322,333.781,278.6322,337.781,274.6322,333.781,278.6322,342.781" style="stroke: #A80036; stroke-width: 1.0;"/><text fill="#000000" font-family="sans-serif" font-size="13" lengthAdjust="spacingAndGlyphs" textLength="80" x="279.6322" y="309.4951">[isCompleted]</text><!--MD5=[95ca888c4bb7ed1df160562281720a5c]
link C to D--><path d="M253.5262,390.09 C227.1342,412.258 185.6592,447.098 157.8252,470.478 " fill="none" id="C-&gt;D" style="stroke: #A80036; stroke-width: 1.0;"/><polygon fill="#A80036" points="153.8212,473.842,163.2855,471.1165,157.6499,470.6262,158.1402,464.9906,153.8212,473.842" style="stroke: #A80036; stroke-width: 1.0;"/><text fill="#000000" font-family="sans-serif" font-size="13" lengthAdjust="spacingAndGlyphs" textLength="29" x="213.6322" y="437.4951">put 0</text><!--MD5=[6a85fad97473f3ca89fe62758889412b]
link C to *end--><path d="M281.6902,393.163 C286.9712,443.351 293.7832,561.487 254.6322,649 C239.0832,683.7575 203.7092,713.3772 184.9092,727.3735 " fill="none" id="C-&gt;*end" style="stroke: #A80036; stroke-width: 1.0;"/><polygon fill="#A80036" points="180.5092,730.5889,190.1359,728.5087,184.5463,727.639,185.416,722.0494,180.5092,730.5889" style="stroke: #A80036; stroke-width: 1.0;"/><text fill="#000000" font-family="sans-serif" font-size="13" lengthAdjust="spacingAndGlyphs" textLength="77" x="280.6322" y="565.4951">[isTicTacToe]</text><!--MD5=[9ee2c6850258a89d754920901add40c0]
link D to E--><path d="M103.151,501.365 C76.5839,507.423 36.2718,521.204 17.6325,551 C6,569.595 23.3593,589.6 41.2477,603.792 " fill="none" id="D-&gt;E" style="stroke: #A80036; stroke-width: 1.0;"/><polygon fill="#A80036" points="45.3032,606.909,40.6053,598.2528,41.339,603.8619,35.7299,604.5956,45.3032,606.909" style="stroke: #A80036; stroke-width: 1.0;"/><text fill="#000000" font-family="sans-serif" font-size="13" lengthAdjust="spacingAndGlyphs" textLength="41" x="18.6325" y="565.4951">move X</text><!--MD5=[d9f0db18a21361db52f95f1c09405f86]
link E to D--><path d="M80.1356,598.781 C85.8033,584.708 93.3033,566.708 100.6325,551 C104.4412,542.837 108.8203,534.119 112.9669,526.122 " fill="none" id="E-&gt;D" style="stroke: #A80036; stroke-width: 1.0;"/><polygon fill="#A80036" points="115.5112,521.247,107.8016,527.3757,113.1982,525.6798,114.8941,531.0765,115.5112,521.247" style="stroke: #A80036; stroke-width: 1.0;"/><text fill="#000000" font-family="sans-serif" font-size="13" lengthAdjust="spacingAndGlyphs" textLength="44" x="101.6325" y="565.4951">move O</text><!--MD5=[51efe90a7f482fc138f2ff6aff84f914]
link D to *end--><path d="M140.1362,521.259 C144.0352,530.399 148.0512,541.002 150.6322,551 C166.6902,613.209 171.0742,690.2598 172.2322,721.6668 " fill="none" id="D-&gt;*end" style="stroke: #A80036; stroke-width: 1.0;"/><polygon fill="#A80036" points="172.4132,726.9861,176.1049,717.8553,172.2432,721.989,168.1095,718.1273,172.4132,726.9861" style="stroke: #A80036; stroke-width: 1.0;"/><text fill="#000000" font-family="sans-serif" font-size="13" lengthAdjust="spacingAndGlyphs" textLength="77" x="168.6322" y="629.4951">[isTicTacToe]</text><!--MD5=[b4ae64609a665d46448790142bade235]
link E to *end--><path d="M62.7171,649.0926 C59.3325,664.1539 58.0619,683.2358 67.6325,697 C88.1709,726.5379 133.8622,733.7513 157.6252,735.4805 " fill="none" id="E-&gt;*end" style="stroke: #A80036; stroke-width: 1.0;"/><polygon fill="#A80036" points="162.6202,735.786,153.8816,731.2432,157.6296,735.4803,153.3925,739.2282,162.6202,735.786" style="stroke: #A80036; stroke-width: 1.0;"/><text fill="#000000" font-family="sans-serif" font-size="13" lengthAdjust="spacingAndGlyphs" textLength="77" x="68.6325" y="693.4951">[isTicTacToe]</text><!--MD5=[d410cfaad069149a87dcb35d90bbdaa9]
@startuml

state A as " "
state B as " "
state C as " "
state D as " "
state E as " "
[*] - -> A
A - -> B: put X
B - -> A : put O
B - -> C : [isCompleted]
C - -> D : put 0
C - -> [*] : [isTicTacToe]
D - -> E : move X
E - -> D : move O
D - -> [*] : [isTicTacToe]
E - -> [*] : [isTicTacToe]
@enduml

PlantUML version 1.2020.15(Sun Jun 28 13:39:45 CEST 2020)
(GPL source distribution)
Java Runtime: OpenJDK Runtime Environment
JVM: OpenJDK 64-Bit Server VM
Default Encoding: windows-1252
Language: es
Country: ES
--></g></svg>