<?xml version="1.0" encoding="UTF-8" standalone="no"?><svg xmlns="http://www.w3.org/2000/svg" xmlns:xlink="http://www.w3.org/1999/xlink" contentScriptType="application/ecmascript" contentStyleType="text/css" height="963px" preserveAspectRatio="none" style="width:1130px;height:963px;" version="1.1" viewBox="0 0 1130 963" width="1130px" zoomAndPan="magnify"><defs><filter height="300%" id="f19ci9nt2hfdyy" width="300%" x="-1" y="-1"><feGaussianBlur result="blurOut" stdDeviation="2.0"/><feColorMatrix in="blurOut" result="blurOut2" type="matrix" values="0 0 0 0 0 0 0 0 0 0 0 0 0 0 0 0 0 0 .4 0"/><feOffset dx="4.0" dy="4.0" in="blurOut2" result="blurOut3"/><feBlend in="SourceGraphic" in2="blurOut3" mode="normal"/></filter></defs><g><!--MD5=[36f719b1cbc3f26b5758ea249b208fb4]
class TicTacToe--><rect fill="#FEFECE" filter="url(#f19ci9nt2hfdyy)" height="48" id="TicTacToe" style="stroke: #A80036; stroke-width: 1.5;" width="89" x="585.5" y="7"/><ellipse cx="600.5" cy="23" fill="#ADD1B2" rx="11" ry="11" style="stroke: #A80036; stroke-width: 1.0;"/><path d="M603.2656,18.875 Q603.4219,18.6563 603.6094,18.5469 Q603.7969,18.4375 604.0156,18.4375 Q604.3906,18.4375 604.625,18.6953 Q604.8594,18.9531 604.8594,19.5625 L604.8594,21.0156 Q604.8594,21.625 604.625,21.8906 Q604.3906,22.1563 604.0156,22.1563 Q603.6719,22.1563 603.4688,21.9531 Q603.2656,21.7656 603.1563,21.25 Q603.1094,20.8906 602.9219,20.7031 Q602.5938,20.3281 601.9844,20.1094 Q601.375,19.8906 600.75,19.8906 Q599.9844,19.8906 599.3516,20.2188 Q598.7188,20.5469 598.2266,21.2969 Q597.7344,22.0469 597.7344,23.0781 L597.7344,24.1719 Q597.7344,25.4063 598.625,26.2266 Q599.5156,27.0469 601.1094,27.0469 Q602.0469,27.0469 602.7031,26.7969 Q603.0938,26.6406 603.5156,26.2031 Q603.7813,25.9375 603.9297,25.8594 Q604.0781,25.7813 604.2813,25.7813 Q604.6094,25.7813 604.8672,26.0391 Q605.125,26.2969 605.125,26.6406 Q605.125,26.9844 604.7813,27.3906 Q604.2813,27.9688 603.4844,28.2969 Q602.4063,28.75 601.1094,28.75 Q599.5938,28.75 598.3906,28.125 Q597.4063,27.625 596.7188,26.5547 Q596.0313,25.4844 596.0313,24.2031 L596.0313,23.0469 Q596.0313,21.7188 596.6484,20.5703 Q597.2656,19.4219 598.3594,18.8047 Q599.4531,18.1875 600.6875,18.1875 Q601.4219,18.1875 602.0703,18.3516 Q602.7188,18.5156 603.2656,18.875 Z "/><text fill="#000000" font-family="sans-serif" font-size="12" lengthAdjust="spacingAndGlyphs" textLength="57" x="614.5" y="27.9102">TicTacToe</text><line style="stroke: #A80036; stroke-width: 1.5;" x1="586.5" x2="673.5" y1="39" y2="39"/><line style="stroke: #A80036; stroke-width: 1.5;" x1="586.5" x2="673.5" y1="47" y2="47"/><!--MD5=[2cb47ba637a0d19583e6199456f6ad0b]
class Player--><rect fill="#FEFECE" filter="url(#f19ci9nt2hfdyy)" height="48" id="Player" style="stroke: #A80036; stroke-width: 1.5;" width="66" x="515" y="225"/><ellipse cx="530" cy="241" fill="#ADD1B2" rx="11" ry="11" style="stroke: #A80036; stroke-width: 1.0;"/><path d="M532.7656,236.875 Q532.9219,236.6563 533.1094,236.5469 Q533.2969,236.4375 533.5156,236.4375 Q533.8906,236.4375 534.125,236.6953 Q534.3594,236.9531 534.3594,237.5625 L534.3594,239.0156 Q534.3594,239.625 534.125,239.8906 Q533.8906,240.1563 533.5156,240.1563 Q533.1719,240.1563 532.9688,239.9531 Q532.7656,239.7656 532.6563,239.25 Q532.6094,238.8906 532.4219,238.7031 Q532.0938,238.3281 531.4844,238.1094 Q530.875,237.8906 530.25,237.8906 Q529.4844,237.8906 528.8516,238.2188 Q528.2188,238.5469 527.7266,239.2969 Q527.2344,240.0469 527.2344,241.0781 L527.2344,242.1719 Q527.2344,243.4063 528.125,244.2266 Q529.0156,245.0469 530.6094,245.0469 Q531.5469,245.0469 532.2031,244.7969 Q532.5938,244.6406 533.0156,244.2031 Q533.2813,243.9375 533.4297,243.8594 Q533.5781,243.7813 533.7813,243.7813 Q534.1094,243.7813 534.3672,244.0391 Q534.625,244.2969 534.625,244.6406 Q534.625,244.9844 534.2813,245.3906 Q533.7813,245.9688 532.9844,246.2969 Q531.9063,246.75 530.6094,246.75 Q529.0938,246.75 527.8906,246.125 Q526.9063,245.625 526.2188,244.5547 Q525.5313,243.4844 525.5313,242.2031 L525.5313,241.0469 Q525.5313,239.7188 526.1484,238.5703 Q526.7656,237.4219 527.8594,236.8047 Q528.9531,236.1875 530.1875,236.1875 Q530.9219,236.1875 531.5703,236.3516 Q532.2188,236.5156 532.7656,236.875 Z "/><text fill="#000000" font-family="sans-serif" font-size="12" lengthAdjust="spacingAndGlyphs" textLength="34" x="544" y="245.9102">Player</text><line style="stroke: #A80036; stroke-width: 1.5;" x1="516" x2="580" y1="257" y2="257"/><line style="stroke: #A80036; stroke-width: 1.5;" x1="516" x2="580" y1="265" y2="265"/><!--MD5=[9563755d011c5cec7ec66dc53565a59e]
class Board--><rect fill="#FEFECE" filter="url(#f19ci9nt2hfdyy)" height="48" id="Board" style="stroke: #A80036; stroke-width: 1.5;" width="65" x="912.5" y="334"/><ellipse cx="927.5" cy="350" fill="#ADD1B2" rx="11" ry="11" style="stroke: #A80036; stroke-width: 1.0;"/><path d="M930.2656,345.875 Q930.4219,345.6563 930.6094,345.5469 Q930.7969,345.4375 931.0156,345.4375 Q931.3906,345.4375 931.625,345.6953 Q931.8594,345.9531 931.8594,346.5625 L931.8594,348.0156 Q931.8594,348.625 931.625,348.8906 Q931.3906,349.1563 931.0156,349.1563 Q930.6719,349.1563 930.4688,348.9531 Q930.2656,348.7656 930.1563,348.25 Q930.1094,347.8906 929.9219,347.7031 Q929.5938,347.3281 928.9844,347.1094 Q928.375,346.8906 927.75,346.8906 Q926.9844,346.8906 926.3516,347.2188 Q925.7188,347.5469 925.2266,348.2969 Q924.7344,349.0469 924.7344,350.0781 L924.7344,351.1719 Q924.7344,352.4063 925.625,353.2266 Q926.5156,354.0469 928.1094,354.0469 Q929.0469,354.0469 929.7031,353.7969 Q930.0938,353.6406 930.5156,353.2031 Q930.7813,352.9375 930.9297,352.8594 Q931.0781,352.7813 931.2813,352.7813 Q931.6094,352.7813 931.8672,353.0391 Q932.125,353.2969 932.125,353.6406 Q932.125,353.9844 931.7813,354.3906 Q931.2813,354.9688 930.4844,355.2969 Q929.4063,355.75 928.1094,355.75 Q926.5938,355.75 925.3906,355.125 Q924.4063,354.625 923.7188,353.5547 Q923.0313,352.4844 923.0313,351.2031 L923.0313,350.0469 Q923.0313,348.7188 923.6484,347.5703 Q924.2656,346.4219 925.3594,345.8047 Q926.4531,345.1875 927.6875,345.1875 Q928.4219,345.1875 929.0703,345.3516 Q929.7188,345.5156 930.2656,345.875 Z "/><text fill="#000000" font-family="sans-serif" font-size="12" lengthAdjust="spacingAndGlyphs" textLength="33" x="941.5" y="354.9102">Board</text><line style="stroke: #A80036; stroke-width: 1.5;" x1="913.5" x2="976.5" y1="366" y2="366"/><line style="stroke: #A80036; stroke-width: 1.5;" x1="913.5" x2="976.5" y1="374" y2="374"/><!--MD5=[dd91eae41778c45e12552e5329e240e8]
class Turn--><rect fill="#FEFECE" filter="url(#f19ci9nt2hfdyy)" height="48" id="Turn" style="stroke: #A80036; stroke-width: 1.5;" width="57" x="601.5" y="116"/><ellipse cx="616.5" cy="132" fill="#ADD1B2" rx="11" ry="11" style="stroke: #A80036; stroke-width: 1.0;"/><path d="M619.2656,127.875 Q619.4219,127.6563 619.6094,127.5469 Q619.7969,127.4375 620.0156,127.4375 Q620.3906,127.4375 620.625,127.6953 Q620.8594,127.9531 620.8594,128.5625 L620.8594,130.0156 Q620.8594,130.625 620.625,130.8906 Q620.3906,131.1563 620.0156,131.1563 Q619.6719,131.1563 619.4688,130.9531 Q619.2656,130.7656 619.1563,130.25 Q619.1094,129.8906 618.9219,129.7031 Q618.5938,129.3281 617.9844,129.1094 Q617.375,128.8906 616.75,128.8906 Q615.9844,128.8906 615.3516,129.2188 Q614.7188,129.5469 614.2266,130.2969 Q613.7344,131.0469 613.7344,132.0781 L613.7344,133.1719 Q613.7344,134.4063 614.625,135.2266 Q615.5156,136.0469 617.1094,136.0469 Q618.0469,136.0469 618.7031,135.7969 Q619.0938,135.6406 619.5156,135.2031 Q619.7813,134.9375 619.9297,134.8594 Q620.0781,134.7813 620.2813,134.7813 Q620.6094,134.7813 620.8672,135.0391 Q621.125,135.2969 621.125,135.6406 Q621.125,135.9844 620.7813,136.3906 Q620.2813,136.9688 619.4844,137.2969 Q618.4063,137.75 617.1094,137.75 Q615.5938,137.75 614.3906,137.125 Q613.4063,136.625 612.7188,135.5547 Q612.0313,134.4844 612.0313,133.2031 L612.0313,132.0469 Q612.0313,130.7188 612.6484,129.5703 Q613.2656,128.4219 614.3594,127.8047 Q615.4531,127.1875 616.6875,127.1875 Q617.4219,127.1875 618.0703,127.3516 Q618.7188,127.5156 619.2656,127.875 Z "/><text fill="#000000" font-family="sans-serif" font-size="12" lengthAdjust="spacingAndGlyphs" textLength="25" x="630.5" y="136.9102">Turn</text><line style="stroke: #A80036; stroke-width: 1.5;" x1="602.5" x2="657.5" y1="148" y2="148"/><line style="stroke: #A80036; stroke-width: 1.5;" x1="602.5" x2="657.5" y1="156" y2="156"/><!--MD5=[e05bacf3ff4416a0580578814d41bbf6]
class Piece--><rect fill="#FEFECE" filter="url(#f19ci9nt2hfdyy)" height="48" id="Piece" style="stroke: #A80036; stroke-width: 1.5;" width="63" x="430.5" y="678"/><ellipse cx="445.5" cy="694" fill="#ADD1B2" rx="11" ry="11" style="stroke: #A80036; stroke-width: 1.0;"/><path d="M448.2656,689.875 Q448.4219,689.6563 448.6094,689.5469 Q448.7969,689.4375 449.0156,689.4375 Q449.3906,689.4375 449.625,689.6953 Q449.8594,689.9531 449.8594,690.5625 L449.8594,692.0156 Q449.8594,692.625 449.625,692.8906 Q449.3906,693.1563 449.0156,693.1563 Q448.6719,693.1563 448.4688,692.9531 Q448.2656,692.7656 448.1563,692.25 Q448.1094,691.8906 447.9219,691.7031 Q447.5938,691.3281 446.9844,691.1094 Q446.375,690.8906 445.75,690.8906 Q444.9844,690.8906 444.3516,691.2188 Q443.7188,691.5469 443.2266,692.2969 Q442.7344,693.0469 442.7344,694.0781 L442.7344,695.1719 Q442.7344,696.4063 443.625,697.2266 Q444.5156,698.0469 446.1094,698.0469 Q447.0469,698.0469 447.7031,697.7969 Q448.0938,697.6406 448.5156,697.2031 Q448.7813,696.9375 448.9297,696.8594 Q449.0781,696.7813 449.2813,696.7813 Q449.6094,696.7813 449.8672,697.0391 Q450.125,697.2969 450.125,697.6406 Q450.125,697.9844 449.7813,698.3906 Q449.2813,698.9688 448.4844,699.2969 Q447.4063,699.75 446.1094,699.75 Q444.5938,699.75 443.3906,699.125 Q442.4063,698.625 441.7188,697.5547 Q441.0313,696.4844 441.0313,695.2031 L441.0313,694.0469 Q441.0313,692.7188 441.6484,691.5703 Q442.2656,690.4219 443.3594,689.8047 Q444.4531,689.1875 445.6875,689.1875 Q446.4219,689.1875 447.0703,689.3516 Q447.7188,689.5156 448.2656,689.875 Z "/><text fill="#000000" font-family="sans-serif" font-size="12" lengthAdjust="spacingAndGlyphs" textLength="31" x="459.5" y="698.9102">Piece</text><line style="stroke: #A80036; stroke-width: 1.5;" x1="431.5" x2="492.5" y1="710" y2="710"/><line style="stroke: #A80036; stroke-width: 1.5;" x1="431.5" x2="492.5" y1="718" y2="718"/><!--MD5=[0992d3fdc9d3d7c02b735131bb70871d]
class Goal--><rect fill="#FEFECE" filter="url(#f19ci9nt2hfdyy)" height="48" id="Goal" style="stroke: #A80036; stroke-width: 1.5;" width="58" x="519" y="334"/><ellipse cx="534" cy="350" fill="#ADD1B2" rx="11" ry="11" style="stroke: #A80036; stroke-width: 1.0;"/><path d="M536.7656,345.875 Q536.9219,345.6563 537.1094,345.5469 Q537.2969,345.4375 537.5156,345.4375 Q537.8906,345.4375 538.125,345.6953 Q538.3594,345.9531 538.3594,346.5625 L538.3594,348.0156 Q538.3594,348.625 538.125,348.8906 Q537.8906,349.1563 537.5156,349.1563 Q537.1719,349.1563 536.9688,348.9531 Q536.7656,348.7656 536.6563,348.25 Q536.6094,347.8906 536.4219,347.7031 Q536.0938,347.3281 535.4844,347.1094 Q534.875,346.8906 534.25,346.8906 Q533.4844,346.8906 532.8516,347.2188 Q532.2188,347.5469 531.7266,348.2969 Q531.2344,349.0469 531.2344,350.0781 L531.2344,351.1719 Q531.2344,352.4063 532.125,353.2266 Q533.0156,354.0469 534.6094,354.0469 Q535.5469,354.0469 536.2031,353.7969 Q536.5938,353.6406 537.0156,353.2031 Q537.2813,352.9375 537.4297,352.8594 Q537.5781,352.7813 537.7813,352.7813 Q538.1094,352.7813 538.3672,353.0391 Q538.625,353.2969 538.625,353.6406 Q538.625,353.9844 538.2813,354.3906 Q537.7813,354.9688 536.9844,355.2969 Q535.9063,355.75 534.6094,355.75 Q533.0938,355.75 531.8906,355.125 Q530.9063,354.625 530.2188,353.5547 Q529.5313,352.4844 529.5313,351.2031 L529.5313,350.0469 Q529.5313,348.7188 530.1484,347.5703 Q530.7656,346.4219 531.8594,345.8047 Q532.9531,345.1875 534.1875,345.1875 Q534.9219,345.1875 535.5703,345.3516 Q536.2188,345.5156 536.7656,345.875 Z "/><text fill="#000000" font-family="sans-serif" font-size="12" lengthAdjust="spacingAndGlyphs" textLength="26" x="548" y="354.9102">Goal</text><line style="stroke: #A80036; stroke-width: 1.5;" x1="520" x2="576" y1="366" y2="366"/><line style="stroke: #A80036; stroke-width: 1.5;" x1="520" x2="576" y1="374" y2="374"/><!--MD5=[18eee71c88ab61f27581b8cbdd3ef5ee]
class Color--><rect fill="#FEFECE" filter="url(#f19ci9nt2hfdyy)" height="48" id="Color" style="stroke: #A80036; stroke-width: 1.5;" width="62" x="99" y="787"/><ellipse cx="114" cy="803" fill="#ADD1B2" rx="11" ry="11" style="stroke: #A80036; stroke-width: 1.0;"/><path d="M116.7656,798.875 Q116.9219,798.6563 117.1094,798.5469 Q117.2969,798.4375 117.5156,798.4375 Q117.8906,798.4375 118.125,798.6953 Q118.3594,798.9531 118.3594,799.5625 L118.3594,801.0156 Q118.3594,801.625 118.125,801.8906 Q117.8906,802.1563 117.5156,802.1563 Q117.1719,802.1563 116.9688,801.9531 Q116.7656,801.7656 116.6563,801.25 Q116.6094,800.8906 116.4219,800.7031 Q116.0938,800.3281 115.4844,800.1094 Q114.875,799.8906 114.25,799.8906 Q113.4844,799.8906 112.8516,800.2188 Q112.2188,800.5469 111.7266,801.2969 Q111.2344,802.0469 111.2344,803.0781 L111.2344,804.1719 Q111.2344,805.4063 112.125,806.2266 Q113.0156,807.0469 114.6094,807.0469 Q115.5469,807.0469 116.2031,806.7969 Q116.5938,806.6406 117.0156,806.2031 Q117.2813,805.9375 117.4297,805.8594 Q117.5781,805.7813 117.7813,805.7813 Q118.1094,805.7813 118.3672,806.0391 Q118.625,806.2969 118.625,806.6406 Q118.625,806.9844 118.2813,807.3906 Q117.7813,807.9688 116.9844,808.2969 Q115.9063,808.75 114.6094,808.75 Q113.0938,808.75 111.8906,808.125 Q110.9063,807.625 110.2188,806.5547 Q109.5313,805.4844 109.5313,804.2031 L109.5313,803.0469 Q109.5313,801.7188 110.1484,800.5703 Q110.7656,799.4219 111.8594,798.8047 Q112.9531,798.1875 114.1875,798.1875 Q114.9219,798.1875 115.5703,798.3516 Q116.2188,798.5156 116.7656,798.875 Z "/><text fill="#000000" font-family="sans-serif" font-size="12" lengthAdjust="spacingAndGlyphs" textLength="30" x="128" y="807.9102">Color</text><line style="stroke: #A80036; stroke-width: 1.5;" x1="100" x2="160" y1="819" y2="819"/><line style="stroke: #A80036; stroke-width: 1.5;" x1="100" x2="160" y1="827" y2="827"/><!--MD5=[f8e7078f77c005d15b486c0c98deb1e6]
class Action--><rect fill="#FEFECE" filter="url(#f19ci9nt2hfdyy)" height="48" id="Action" style="stroke: #A80036; stroke-width: 1.5;" width="65" x="812.5" y="334"/><ellipse cx="827.5" cy="350" fill="#ADD1B2" rx="11" ry="11" style="stroke: #A80036; stroke-width: 1.0;"/><path d="M830.2656,345.875 Q830.4219,345.6563 830.6094,345.5469 Q830.7969,345.4375 831.0156,345.4375 Q831.3906,345.4375 831.625,345.6953 Q831.8594,345.9531 831.8594,346.5625 L831.8594,348.0156 Q831.8594,348.625 831.625,348.8906 Q831.3906,349.1563 831.0156,349.1563 Q830.6719,349.1563 830.4688,348.9531 Q830.2656,348.7656 830.1563,348.25 Q830.1094,347.8906 829.9219,347.7031 Q829.5938,347.3281 828.9844,347.1094 Q828.375,346.8906 827.75,346.8906 Q826.9844,346.8906 826.3516,347.2188 Q825.7188,347.5469 825.2266,348.2969 Q824.7344,349.0469 824.7344,350.0781 L824.7344,351.1719 Q824.7344,352.4063 825.625,353.2266 Q826.5156,354.0469 828.1094,354.0469 Q829.0469,354.0469 829.7031,353.7969 Q830.0938,353.6406 830.5156,353.2031 Q830.7813,352.9375 830.9297,352.8594 Q831.0781,352.7813 831.2813,352.7813 Q831.6094,352.7813 831.8672,353.0391 Q832.125,353.2969 832.125,353.6406 Q832.125,353.9844 831.7813,354.3906 Q831.2813,354.9688 830.4844,355.2969 Q829.4063,355.75 828.1094,355.75 Q826.5938,355.75 825.3906,355.125 Q824.4063,354.625 823.7188,353.5547 Q823.0313,352.4844 823.0313,351.2031 L823.0313,350.0469 Q823.0313,348.7188 823.6484,347.5703 Q824.2656,346.4219 825.3594,345.8047 Q826.4531,345.1875 827.6875,345.1875 Q828.4219,345.1875 829.0703,345.3516 Q829.7188,345.5156 830.2656,345.875 Z "/><text fill="#000000" font-family="sans-serif" font-size="12" lengthAdjust="spacingAndGlyphs" textLength="33" x="841.5" y="354.9102">Action</text><line style="stroke: #A80036; stroke-width: 1.5;" x1="813.5" x2="876.5" y1="366" y2="366"/><line style="stroke: #A80036; stroke-width: 1.5;" x1="813.5" x2="876.5" y1="374" y2="374"/><!--MD5=[852878fd701cdbe445b24ff36590dddf]
class PutAction--><rect fill="#FEFECE" filter="url(#f19ci9nt2hfdyy)" height="48" id="PutAction" style="stroke: #A80036; stroke-width: 1.5;" width="83" x="708.5" y="443"/><ellipse cx="723.5" cy="459" fill="#ADD1B2" rx="11" ry="11" style="stroke: #A80036; stroke-width: 1.0;"/><path d="M726.2656,454.875 Q726.4219,454.6563 726.6094,454.5469 Q726.7969,454.4375 727.0156,454.4375 Q727.3906,454.4375 727.625,454.6953 Q727.8594,454.9531 727.8594,455.5625 L727.8594,457.0156 Q727.8594,457.625 727.625,457.8906 Q727.3906,458.1563 727.0156,458.1563 Q726.6719,458.1563 726.4688,457.9531 Q726.2656,457.7656 726.1563,457.25 Q726.1094,456.8906 725.9219,456.7031 Q725.5938,456.3281 724.9844,456.1094 Q724.375,455.8906 723.75,455.8906 Q722.9844,455.8906 722.3516,456.2188 Q721.7188,456.5469 721.2266,457.2969 Q720.7344,458.0469 720.7344,459.0781 L720.7344,460.1719 Q720.7344,461.4063 721.625,462.2266 Q722.5156,463.0469 724.1094,463.0469 Q725.0469,463.0469 725.7031,462.7969 Q726.0938,462.6406 726.5156,462.2031 Q726.7813,461.9375 726.9297,461.8594 Q727.0781,461.7813 727.2813,461.7813 Q727.6094,461.7813 727.8672,462.0391 Q728.125,462.2969 728.125,462.6406 Q728.125,462.9844 727.7813,463.3906 Q727.2813,463.9688 726.4844,464.2969 Q725.4063,464.75 724.1094,464.75 Q722.5938,464.75 721.3906,464.125 Q720.4063,463.625 719.7188,462.5547 Q719.0313,461.4844 719.0313,460.2031 L719.0313,459.0469 Q719.0313,457.7188 719.6484,456.5703 Q720.2656,455.4219 721.3594,454.8047 Q722.4531,454.1875 723.6875,454.1875 Q724.4219,454.1875 725.0703,454.3516 Q725.7188,454.5156 726.2656,454.875 Z "/><text fill="#000000" font-family="sans-serif" font-size="12" lengthAdjust="spacingAndGlyphs" textLength="51" x="737.5" y="463.9102">PutAction</text><line style="stroke: #A80036; stroke-width: 1.5;" x1="709.5" x2="790.5" y1="475" y2="475"/><line style="stroke: #A80036; stroke-width: 1.5;" x1="709.5" x2="790.5" y1="483" y2="483"/><!--MD5=[9c968d98fb6f96ce23d8c3c92f03353c]
class MoveAction--><rect fill="#FEFECE" filter="url(#f19ci9nt2hfdyy)" height="48" id="MoveAction" style="stroke: #A80036; stroke-width: 1.5;" width="93" x="898.5" y="443"/><ellipse cx="913.5" cy="459" fill="#ADD1B2" rx="11" ry="11" style="stroke: #A80036; stroke-width: 1.0;"/><path d="M916.2656,454.875 Q916.4219,454.6563 916.6094,454.5469 Q916.7969,454.4375 917.0156,454.4375 Q917.3906,454.4375 917.625,454.6953 Q917.8594,454.9531 917.8594,455.5625 L917.8594,457.0156 Q917.8594,457.625 917.625,457.8906 Q917.3906,458.1563 917.0156,458.1563 Q916.6719,458.1563 916.4688,457.9531 Q916.2656,457.7656 916.1563,457.25 Q916.1094,456.8906 915.9219,456.7031 Q915.5938,456.3281 914.9844,456.1094 Q914.375,455.8906 913.75,455.8906 Q912.9844,455.8906 912.3516,456.2188 Q911.7188,456.5469 911.2266,457.2969 Q910.7344,458.0469 910.7344,459.0781 L910.7344,460.1719 Q910.7344,461.4063 911.625,462.2266 Q912.5156,463.0469 914.1094,463.0469 Q915.0469,463.0469 915.7031,462.7969 Q916.0938,462.6406 916.5156,462.2031 Q916.7813,461.9375 916.9297,461.8594 Q917.0781,461.7813 917.2813,461.7813 Q917.6094,461.7813 917.8672,462.0391 Q918.125,462.2969 918.125,462.6406 Q918.125,462.9844 917.7813,463.3906 Q917.2813,463.9688 916.4844,464.2969 Q915.4063,464.75 914.1094,464.75 Q912.5938,464.75 911.3906,464.125 Q910.4063,463.625 909.7188,462.5547 Q909.0313,461.4844 909.0313,460.2031 L909.0313,459.0469 Q909.0313,457.7188 909.6484,456.5703 Q910.2656,455.4219 911.3594,454.8047 Q912.4531,454.1875 913.6875,454.1875 Q914.4219,454.1875 915.0703,454.3516 Q915.7188,454.5156 916.2656,454.875 Z "/><text fill="#000000" font-family="sans-serif" font-size="12" lengthAdjust="spacingAndGlyphs" textLength="61" x="927.5" y="463.9102">MoveAction</text><line style="stroke: #A80036; stroke-width: 1.5;" x1="899.5" x2="990.5" y1="475" y2="475"/><line style="stroke: #A80036; stroke-width: 1.5;" x1="899.5" x2="990.5" y1="483" y2="483"/><!--MD5=[b203f6b098b8dffe494a95d9c500f8e2]
class X--><rect fill="#FEFECE" filter="url(#f19ci9nt2hfdyy)" height="48" id="X" style="stroke: #A80036; stroke-width: 1.5;" width="39" x="73.5" y="896"/><ellipse cx="88.5" cy="912" fill="#ADD1B2" rx="11" ry="11" style="stroke: #A80036; stroke-width: 1.0;"/><path d="M91.2656,907.875 Q91.4219,907.6563 91.6094,907.5469 Q91.7969,907.4375 92.0156,907.4375 Q92.3906,907.4375 92.625,907.6953 Q92.8594,907.9531 92.8594,908.5625 L92.8594,910.0156 Q92.8594,910.625 92.625,910.8906 Q92.3906,911.1563 92.0156,911.1563 Q91.6719,911.1563 91.4688,910.9531 Q91.2656,910.7656 91.1563,910.25 Q91.1094,909.8906 90.9219,909.7031 Q90.5938,909.3281 89.9844,909.1094 Q89.375,908.8906 88.75,908.8906 Q87.9844,908.8906 87.3516,909.2188 Q86.7188,909.5469 86.2266,910.2969 Q85.7344,911.0469 85.7344,912.0781 L85.7344,913.1719 Q85.7344,914.4063 86.625,915.2266 Q87.5156,916.0469 89.1094,916.0469 Q90.0469,916.0469 90.7031,915.7969 Q91.0938,915.6406 91.5156,915.2031 Q91.7813,914.9375 91.9297,914.8594 Q92.0781,914.7813 92.2813,914.7813 Q92.6094,914.7813 92.8672,915.0391 Q93.125,915.2969 93.125,915.6406 Q93.125,915.9844 92.7813,916.3906 Q92.2813,916.9688 91.4844,917.2969 Q90.4063,917.75 89.1094,917.75 Q87.5938,917.75 86.3906,917.125 Q85.4063,916.625 84.7188,915.5547 Q84.0313,914.4844 84.0313,913.2031 L84.0313,912.0469 Q84.0313,910.7188 84.6484,909.5703 Q85.2656,908.4219 86.3594,907.8047 Q87.4531,907.1875 88.6875,907.1875 Q89.4219,907.1875 90.0703,907.3516 Q90.7188,907.5156 91.2656,907.875 Z "/><text fill="#000000" font-family="sans-serif" font-size="12" lengthAdjust="spacingAndGlyphs" textLength="7" x="102.5" y="916.9102">X</text><line style="stroke: #A80036; stroke-width: 1.5;" x1="74.5" x2="111.5" y1="928" y2="928"/><line style="stroke: #A80036; stroke-width: 1.5;" x1="74.5" x2="111.5" y1="936" y2="936"/><!--MD5=[255014859fcd18787a2ae9f2a405ae60]
class O--><rect fill="#FEFECE" filter="url(#f19ci9nt2hfdyy)" height="48" id="O" style="stroke: #A80036; stroke-width: 1.5;" width="41" x="147.5" y="896"/><ellipse cx="162.5" cy="912" fill="#ADD1B2" rx="11" ry="11" style="stroke: #A80036; stroke-width: 1.0;"/><path d="M165.2656,907.875 Q165.4219,907.6563 165.6094,907.5469 Q165.7969,907.4375 166.0156,907.4375 Q166.3906,907.4375 166.625,907.6953 Q166.8594,907.9531 166.8594,908.5625 L166.8594,910.0156 Q166.8594,910.625 166.625,910.8906 Q166.3906,911.1563 166.0156,911.1563 Q165.6719,911.1563 165.4688,910.9531 Q165.2656,910.7656 165.1563,910.25 Q165.1094,909.8906 164.9219,909.7031 Q164.5938,909.3281 163.9844,909.1094 Q163.375,908.8906 162.75,908.8906 Q161.9844,908.8906 161.3516,909.2188 Q160.7188,909.5469 160.2266,910.2969 Q159.7344,911.0469 159.7344,912.0781 L159.7344,913.1719 Q159.7344,914.4063 160.625,915.2266 Q161.5156,916.0469 163.1094,916.0469 Q164.0469,916.0469 164.7031,915.7969 Q165.0938,915.6406 165.5156,915.2031 Q165.7813,914.9375 165.9297,914.8594 Q166.0781,914.7813 166.2813,914.7813 Q166.6094,914.7813 166.8672,915.0391 Q167.125,915.2969 167.125,915.6406 Q167.125,915.9844 166.7813,916.3906 Q166.2813,916.9688 165.4844,917.2969 Q164.4063,917.75 163.1094,917.75 Q161.5938,917.75 160.3906,917.125 Q159.4063,916.625 158.7188,915.5547 Q158.0313,914.4844 158.0313,913.2031 L158.0313,912.0469 Q158.0313,910.7188 158.6484,909.5703 Q159.2656,908.4219 160.3594,907.8047 Q161.4531,907.1875 162.6875,907.1875 Q163.4219,907.1875 164.0703,907.3516 Q164.7188,907.5156 165.2656,907.875 Z "/><text fill="#000000" font-family="sans-serif" font-size="12" lengthAdjust="spacingAndGlyphs" textLength="9" x="176.5" y="916.9102">O</text><line style="stroke: #A80036; stroke-width: 1.5;" x1="148.5" x2="187.5" y1="928" y2="928"/><line style="stroke: #A80036; stroke-width: 1.5;" x1="148.5" x2="187.5" y1="936" y2="936"/><!--MD5=[5655ee3e2a0d028d03fe20f829576392]
class Square--><rect fill="#FEFECE" filter="url(#f19ci9nt2hfdyy)" height="48" id="Square" style="stroke: #A80036; stroke-width: 1.5;" width="72" x="909" y="569"/><ellipse cx="924" cy="585" fill="#ADD1B2" rx="11" ry="11" style="stroke: #A80036; stroke-width: 1.0;"/><path d="M926.7656,580.875 Q926.9219,580.6563 927.1094,580.5469 Q927.2969,580.4375 927.5156,580.4375 Q927.8906,580.4375 928.125,580.6953 Q928.3594,580.9531 928.3594,581.5625 L928.3594,583.0156 Q928.3594,583.625 928.125,583.8906 Q927.8906,584.1563 927.5156,584.1563 Q927.1719,584.1563 926.9688,583.9531 Q926.7656,583.7656 926.6563,583.25 Q926.6094,582.8906 926.4219,582.7031 Q926.0938,582.3281 925.4844,582.1094 Q924.875,581.8906 924.25,581.8906 Q923.4844,581.8906 922.8516,582.2188 Q922.2188,582.5469 921.7266,583.2969 Q921.2344,584.0469 921.2344,585.0781 L921.2344,586.1719 Q921.2344,587.4063 922.125,588.2266 Q923.0156,589.0469 924.6094,589.0469 Q925.5469,589.0469 926.2031,588.7969 Q926.5938,588.6406 927.0156,588.2031 Q927.2813,587.9375 927.4297,587.8594 Q927.5781,587.7813 927.7813,587.7813 Q928.1094,587.7813 928.3672,588.0391 Q928.625,588.2969 928.625,588.6406 Q928.625,588.9844 928.2813,589.3906 Q927.7813,589.9688 926.9844,590.2969 Q925.9063,590.75 924.6094,590.75 Q923.0938,590.75 921.8906,590.125 Q920.9063,589.625 920.2188,588.5547 Q919.5313,587.4844 919.5313,586.2031 L919.5313,585.0469 Q919.5313,583.7188 920.1484,582.5703 Q920.7656,581.4219 921.8594,580.8047 Q922.9531,580.1875 924.1875,580.1875 Q924.9219,580.1875 925.5703,580.3516 Q926.2188,580.5156 926.7656,580.875 Z "/><text fill="#000000" font-family="sans-serif" font-size="12" lengthAdjust="spacingAndGlyphs" textLength="40" x="938" y="589.9102">Square</text><line style="stroke: #A80036; stroke-width: 1.5;" x1="910" x2="980" y1="601" y2="601"/><line style="stroke: #A80036; stroke-width: 1.5;" x1="910" x2="980" y1="609" y2="609"/><!--MD5=[8c7d7abc12e214c3cc12c9ab70edee11]
class Coordinate--><rect fill="#FEFECE" filter="url(#f19ci9nt2hfdyy)" height="48" id="Coordinate" style="stroke: #A80036; stroke-width: 1.5;" width="93" x="898.5" y="678"/><ellipse cx="913.5" cy="694" fill="#ADD1B2" rx="11" ry="11" style="stroke: #A80036; stroke-width: 1.0;"/><path d="M916.2656,689.875 Q916.4219,689.6563 916.6094,689.5469 Q916.7969,689.4375 917.0156,689.4375 Q917.3906,689.4375 917.625,689.6953 Q917.8594,689.9531 917.8594,690.5625 L917.8594,692.0156 Q917.8594,692.625 917.625,692.8906 Q917.3906,693.1563 917.0156,693.1563 Q916.6719,693.1563 916.4688,692.9531 Q916.2656,692.7656 916.1563,692.25 Q916.1094,691.8906 915.9219,691.7031 Q915.5938,691.3281 914.9844,691.1094 Q914.375,690.8906 913.75,690.8906 Q912.9844,690.8906 912.3516,691.2188 Q911.7188,691.5469 911.2266,692.2969 Q910.7344,693.0469 910.7344,694.0781 L910.7344,695.1719 Q910.7344,696.4063 911.625,697.2266 Q912.5156,698.0469 914.1094,698.0469 Q915.0469,698.0469 915.7031,697.7969 Q916.0938,697.6406 916.5156,697.2031 Q916.7813,696.9375 916.9297,696.8594 Q917.0781,696.7813 917.2813,696.7813 Q917.6094,696.7813 917.8672,697.0391 Q918.125,697.2969 918.125,697.6406 Q918.125,697.9844 917.7813,698.3906 Q917.2813,698.9688 916.4844,699.2969 Q915.4063,699.75 914.1094,699.75 Q912.5938,699.75 911.3906,699.125 Q910.4063,698.625 909.7188,697.5547 Q909.0313,696.4844 909.0313,695.2031 L909.0313,694.0469 Q909.0313,692.7188 909.6484,691.5703 Q910.2656,690.4219 911.3594,689.8047 Q912.4531,689.1875 913.6875,689.1875 Q914.4219,689.1875 915.0703,689.3516 Q915.7188,689.5156 916.2656,689.875 Z "/><text fill="#000000" font-family="sans-serif" font-size="12" lengthAdjust="spacingAndGlyphs" textLength="61" x="927.5" y="698.9102">Coordinate</text><line style="stroke: #A80036; stroke-width: 1.5;" x1="899.5" x2="990.5" y1="710" y2="710"/><line style="stroke: #A80036; stroke-width: 1.5;" x1="899.5" x2="990.5" y1="718" y2="718"/><!--MD5=[05aedcff764caeeb5d443618a4d90de7]
class Row--><rect fill="#FEFECE" filter="url(#f19ci9nt2hfdyy)" height="48" id="Row" style="stroke: #A80036; stroke-width: 1.5;" width="57" x="290.5" y="443"/><ellipse cx="305.5" cy="459" fill="#ADD1B2" rx="11" ry="11" style="stroke: #A80036; stroke-width: 1.0;"/><path d="M308.2656,454.875 Q308.4219,454.6563 308.6094,454.5469 Q308.7969,454.4375 309.0156,454.4375 Q309.3906,454.4375 309.625,454.6953 Q309.8594,454.9531 309.8594,455.5625 L309.8594,457.0156 Q309.8594,457.625 309.625,457.8906 Q309.3906,458.1563 309.0156,458.1563 Q308.6719,458.1563 308.4688,457.9531 Q308.2656,457.7656 308.1563,457.25 Q308.1094,456.8906 307.9219,456.7031 Q307.5938,456.3281 306.9844,456.1094 Q306.375,455.8906 305.75,455.8906 Q304.9844,455.8906 304.3516,456.2188 Q303.7188,456.5469 303.2266,457.2969 Q302.7344,458.0469 302.7344,459.0781 L302.7344,460.1719 Q302.7344,461.4063 303.625,462.2266 Q304.5156,463.0469 306.1094,463.0469 Q307.0469,463.0469 307.7031,462.7969 Q308.0938,462.6406 308.5156,462.2031 Q308.7813,461.9375 308.9297,461.8594 Q309.0781,461.7813 309.2813,461.7813 Q309.6094,461.7813 309.8672,462.0391 Q310.125,462.2969 310.125,462.6406 Q310.125,462.9844 309.7813,463.3906 Q309.2813,463.9688 308.4844,464.2969 Q307.4063,464.75 306.1094,464.75 Q304.5938,464.75 303.3906,464.125 Q302.4063,463.625 301.7188,462.5547 Q301.0313,461.4844 301.0313,460.2031 L301.0313,459.0469 Q301.0313,457.7188 301.6484,456.5703 Q302.2656,455.4219 303.3594,454.8047 Q304.4531,454.1875 305.6875,454.1875 Q306.4219,454.1875 307.0703,454.3516 Q307.7188,454.5156 308.2656,454.875 Z "/><text fill="#000000" font-family="sans-serif" font-size="12" lengthAdjust="spacingAndGlyphs" textLength="25" x="319.5" y="463.9102">Row</text><line style="stroke: #A80036; stroke-width: 1.5;" x1="291.5" x2="346.5" y1="475" y2="475"/><line style="stroke: #A80036; stroke-width: 1.5;" x1="291.5" x2="346.5" y1="483" y2="483"/><!--MD5=[e06ef809dd6be8ce79b58fe0a1161eb8]
class Column--><rect fill="#FEFECE" filter="url(#f19ci9nt2hfdyy)" height="48" id="Column" style="stroke: #A80036; stroke-width: 1.5;" width="76" x="383" y="443"/><ellipse cx="398" cy="459" fill="#ADD1B2" rx="11" ry="11" style="stroke: #A80036; stroke-width: 1.0;"/><path d="M400.7656,454.875 Q400.9219,454.6563 401.1094,454.5469 Q401.2969,454.4375 401.5156,454.4375 Q401.8906,454.4375 402.125,454.6953 Q402.3594,454.9531 402.3594,455.5625 L402.3594,457.0156 Q402.3594,457.625 402.125,457.8906 Q401.8906,458.1563 401.5156,458.1563 Q401.1719,458.1563 400.9688,457.9531 Q400.7656,457.7656 400.6563,457.25 Q400.6094,456.8906 400.4219,456.7031 Q400.0938,456.3281 399.4844,456.1094 Q398.875,455.8906 398.25,455.8906 Q397.4844,455.8906 396.8516,456.2188 Q396.2188,456.5469 395.7266,457.2969 Q395.2344,458.0469 395.2344,459.0781 L395.2344,460.1719 Q395.2344,461.4063 396.125,462.2266 Q397.0156,463.0469 398.6094,463.0469 Q399.5469,463.0469 400.2031,462.7969 Q400.5938,462.6406 401.0156,462.2031 Q401.2813,461.9375 401.4297,461.8594 Q401.5781,461.7813 401.7813,461.7813 Q402.1094,461.7813 402.3672,462.0391 Q402.625,462.2969 402.625,462.6406 Q402.625,462.9844 402.2813,463.3906 Q401.7813,463.9688 400.9844,464.2969 Q399.9063,464.75 398.6094,464.75 Q397.0938,464.75 395.8906,464.125 Q394.9063,463.625 394.2188,462.5547 Q393.5313,461.4844 393.5313,460.2031 L393.5313,459.0469 Q393.5313,457.7188 394.1484,456.5703 Q394.7656,455.4219 395.8594,454.8047 Q396.9531,454.1875 398.1875,454.1875 Q398.9219,454.1875 399.5703,454.3516 Q400.2188,454.5156 400.7656,454.875 Z "/><text fill="#000000" font-family="sans-serif" font-size="12" lengthAdjust="spacingAndGlyphs" textLength="44" x="412" y="463.9102">Column</text><line style="stroke: #A80036; stroke-width: 1.5;" x1="384" x2="458" y1="475" y2="475"/><line style="stroke: #A80036; stroke-width: 1.5;" x1="384" x2="458" y1="483" y2="483"/><!--MD5=[2dff8a3d4bbb6c59757151578181d35d]
class MainDiagonal--><rect fill="#FEFECE" filter="url(#f19ci9nt2hfdyy)" height="48" id="MainDiagonal" style="stroke: #A80036; stroke-width: 1.5;" width="108" x="494" y="443"/><ellipse cx="509" cy="459" fill="#ADD1B2" rx="11" ry="11" style="stroke: #A80036; stroke-width: 1.0;"/><path d="M511.7656,454.875 Q511.9219,454.6563 512.1094,454.5469 Q512.2969,454.4375 512.5156,454.4375 Q512.8906,454.4375 513.125,454.6953 Q513.3594,454.9531 513.3594,455.5625 L513.3594,457.0156 Q513.3594,457.625 513.125,457.8906 Q512.8906,458.1563 512.5156,458.1563 Q512.1719,458.1563 511.9688,457.9531 Q511.7656,457.7656 511.6563,457.25 Q511.6094,456.8906 511.4219,456.7031 Q511.0938,456.3281 510.4844,456.1094 Q509.875,455.8906 509.25,455.8906 Q508.4844,455.8906 507.8516,456.2188 Q507.2188,456.5469 506.7266,457.2969 Q506.2344,458.0469 506.2344,459.0781 L506.2344,460.1719 Q506.2344,461.4063 507.125,462.2266 Q508.0156,463.0469 509.6094,463.0469 Q510.5469,463.0469 511.2031,462.7969 Q511.5938,462.6406 512.0156,462.2031 Q512.2813,461.9375 512.4297,461.8594 Q512.5781,461.7813 512.7813,461.7813 Q513.1094,461.7813 513.3672,462.0391 Q513.625,462.2969 513.625,462.6406 Q513.625,462.9844 513.2813,463.3906 Q512.7813,463.9688 511.9844,464.2969 Q510.9063,464.75 509.6094,464.75 Q508.0938,464.75 506.8906,464.125 Q505.9063,463.625 505.2188,462.5547 Q504.5313,461.4844 504.5313,460.2031 L504.5313,459.0469 Q504.5313,457.7188 505.1484,456.5703 Q505.7656,455.4219 506.8594,454.8047 Q507.9531,454.1875 509.1875,454.1875 Q509.9219,454.1875 510.5703,454.3516 Q511.2188,454.5156 511.7656,454.875 Z "/><text fill="#000000" font-family="sans-serif" font-size="12" lengthAdjust="spacingAndGlyphs" textLength="76" x="523" y="463.9102">MainDiagonal</text><line style="stroke: #A80036; stroke-width: 1.5;" x1="495" x2="601" y1="475" y2="475"/><line style="stroke: #A80036; stroke-width: 1.5;" x1="495" x2="601" y1="483" y2="483"/><!--MD5=[0f6df31fde49cef09278e2483512ca7d]
class InvertedDiagonal--><rect fill="#FEFECE" filter="url(#f19ci9nt2hfdyy)" height="48" id="InvertedDiagonal" style="stroke: #A80036; stroke-width: 1.5;" width="125" x="130.5" y="443"/><ellipse cx="145.5" cy="459" fill="#ADD1B2" rx="11" ry="11" style="stroke: #A80036; stroke-width: 1.0;"/><path d="M148.2656,454.875 Q148.4219,454.6563 148.6094,454.5469 Q148.7969,454.4375 149.0156,454.4375 Q149.3906,454.4375 149.625,454.6953 Q149.8594,454.9531 149.8594,455.5625 L149.8594,457.0156 Q149.8594,457.625 149.625,457.8906 Q149.3906,458.1563 149.0156,458.1563 Q148.6719,458.1563 148.4688,457.9531 Q148.2656,457.7656 148.1563,457.25 Q148.1094,456.8906 147.9219,456.7031 Q147.5938,456.3281 146.9844,456.1094 Q146.375,455.8906 145.75,455.8906 Q144.9844,455.8906 144.3516,456.2188 Q143.7188,456.5469 143.2266,457.2969 Q142.7344,458.0469 142.7344,459.0781 L142.7344,460.1719 Q142.7344,461.4063 143.625,462.2266 Q144.5156,463.0469 146.1094,463.0469 Q147.0469,463.0469 147.7031,462.7969 Q148.0938,462.6406 148.5156,462.2031 Q148.7813,461.9375 148.9297,461.8594 Q149.0781,461.7813 149.2813,461.7813 Q149.6094,461.7813 149.8672,462.0391 Q150.125,462.2969 150.125,462.6406 Q150.125,462.9844 149.7813,463.3906 Q149.2813,463.9688 148.4844,464.2969 Q147.4063,464.75 146.1094,464.75 Q144.5938,464.75 143.3906,464.125 Q142.4063,463.625 141.7188,462.5547 Q141.0313,461.4844 141.0313,460.2031 L141.0313,459.0469 Q141.0313,457.7188 141.6484,456.5703 Q142.2656,455.4219 143.3594,454.8047 Q144.4531,454.1875 145.6875,454.1875 Q146.4219,454.1875 147.0703,454.3516 Q147.7188,454.5156 148.2656,454.875 Z "/><text fill="#000000" font-family="sans-serif" font-size="12" lengthAdjust="spacingAndGlyphs" textLength="93" x="159.5" y="463.9102">InvertedDiagonal</text><line style="stroke: #A80036; stroke-width: 1.5;" x1="131.5" x2="254.5" y1="475" y2="475"/><line style="stroke: #A80036; stroke-width: 1.5;" x1="131.5" x2="254.5" y1="483" y2="483"/><!--MD5=[434cd2fe8549537c128785c8ce0a3fa2]
link TicTacToe to Player--><path d="M609.2958,65.5144 C609.2958,65.5144 590.826,99.089 584,116 C571.356,147.325 561.651,184.581 555.521,211.513 " fill="none" id="TicTacToe-Player" style="stroke: #A80036; stroke-width: 1.0;"/><polygon fill="#A80036" points="552.644,224.569,558.4868,216.6404,553.7198,219.6861,550.6741,214.9191,552.644,224.569" style="stroke: #A80036; stroke-width: 1.0;"/><line style="stroke: #A80036; stroke-width: 1.0;" x1="553.7198" x2="555.4415" y1="219.6861" y2="211.873"/><polygon fill="#A80036" points="615.378,55.17,608.8888,58.3148,609.2958,65.5144,615.7851,62.3696,615.378,55.17" style="stroke: #A80036; stroke-width: 1.0;"/><text fill="#000000" font-family="sans-serif" font-size="13" lengthAdjust="spacingAndGlyphs" textLength="7" x="545.9229" y="214.2019">2</text><!--MD5=[a737d2231371e146ba098899a67f3b67]
link TicTacToe to Board--><path d="M660.7527,63.7298 C660.7527,63.7298 853.081,262.163 913.444,324.442 " fill="none" id="TicTacToe-Board" style="stroke: #A80036; stroke-width: 1.0;"/><polygon fill="#A80036" points="922.502,333.788,919.1105,324.5415,919.0221,330.1977,913.3659,330.1093,922.502,333.788" style="stroke: #A80036; stroke-width: 1.0;"/><line style="stroke: #A80036; stroke-width: 1.0;" x1="919.0221" x2="913.4545" y1="330.1977" y2="324.453"/><polygon fill="#A80036" points="652.401,55.113,653.7046,62.2053,660.7527,63.7298,659.4491,56.6375,652.401,55.113" style="stroke: #A80036; stroke-width: 1.0;"/><!--MD5=[02ea7f29950e23bda8c82d72bcbd4b5e]
link TicTacToe to Turn--><path d="M630,67.217 C630,67.217 630,91.502 630,102.563 " fill="none" id="TicTacToe-Turn" style="stroke: #A80036; stroke-width: 1.0;"/><polygon fill="#A80036" points="630,115.828,634,106.828,630,110.828,626,106.828,630,115.828" style="stroke: #A80036; stroke-width: 1.0;"/><line style="stroke: #A80036; stroke-width: 1.0;" x1="630" x2="630" y1="110.828" y2="102.828"/><polygon fill="#A80036" points="630,55.217,626,61.217,630,67.217,634,61.217,630,55.217" style="stroke: #A80036; stroke-width: 1.0;"/><!--MD5=[d81713d91ad05be3b975338c4816ee0b]
link Turn to Player--><path d="M612.207,164.217 C599.528,180.763 582.433,203.07 569.07,220.506 " fill="none" id="Turn-&gt;Player" style="stroke: #A80036; stroke-width: 1.0;"/><polygon fill="#A80036" points="565.758,224.828,574.4075,220.1177,568.7994,220.8594,568.0577,215.2514,565.758,224.828" style="stroke: #A80036; stroke-width: 1.0;"/><text fill="#000000" font-family="sans-serif" font-size="13" lengthAdjust="spacingAndGlyphs" textLength="7" x="562.4116" y="214.1241">2</text><!--MD5=[c1f7e88598f78d9459764ed93737eb14]
link Player to Board--><path d="M581.14,255.803 C643.603,267.225 782.582,294.95 895,334 C899.087,335.42 903.293,337.057 907.447,338.79 " fill="none" id="Player-&gt;Board" style="stroke: #A80036; stroke-width: 1.0;"/><polygon fill="#A80036" points="912.29,340.861,905.5893,333.6429,907.6932,338.894,902.4421,340.9978,912.29,340.861" style="stroke: #A80036; stroke-width: 1.0;"/><!--MD5=[3ada97fffb5bcc4da390db27b64fa26e]
link Player to Piece--><path d="M502.8835,250.7228 C502.8835,250.7228 77,270.491 77,357 C77,357 77,357 77,594 C77,663.973 316.062,690.109 417.426,698.047 " fill="none" id="Player-Piece" style="stroke: #A80036; stroke-width: 1.0;"/><polygon fill="#A80036" points="430.494,699.028,421.8186,694.3657,425.508,698.6538,421.2199,702.3433,430.494,699.028" style="stroke: #A80036; stroke-width: 1.0;"/><line style="stroke: #A80036; stroke-width: 1.0;" x1="425.508" x2="417.5305" y1="698.6538" y2="698.0545"/><polygon fill="#FFFFFF" points="514.88,250.434,508.7855,246.5796,502.8835,250.7228,508.978,254.5772,514.88,250.434" style="stroke: #A80036; stroke-width: 1.0;"/><text fill="#000000" font-family="sans-serif" font-size="13" lengthAdjust="spacingAndGlyphs" textLength="22" x="400.3913" y="694.4651">0..3</text><!--MD5=[1571e4e0b7cdbae74b04c97a95677c54]
link Player to Goal--><path d="M548,285.217 C548,285.217 548,309.502 548,320.563 " fill="none" id="Player-Goal" style="stroke: #A80036; stroke-width: 1.0;"/><polygon fill="#A80036" points="548,333.828,552,324.828,548,328.828,544,324.828,548,333.828" style="stroke: #A80036; stroke-width: 1.0;"/><line style="stroke: #A80036; stroke-width: 1.0;" x1="548" x2="548" y1="328.828" y2="320.828"/><polygon fill="#FFFFFF" points="548,273.217,544,279.217,548,285.217,552,279.217,548,273.217" style="stroke: #A80036; stroke-width: 1.0;"/><!--MD5=[ebf52a6f230ff8b0d594dd9ce4cd7c5b]
link Player to Color--><path d="M502.9113,249.3759 C502.9113,249.3759 6,256.361 6,357 C6,357 6,357 6,703 C6,746.749 50.7909,776.561 86.5328,793.385 " fill="none" id="Player-Color" style="stroke: #A80036; stroke-width: 1.0;"/><polygon fill="#A80036" points="98.7096,798.796,92.1094,791.4859,94.1404,796.7656,88.8607,798.7966,98.7096,798.796" style="stroke: #A80036; stroke-width: 1.0;"/><line style="stroke: #A80036; stroke-width: 1.0;" x1="94.1404" x2="86.8297" y1="796.7656" y2="793.517"/><polygon fill="#A80036" points="514.911,249.455,508.9375,245.4155,502.9113,249.3759,508.8848,253.4154,514.911,249.455" style="stroke: #A80036; stroke-width: 1.0;"/><!--MD5=[68ab7a71f8552a80779fd7b46f32fc4f]
reverse link Action to PutAction--><path d="M811.068,397.218 C797.533,412.463 782.392,429.516 770.573,442.828 " fill="none" id="Action&lt;-PutAction" style="stroke: #A80036; stroke-width: 1.0;"/><polygon fill="none" points="805.873,392.526,824.386,382.217,816.342,401.821,805.873,392.526" style="stroke: #A80036; stroke-width: 1.0;"/><!--MD5=[48d67b7b46648ab6daeb4e900513da2f]
reverse link Action to MoveAction--><path d="M880.718,397.218 C894.966,412.463 910.903,429.516 923.344,442.828 " fill="none" id="Action&lt;-MoveAction" style="stroke: #A80036; stroke-width: 1.0;"/><polygon fill="none" points="875.24,401.609,866.699,382.217,885.469,392.05,875.24,401.609" style="stroke: #A80036; stroke-width: 1.0;"/><!--MD5=[2f378bb2f56593d68624f1790be1dbac]
link Piece to Color--><path d="M419.0454,716.8436 C419.0454,716.8436 237.492,775.357 174.022,795.812 " fill="none" id="Piece-Color" style="stroke: #A80036; stroke-width: 1.0;"/><polygon fill="#A80036" points="161.322,799.905,171.1152,800.9507,166.0808,798.3709,168.6607,793.3366,161.322,799.905" style="stroke: #A80036; stroke-width: 1.0;"/><line style="stroke: #A80036; stroke-width: 1.0;" x1="166.0808" x2="173.696" y1="798.3709" y2="795.9175"/><polygon fill="#A80036" points="430.467,713.163,423.5293,711.1961,419.0454,716.8436,425.9831,718.8105,430.467,713.163" style="stroke: #A80036; stroke-width: 1.0;"/><!--MD5=[cadd997a6c0d1b409cb2c707bfea899e]
reverse link Color to X--><path d="M115.271,854.5948 C110.407,868.6608 105.1799,883.7771 101.0128,895.8279 " fill="none" id="Color&lt;-X" style="stroke: #A80036; stroke-width: 1.0;"/><polygon fill="none" points="108.82,851.8316,121.972,835.217,122.051,856.4069,108.82,851.8316" style="stroke: #A80036; stroke-width: 1.0;"/><!--MD5=[da3122694a19f792a32b14ff12c4d304]
reverse link Color to O--><path d="M144.953,854.1046 C149.998,868.3088 155.441,883.637 159.771,895.8279 " fill="none" id="Color&lt;-O" style="stroke: #A80036; stroke-width: 1.0;"/><polygon fill="none" points="138.342,856.4068,138.245,835.217,151.535,851.7215,138.342,856.4068" style="stroke: #A80036; stroke-width: 1.0;"/><!--MD5=[54c4a35b40d33fcdb73798b37710015d]
link Goal to PutAction--><path d="M577.107,367.924 C604.808,377.026 647.166,392.555 681,412 C694.626,419.831 708.493,430.137 720.186,439.645 " fill="none" id="Goal-&gt;PutAction" style="stroke: #A80036; stroke-width: 1.0; stroke-dasharray: 7.0,7.0;"/><polygon fill="#A80036" points="724.065,442.834,719.6527,434.0288,720.2025,439.6589,714.5725,440.2087,724.065,442.834" style="stroke: #A80036; stroke-width: 1.0;"/><text fill="#000000" font-family="sans-serif" font-size="13" lengthAdjust="spacingAndGlyphs" textLength="7" x="709.5223" y="432.1316">3</text><!--MD5=[8f805d0aa28b26faa3c8ac5f922b5186]
link Goal to MoveAction--><path d="M577.192,366.868 C644.084,384.897 809.16,429.388 893.54,452.131 " fill="none" id="Goal-&gt;MoveAction" style="stroke: #A80036; stroke-width: 1.0; stroke-dasharray: 7.0,7.0;"/><polygon fill="#A80036" points="898.485,453.463,890.8361,447.2587,893.6573,452.1618,888.7541,454.983,898.485,453.463" style="stroke: #A80036; stroke-width: 1.0;"/><text fill="#000000" font-family="sans-serif" font-size="13" lengthAdjust="spacingAndGlyphs" textLength="5" x="885.3669" y="447.4202">*</text><!--MD5=[15df82f68831714e43f722f58194f411]
link Goal to Square--><path d="M568.201,382.308 C594.176,411.093 641.824,460.036 691,491 C760.442,534.725 851.963,565.463 904.051,580.808 " fill="none" id="Goal-&gt;Square" style="stroke: #A80036; stroke-width: 1.0; stroke-dasharray: 7.0,7.0;"/><polygon fill="#A80036" points="908.967,582.245,901.4505,575.8809,904.1678,580.8424,899.2063,583.5596,908.967,582.245" style="stroke: #A80036; stroke-width: 1.0;"/><text fill="#000000" font-family="sans-serif" font-size="13" lengthAdjust="spacingAndGlyphs" textLength="7" x="893.8133" y="575.9082">3</text><!--MD5=[4ad96441c8a01d959d4bf4f2a5e1a798]
link Board to Square--><path d="M989.534,364.9172 C989.534,364.9172 1092.57,394.492 1105,443 C1115.75,484.975 1118.42,508.139 1088,539 C1062.99,564.379 1024.75,577.722 994.109,584.669 " fill="none" id="Board-Square" style="stroke: #A80036; stroke-width: 1.0;"/><polygon fill="#A80036" points="981.072,587.352,990.6934,589.4562,985.9694,586.3444,989.0813,581.6204,981.072,587.352" style="stroke: #A80036; stroke-width: 1.0;"/><line style="stroke: #A80036; stroke-width: 1.0;" x1="985.9694" x2="993.805" y1="586.3444" y2="584.732"/><polygon fill="#A80036" points="977.731,362.752,982.9108,367.7689,989.534,364.9172,984.3543,359.9002,977.731,362.752" style="stroke: #A80036; stroke-width: 1.0;"/><text fill="#000000" font-family="sans-serif" font-size="13" lengthAdjust="spacingAndGlyphs" textLength="21" x="989.0766" y="582.5316">3x3</text><!--MD5=[d1718f8040beedd4df7f7517ac9b645a]
link Square to Coordinate--><path d="M945,629.217 C945,629.217 945,653.502 945,664.563 " fill="none" id="Square-Coordinate" style="stroke: #A80036; stroke-width: 1.0;"/><polygon fill="#A80036" points="945,677.828,949,668.828,945,672.828,941,668.828,945,677.828" style="stroke: #A80036; stroke-width: 1.0;"/><line style="stroke: #A80036; stroke-width: 1.0;" x1="945" x2="945" y1="672.828" y2="664.828"/><polygon fill="#A80036" points="945,617.217,941,623.217,945,629.217,949,623.217,945,617.217" style="stroke: #A80036; stroke-width: 1.0;"/><!--MD5=[f6467046f93aba88bed66e3f7374a456]
link Square to Piece--><path d="M907.838,624.2799 C907.838,624.2799 879.664,642.443 865,648 C741.378,694.85 582.872,701.514 506.74,701.718 " fill="none" id="Square-Piece" style="stroke: #A80036; stroke-width: 1.0;"/><polygon fill="#A80036" points="493.51,701.689,502.5012,705.7088,498.51,701.7,502.5188,697.7088,493.51,701.689" style="stroke: #A80036; stroke-width: 1.0;"/><line style="stroke: #A80036; stroke-width: 1.0;" x1="498.51" x2="506.51" y1="701.7" y2="701.718"/><polygon fill="#FFFFFF" points="917.54,617.218,910.335,617.5149,907.838,624.2799,915.0429,623.983,917.54,617.218" style="stroke: #A80036; stroke-width: 1.0;"/><text fill="#000000" font-family="sans-serif" font-size="13" lengthAdjust="spacingAndGlyphs" textLength="22" x="501.6135" y="697.6333">0..1</text><!--MD5=[5dd37025bd56d3ce0dc94ae780f62769]
link Action to Piece--><path d="M843.821,382.27 C841.309,410.572 833.466,458.576 809,491 C726.679,600.098 569.721,664.479 498.621,689.237 " fill="none" id="Action-&gt;Piece" style="stroke: #A80036; stroke-width: 1.0; stroke-dasharray: 7.0,7.0;"/><polygon fill="#A80036" points="493.653,690.951,503.4653,691.7987,498.3799,689.3211,500.8575,684.2357,493.653,690.951" style="stroke: #A80036; stroke-width: 1.0;"/><!--MD5=[d5b732a636ecb7f30d2b5d18fc14c0cd]
link Action to Square--><path d="M877.622,374.628 C924.361,397.173 1005.214,436.808 1009,443 C1033.45,482.999 999.014,534.007 971.952,564.777 " fill="none" id="Action-&gt;Square" style="stroke: #A80036; stroke-width: 1.0; stroke-dasharray: 7.0,7.0;"/><polygon fill="#A80036" points="968.357,568.796,977.3379,564.7534,971.6899,565.0688,971.3745,559.4208,968.357,568.796" style="stroke: #A80036; stroke-width: 1.0;"/><text fill="#000000" font-family="sans-serif" font-size="13" lengthAdjust="spacingAndGlyphs" textLength="33" x="1019" y="472.4951">target</text><!--MD5=[0e6c3ab9e6f64e017acb955460568e7c]
link MoveAction to Square--><path d="M945,491.033 C945,511.522 945,541.561 945,563.546 " fill="none" id="MoveAction-&gt;Square" style="stroke: #A80036; stroke-width: 1.0; stroke-dasharray: 7.0,7.0;"/><polygon fill="#A80036" points="945,568.67,949,559.67,945,563.67,941,559.67,945,568.67" style="stroke: #A80036; stroke-width: 1.0;"/><text fill="#000000" font-family="sans-serif" font-size="13" lengthAdjust="spacingAndGlyphs" textLength="31" x="946" y="535.4951">origin</text><!--MD5=[cc08ae77311d3850838d7f60cf979d27]
reverse link Goal to Row--><path d="M500.363,380.342 C463.311,397.068 410.693,421.097 365,443 C359.364,445.702 353.371,448.645 347.637,451.497 " fill="none" id="Goal&lt;-Row" style="stroke: #A80036; stroke-width: 1.0;"/><polygon fill="none" points="497.59,373.913,518.701,372.086,503.338,386.679,497.59,373.913" style="stroke: #A80036; stroke-width: 1.0;"/><!--MD5=[21350569656573e18760c9f22b4a0078]
reverse link Goal to Column--><path d="M504.912,395.302 C486.256,411.021 464.969,428.955 448.503,442.828 " fill="none" id="Goal&lt;-Column" style="stroke: #A80036; stroke-width: 1.0;"/><polygon fill="none" points="500.638,389.751,520.443,382.217,509.658,400.457,500.638,389.751" style="stroke: #A80036; stroke-width: 1.0;"/><!--MD5=[a1bc088bb2b052fba23f5b19d584ba88]
reverse link Goal to MainDiagonal--><path d="M548,402.578 C548,416.362 548,431.057 548,442.828 " fill="none" id="Goal&lt;-MainDiagonal" style="stroke: #A80036; stroke-width: 1.0;"/><polygon fill="none" points="541,402.217,548,382.217,555,402.217,541,402.217" style="stroke: #A80036; stroke-width: 1.0;"/><!--MD5=[29f9a0939f51e848196471c67d635130]
reverse link Goal to InvertedDiagonal--><path d="M499.41,373.645 C436.038,392.746 325.077,426.191 255.503,447.161 " fill="none" id="Goal&lt;-InvertedDiagonal" style="stroke: #A80036; stroke-width: 1.0;"/><polygon fill="none" points="497.78,366.826,518.949,367.756,501.82,380.23,497.78,366.826" style="stroke: #A80036; stroke-width: 1.0;"/><!--MD5=[ccfea59d1f644d4b13b0a9523ca36592]
@startuml
TicTacToe *-down-> "2" Player
TicTacToe *-down-> Board
TicTacToe *-down-> Turn

Turn -down-> "2" Player

Player -down-> Board
Player o-down-> "0..3" Piece
Player o-down-> Goal
Player *-down-> Color


Action <|-down- PutAction
Action <|-down- MoveAction

Piece *-down-> Color

Color <|-down- X
Color <|-down- O

Goal ..> "3" PutAction
Goal ..> "*" MoveAction
Goal ..> "3" Square

Board *-down-> "3x3" Square
Square *-down-> Coordinate
Square o-down-> "0..1" Piece

Action .down.> Piece
Action .down.> Square : target
MoveAction .down.> Square : origin

Goal <|-down- Row
Goal <|-down- Column
Goal <|-down- MainDiagonal
Goal <|-down- InvertedDiagonal
@enduml

PlantUML version 1.2020.15(Sun Jun 28 13:39:45 CEST 2020)
(GPL source distribution)
Java Runtime: OpenJDK Runtime Environment
JVM: OpenJDK 64-Bit Server VM
Default Encoding: windows-1252
Language: es
Country: ES
--></g></svg>