<?xml version="1.0" encoding="UTF-8" standalone="no"?><svg xmlns="http://www.w3.org/2000/svg" xmlns:xlink="http://www.w3.org/1999/xlink" contentScriptType="application/ecmascript" contentStyleType="text/css" height="963px" preserveAspectRatio="none" style="width:1104px;height:963px;" version="1.1" viewBox="0 0 1104 963" width="1104px" zoomAndPan="magnify"><defs><filter height="300%" id="f1uugcjsvx1odk" width="300%" x="-1" y="-1"><feGaussianBlur result="blurOut" stdDeviation="2.0"/><feColorMatrix in="blurOut" result="blurOut2" type="matrix" values="0 0 0 0 0 0 0 0 0 0 0 0 0 0 0 0 0 0 .4 0"/><feOffset dx="4.0" dy="4.0" in="blurOut2" result="blurOut3"/><feBlend in="SourceGraphic" in2="blurOut3" mode="normal"/></filter></defs><g><!--MD5=[36f719b1cbc3f26b5758ea249b208fb4]
class TicTacToe--><rect fill="#FEFECE" filter="url(#f1uugcjsvx1odk)" height="48" id="TicTacToe" style="stroke: #A80036; stroke-width: 1.5;" width="89" x="572.5" y="7"/><ellipse cx="587.5" cy="23" fill="#ADD1B2" rx="11" ry="11" style="stroke: #A80036; stroke-width: 1.0;"/><path d="M590.2656,18.875 Q590.4219,18.6563 590.6094,18.5469 Q590.7969,18.4375 591.0156,18.4375 Q591.3906,18.4375 591.625,18.7031 Q591.8594,18.9531 591.8594,19.5625 L591.8594,21.0156 Q591.8594,21.625 591.625,21.8906 Q591.3906,22.1563 591.0156,22.1563 Q590.6719,22.1563 590.4688,21.9531 Q590.2656,21.7656 590.1563,21.25 Q590.1094,20.8906 589.9219,20.7031 Q589.5938,20.3281 588.9844,20.1094 Q588.375,19.8906 587.75,19.8906 Q586.9844,19.8906 586.3438,20.2188 Q585.7188,20.5469 585.2188,21.2969 Q584.7344,22.0469 584.7344,23.0781 L584.7344,24.1719 Q584.7344,25.4063 585.625,26.2344 Q586.5156,27.0469 588.1094,27.0469 Q589.0469,27.0469 589.7031,26.7969 Q590.0938,26.6406 590.5156,26.2031 Q590.7813,25.9375 590.9219,25.8594 Q591.0781,25.7813 591.2813,25.7813 Q591.6094,25.7813 591.8594,26.0469 Q592.125,26.2969 592.125,26.6406 Q592.125,26.9844 591.7813,27.3906 Q591.2813,27.9688 590.4844,28.2969 Q589.4063,28.75 588.1094,28.75 Q586.5938,28.75 585.3906,28.125 Q584.4063,27.625 583.7188,26.5625 Q583.0313,25.4844 583.0313,24.2031 L583.0313,23.0469 Q583.0313,21.7188 583.6406,20.5781 Q584.2656,19.4219 585.3594,18.8125 Q586.4531,18.1875 587.6875,18.1875 Q588.4219,18.1875 589.0625,18.3594 Q589.7188,18.5156 590.2656,18.875 Z "/><text fill="#000000" font-family="sans-serif" font-size="12" lengthAdjust="spacingAndGlyphs" textLength="57" x="601.5" y="27.9102">TicTacToe</text><line style="stroke: #A80036; stroke-width: 1.5;" x1="573.5" x2="660.5" y1="39" y2="39"/><line style="stroke: #A80036; stroke-width: 1.5;" x1="573.5" x2="660.5" y1="47" y2="47"/><!--MD5=[2cb47ba637a0d19583e6199456f6ad0b]
class Player--><rect fill="#FEFECE" filter="url(#f1uugcjsvx1odk)" height="48" id="Player" style="stroke: #A80036; stroke-width: 1.5;" width="66" x="502" y="225"/><ellipse cx="517" cy="241" fill="#ADD1B2" rx="11" ry="11" style="stroke: #A80036; stroke-width: 1.0;"/><path d="M519.7656,236.875 Q519.9219,236.6563 520.1094,236.5469 Q520.2969,236.4375 520.5156,236.4375 Q520.8906,236.4375 521.125,236.7031 Q521.3594,236.9531 521.3594,237.5625 L521.3594,239.0156 Q521.3594,239.625 521.125,239.8906 Q520.8906,240.1563 520.5156,240.1563 Q520.1719,240.1563 519.9688,239.9531 Q519.7656,239.7656 519.6563,239.25 Q519.6094,238.8906 519.4219,238.7031 Q519.0938,238.3281 518.4844,238.1094 Q517.875,237.8906 517.25,237.8906 Q516.4844,237.8906 515.8438,238.2188 Q515.2188,238.5469 514.7188,239.2969 Q514.2344,240.0469 514.2344,241.0781 L514.2344,242.1719 Q514.2344,243.4063 515.125,244.2344 Q516.0156,245.0469 517.6094,245.0469 Q518.5469,245.0469 519.2031,244.7969 Q519.5938,244.6406 520.0156,244.2031 Q520.2813,243.9375 520.4219,243.8594 Q520.5781,243.7813 520.7813,243.7813 Q521.1094,243.7813 521.3594,244.0469 Q521.625,244.2969 521.625,244.6406 Q521.625,244.9844 521.2813,245.3906 Q520.7813,245.9688 519.9844,246.2969 Q518.9063,246.75 517.6094,246.75 Q516.0938,246.75 514.8906,246.125 Q513.9063,245.625 513.2188,244.5625 Q512.5313,243.4844 512.5313,242.2031 L512.5313,241.0469 Q512.5313,239.7188 513.1406,238.5781 Q513.7656,237.4219 514.8594,236.8125 Q515.9531,236.1875 517.1875,236.1875 Q517.9219,236.1875 518.5625,236.3594 Q519.2188,236.5156 519.7656,236.875 Z "/><text fill="#000000" font-family="sans-serif" font-size="12" lengthAdjust="spacingAndGlyphs" textLength="34" x="531" y="245.9102">Player</text><line style="stroke: #A80036; stroke-width: 1.5;" x1="503" x2="567" y1="257" y2="257"/><line style="stroke: #A80036; stroke-width: 1.5;" x1="503" x2="567" y1="265" y2="265"/><!--MD5=[9563755d011c5cec7ec66dc53565a59e]
class Board--><rect fill="#FEFECE" filter="url(#f1uugcjsvx1odk)" height="48" id="Board" style="stroke: #A80036; stroke-width: 1.5;" width="65" x="886.5" y="334"/><ellipse cx="901.5" cy="350" fill="#ADD1B2" rx="11" ry="11" style="stroke: #A80036; stroke-width: 1.0;"/><path d="M904.2656,345.875 Q904.4219,345.6563 904.6094,345.5469 Q904.7969,345.4375 905.0156,345.4375 Q905.3906,345.4375 905.625,345.7031 Q905.8594,345.9531 905.8594,346.5625 L905.8594,348.0156 Q905.8594,348.625 905.625,348.8906 Q905.3906,349.1563 905.0156,349.1563 Q904.6719,349.1563 904.4688,348.9531 Q904.2656,348.7656 904.1563,348.25 Q904.1094,347.8906 903.9219,347.7031 Q903.5938,347.3281 902.9844,347.1094 Q902.375,346.8906 901.75,346.8906 Q900.9844,346.8906 900.3438,347.2188 Q899.7188,347.5469 899.2188,348.2969 Q898.7344,349.0469 898.7344,350.0781 L898.7344,351.1719 Q898.7344,352.4063 899.625,353.2344 Q900.5156,354.0469 902.1094,354.0469 Q903.0469,354.0469 903.7031,353.7969 Q904.0938,353.6406 904.5156,353.2031 Q904.7813,352.9375 904.9219,352.8594 Q905.0781,352.7813 905.2813,352.7813 Q905.6094,352.7813 905.8594,353.0469 Q906.125,353.2969 906.125,353.6406 Q906.125,353.9844 905.7813,354.3906 Q905.2813,354.9688 904.4844,355.2969 Q903.4063,355.75 902.1094,355.75 Q900.5938,355.75 899.3906,355.125 Q898.4063,354.625 897.7188,353.5625 Q897.0313,352.4844 897.0313,351.2031 L897.0313,350.0469 Q897.0313,348.7188 897.6406,347.5781 Q898.2656,346.4219 899.3594,345.8125 Q900.4531,345.1875 901.6875,345.1875 Q902.4219,345.1875 903.0625,345.3594 Q903.7188,345.5156 904.2656,345.875 Z "/><text fill="#000000" font-family="sans-serif" font-size="12" lengthAdjust="spacingAndGlyphs" textLength="33" x="915.5" y="354.9102">Board</text><line style="stroke: #A80036; stroke-width: 1.5;" x1="887.5" x2="950.5" y1="366" y2="366"/><line style="stroke: #A80036; stroke-width: 1.5;" x1="887.5" x2="950.5" y1="374" y2="374"/><!--MD5=[dd91eae41778c45e12552e5329e240e8]
class Turn--><rect fill="#FEFECE" filter="url(#f1uugcjsvx1odk)" height="48" id="Turn" style="stroke: #A80036; stroke-width: 1.5;" width="57" x="588.5" y="116"/><ellipse cx="603.5" cy="132" fill="#ADD1B2" rx="11" ry="11" style="stroke: #A80036; stroke-width: 1.0;"/><path d="M606.2656,127.875 Q606.4219,127.6563 606.6094,127.5469 Q606.7969,127.4375 607.0156,127.4375 Q607.3906,127.4375 607.625,127.7031 Q607.8594,127.9531 607.8594,128.5625 L607.8594,130.0156 Q607.8594,130.625 607.625,130.8906 Q607.3906,131.1563 607.0156,131.1563 Q606.6719,131.1563 606.4688,130.9531 Q606.2656,130.7656 606.1563,130.25 Q606.1094,129.8906 605.9219,129.7031 Q605.5938,129.3281 604.9844,129.1094 Q604.375,128.8906 603.75,128.8906 Q602.9844,128.8906 602.3438,129.2188 Q601.7188,129.5469 601.2188,130.2969 Q600.7344,131.0469 600.7344,132.0781 L600.7344,133.1719 Q600.7344,134.4063 601.625,135.2344 Q602.5156,136.0469 604.1094,136.0469 Q605.0469,136.0469 605.7031,135.7969 Q606.0938,135.6406 606.5156,135.2031 Q606.7813,134.9375 606.9219,134.8594 Q607.0781,134.7813 607.2813,134.7813 Q607.6094,134.7813 607.8594,135.0469 Q608.125,135.2969 608.125,135.6406 Q608.125,135.9844 607.7813,136.3906 Q607.2813,136.9688 606.4844,137.2969 Q605.4063,137.75 604.1094,137.75 Q602.5938,137.75 601.3906,137.125 Q600.4063,136.625 599.7188,135.5625 Q599.0313,134.4844 599.0313,133.2031 L599.0313,132.0469 Q599.0313,130.7188 599.6406,129.5781 Q600.2656,128.4219 601.3594,127.8125 Q602.4531,127.1875 603.6875,127.1875 Q604.4219,127.1875 605.0625,127.3594 Q605.7188,127.5156 606.2656,127.875 Z "/><text fill="#000000" font-family="sans-serif" font-size="12" lengthAdjust="spacingAndGlyphs" textLength="25" x="617.5" y="136.9102">Turn</text><line style="stroke: #A80036; stroke-width: 1.5;" x1="589.5" x2="644.5" y1="148" y2="148"/><line style="stroke: #A80036; stroke-width: 1.5;" x1="589.5" x2="644.5" y1="156" y2="156"/><!--MD5=[e05bacf3ff4416a0580578814d41bbf6]
class Piece--><rect fill="#FEFECE" filter="url(#f1uugcjsvx1odk)" height="48" id="Piece" style="stroke: #A80036; stroke-width: 1.5;" width="63" x="417.5" y="678"/><ellipse cx="432.5" cy="694" fill="#ADD1B2" rx="11" ry="11" style="stroke: #A80036; stroke-width: 1.0;"/><path d="M435.2656,689.875 Q435.4219,689.6563 435.6094,689.5469 Q435.7969,689.4375 436.0156,689.4375 Q436.3906,689.4375 436.625,689.7031 Q436.8594,689.9531 436.8594,690.5625 L436.8594,692.0156 Q436.8594,692.625 436.625,692.8906 Q436.3906,693.1563 436.0156,693.1563 Q435.6719,693.1563 435.4688,692.9531 Q435.2656,692.7656 435.1563,692.25 Q435.1094,691.8906 434.9219,691.7031 Q434.5938,691.3281 433.9844,691.1094 Q433.375,690.8906 432.75,690.8906 Q431.9844,690.8906 431.3438,691.2188 Q430.7188,691.5469 430.2188,692.2969 Q429.7344,693.0469 429.7344,694.0781 L429.7344,695.1719 Q429.7344,696.4063 430.625,697.2344 Q431.5156,698.0469 433.1094,698.0469 Q434.0469,698.0469 434.7031,697.7969 Q435.0938,697.6406 435.5156,697.2031 Q435.7813,696.9375 435.9219,696.8594 Q436.0781,696.7813 436.2813,696.7813 Q436.6094,696.7813 436.8594,697.0469 Q437.125,697.2969 437.125,697.6406 Q437.125,697.9844 436.7813,698.3906 Q436.2813,698.9688 435.4844,699.2969 Q434.4063,699.75 433.1094,699.75 Q431.5938,699.75 430.3906,699.125 Q429.4063,698.625 428.7188,697.5625 Q428.0313,696.4844 428.0313,695.2031 L428.0313,694.0469 Q428.0313,692.7188 428.6406,691.5781 Q429.2656,690.4219 430.3594,689.8125 Q431.4531,689.1875 432.6875,689.1875 Q433.4219,689.1875 434.0625,689.3594 Q434.7188,689.5156 435.2656,689.875 Z "/><text fill="#000000" font-family="sans-serif" font-size="12" lengthAdjust="spacingAndGlyphs" textLength="31" x="446.5" y="698.9102">Piece</text><line style="stroke: #A80036; stroke-width: 1.5;" x1="418.5" x2="479.5" y1="710" y2="710"/><line style="stroke: #A80036; stroke-width: 1.5;" x1="418.5" x2="479.5" y1="718" y2="718"/><!--MD5=[0992d3fdc9d3d7c02b735131bb70871d]
class Goal--><rect fill="#FEFECE" filter="url(#f1uugcjsvx1odk)" height="48" id="Goal" style="stroke: #A80036; stroke-width: 1.5;" width="58" x="506" y="334"/><ellipse cx="521" cy="350" fill="#ADD1B2" rx="11" ry="11" style="stroke: #A80036; stroke-width: 1.0;"/><path d="M523.7656,345.875 Q523.9219,345.6563 524.1094,345.5469 Q524.2969,345.4375 524.5156,345.4375 Q524.8906,345.4375 525.125,345.7031 Q525.3594,345.9531 525.3594,346.5625 L525.3594,348.0156 Q525.3594,348.625 525.125,348.8906 Q524.8906,349.1563 524.5156,349.1563 Q524.1719,349.1563 523.9688,348.9531 Q523.7656,348.7656 523.6563,348.25 Q523.6094,347.8906 523.4219,347.7031 Q523.0938,347.3281 522.4844,347.1094 Q521.875,346.8906 521.25,346.8906 Q520.4844,346.8906 519.8438,347.2188 Q519.2188,347.5469 518.7188,348.2969 Q518.2344,349.0469 518.2344,350.0781 L518.2344,351.1719 Q518.2344,352.4063 519.125,353.2344 Q520.0156,354.0469 521.6094,354.0469 Q522.5469,354.0469 523.2031,353.7969 Q523.5938,353.6406 524.0156,353.2031 Q524.2813,352.9375 524.4219,352.8594 Q524.5781,352.7813 524.7813,352.7813 Q525.1094,352.7813 525.3594,353.0469 Q525.625,353.2969 525.625,353.6406 Q525.625,353.9844 525.2813,354.3906 Q524.7813,354.9688 523.9844,355.2969 Q522.9063,355.75 521.6094,355.75 Q520.0938,355.75 518.8906,355.125 Q517.9063,354.625 517.2188,353.5625 Q516.5313,352.4844 516.5313,351.2031 L516.5313,350.0469 Q516.5313,348.7188 517.1406,347.5781 Q517.7656,346.4219 518.8594,345.8125 Q519.9531,345.1875 521.1875,345.1875 Q521.9219,345.1875 522.5625,345.3594 Q523.2188,345.5156 523.7656,345.875 Z "/><text fill="#000000" font-family="sans-serif" font-size="12" lengthAdjust="spacingAndGlyphs" textLength="26" x="535" y="354.9102">Goal</text><line style="stroke: #A80036; stroke-width: 1.5;" x1="507" x2="563" y1="366" y2="366"/><line style="stroke: #A80036; stroke-width: 1.5;" x1="507" x2="563" y1="374" y2="374"/><!--MD5=[18eee71c88ab61f27581b8cbdd3ef5ee]
class Color--><rect fill="#FEFECE" filter="url(#f1uugcjsvx1odk)" height="48" id="Color" style="stroke: #A80036; stroke-width: 1.5;" width="62" x="96" y="787"/><ellipse cx="111" cy="803" fill="#ADD1B2" rx="11" ry="11" style="stroke: #A80036; stroke-width: 1.0;"/><path d="M113.7656,798.875 Q113.9219,798.6563 114.1094,798.5469 Q114.2969,798.4375 114.5156,798.4375 Q114.8906,798.4375 115.125,798.7031 Q115.3594,798.9531 115.3594,799.5625 L115.3594,801.0156 Q115.3594,801.625 115.125,801.8906 Q114.8906,802.1563 114.5156,802.1563 Q114.1719,802.1563 113.9688,801.9531 Q113.7656,801.7656 113.6563,801.25 Q113.6094,800.8906 113.4219,800.7031 Q113.0938,800.3281 112.4844,800.1094 Q111.875,799.8906 111.25,799.8906 Q110.4844,799.8906 109.8438,800.2188 Q109.2188,800.5469 108.7188,801.2969 Q108.2344,802.0469 108.2344,803.0781 L108.2344,804.1719 Q108.2344,805.4063 109.125,806.2344 Q110.0156,807.0469 111.6094,807.0469 Q112.5469,807.0469 113.2031,806.7969 Q113.5938,806.6406 114.0156,806.2031 Q114.2813,805.9375 114.4219,805.8594 Q114.5781,805.7813 114.7813,805.7813 Q115.1094,805.7813 115.3594,806.0469 Q115.625,806.2969 115.625,806.6406 Q115.625,806.9844 115.2813,807.3906 Q114.7813,807.9688 113.9844,808.2969 Q112.9063,808.75 111.6094,808.75 Q110.0938,808.75 108.8906,808.125 Q107.9063,807.625 107.2188,806.5625 Q106.5313,805.4844 106.5313,804.2031 L106.5313,803.0469 Q106.5313,801.7188 107.1406,800.5781 Q107.7656,799.4219 108.8594,798.8125 Q109.9531,798.1875 111.1875,798.1875 Q111.9219,798.1875 112.5625,798.3594 Q113.2188,798.5156 113.7656,798.875 Z "/><text fill="#000000" font-family="sans-serif" font-size="12" lengthAdjust="spacingAndGlyphs" textLength="30" x="125" y="807.9102">Color</text><line style="stroke: #A80036; stroke-width: 1.5;" x1="97" x2="157" y1="819" y2="819"/><line style="stroke: #A80036; stroke-width: 1.5;" x1="97" x2="157" y1="827" y2="827"/><!--MD5=[f8e7078f77c005d15b486c0c98deb1e6]
class Action--><rect fill="#FEFECE" filter="url(#f1uugcjsvx1odk)" height="48" id="Action" style="stroke: #A80036; stroke-width: 1.5;" width="65" x="786.5" y="334"/><ellipse cx="801.5" cy="350" fill="#ADD1B2" rx="11" ry="11" style="stroke: #A80036; stroke-width: 1.0;"/><path d="M804.2656,345.875 Q804.4219,345.6563 804.6094,345.5469 Q804.7969,345.4375 805.0156,345.4375 Q805.3906,345.4375 805.625,345.7031 Q805.8594,345.9531 805.8594,346.5625 L805.8594,348.0156 Q805.8594,348.625 805.625,348.8906 Q805.3906,349.1563 805.0156,349.1563 Q804.6719,349.1563 804.4688,348.9531 Q804.2656,348.7656 804.1563,348.25 Q804.1094,347.8906 803.9219,347.7031 Q803.5938,347.3281 802.9844,347.1094 Q802.375,346.8906 801.75,346.8906 Q800.9844,346.8906 800.3438,347.2188 Q799.7188,347.5469 799.2188,348.2969 Q798.7344,349.0469 798.7344,350.0781 L798.7344,351.1719 Q798.7344,352.4063 799.625,353.2344 Q800.5156,354.0469 802.1094,354.0469 Q803.0469,354.0469 803.7031,353.7969 Q804.0938,353.6406 804.5156,353.2031 Q804.7813,352.9375 804.9219,352.8594 Q805.0781,352.7813 805.2813,352.7813 Q805.6094,352.7813 805.8594,353.0469 Q806.125,353.2969 806.125,353.6406 Q806.125,353.9844 805.7813,354.3906 Q805.2813,354.9688 804.4844,355.2969 Q803.4063,355.75 802.1094,355.75 Q800.5938,355.75 799.3906,355.125 Q798.4063,354.625 797.7188,353.5625 Q797.0313,352.4844 797.0313,351.2031 L797.0313,350.0469 Q797.0313,348.7188 797.6406,347.5781 Q798.2656,346.4219 799.3594,345.8125 Q800.4531,345.1875 801.6875,345.1875 Q802.4219,345.1875 803.0625,345.3594 Q803.7188,345.5156 804.2656,345.875 Z "/><text fill="#000000" font-family="sans-serif" font-size="12" lengthAdjust="spacingAndGlyphs" textLength="33" x="815.5" y="354.9102">Action</text><line style="stroke: #A80036; stroke-width: 1.5;" x1="787.5" x2="850.5" y1="366" y2="366"/><line style="stroke: #A80036; stroke-width: 1.5;" x1="787.5" x2="850.5" y1="374" y2="374"/><!--MD5=[852878fd701cdbe445b24ff36590dddf]
class PutAction--><rect fill="#FEFECE" filter="url(#f1uugcjsvx1odk)" height="48" id="PutAction" style="stroke: #A80036; stroke-width: 1.5;" width="83" x="682.5" y="443"/><ellipse cx="697.5" cy="459" fill="#ADD1B2" rx="11" ry="11" style="stroke: #A80036; stroke-width: 1.0;"/><path d="M700.2656,454.875 Q700.4219,454.6563 700.6094,454.5469 Q700.7969,454.4375 701.0156,454.4375 Q701.3906,454.4375 701.625,454.7031 Q701.8594,454.9531 701.8594,455.5625 L701.8594,457.0156 Q701.8594,457.625 701.625,457.8906 Q701.3906,458.1563 701.0156,458.1563 Q700.6719,458.1563 700.4688,457.9531 Q700.2656,457.7656 700.1563,457.25 Q700.1094,456.8906 699.9219,456.7031 Q699.5938,456.3281 698.9844,456.1094 Q698.375,455.8906 697.75,455.8906 Q696.9844,455.8906 696.3438,456.2188 Q695.7188,456.5469 695.2188,457.2969 Q694.7344,458.0469 694.7344,459.0781 L694.7344,460.1719 Q694.7344,461.4063 695.625,462.2344 Q696.5156,463.0469 698.1094,463.0469 Q699.0469,463.0469 699.7031,462.7969 Q700.0938,462.6406 700.5156,462.2031 Q700.7813,461.9375 700.9219,461.8594 Q701.0781,461.7813 701.2813,461.7813 Q701.6094,461.7813 701.8594,462.0469 Q702.125,462.2969 702.125,462.6406 Q702.125,462.9844 701.7813,463.3906 Q701.2813,463.9688 700.4844,464.2969 Q699.4063,464.75 698.1094,464.75 Q696.5938,464.75 695.3906,464.125 Q694.4063,463.625 693.7188,462.5625 Q693.0313,461.4844 693.0313,460.2031 L693.0313,459.0469 Q693.0313,457.7188 693.6406,456.5781 Q694.2656,455.4219 695.3594,454.8125 Q696.4531,454.1875 697.6875,454.1875 Q698.4219,454.1875 699.0625,454.3594 Q699.7188,454.5156 700.2656,454.875 Z "/><text fill="#000000" font-family="sans-serif" font-size="12" lengthAdjust="spacingAndGlyphs" textLength="51" x="711.5" y="463.9102">PutAction</text><line style="stroke: #A80036; stroke-width: 1.5;" x1="683.5" x2="764.5" y1="475" y2="475"/><line style="stroke: #A80036; stroke-width: 1.5;" x1="683.5" x2="764.5" y1="483" y2="483"/><!--MD5=[9c968d98fb6f96ce23d8c3c92f03353c]
class MoveAction--><rect fill="#FEFECE" filter="url(#f1uugcjsvx1odk)" height="48" id="MoveAction" style="stroke: #A80036; stroke-width: 1.5;" width="93" x="872.5" y="443"/><ellipse cx="887.5" cy="459" fill="#ADD1B2" rx="11" ry="11" style="stroke: #A80036; stroke-width: 1.0;"/><path d="M890.2656,454.875 Q890.4219,454.6563 890.6094,454.5469 Q890.7969,454.4375 891.0156,454.4375 Q891.3906,454.4375 891.625,454.7031 Q891.8594,454.9531 891.8594,455.5625 L891.8594,457.0156 Q891.8594,457.625 891.625,457.8906 Q891.3906,458.1563 891.0156,458.1563 Q890.6719,458.1563 890.4688,457.9531 Q890.2656,457.7656 890.1563,457.25 Q890.1094,456.8906 889.9219,456.7031 Q889.5938,456.3281 888.9844,456.1094 Q888.375,455.8906 887.75,455.8906 Q886.9844,455.8906 886.3438,456.2188 Q885.7188,456.5469 885.2188,457.2969 Q884.7344,458.0469 884.7344,459.0781 L884.7344,460.1719 Q884.7344,461.4063 885.625,462.2344 Q886.5156,463.0469 888.1094,463.0469 Q889.0469,463.0469 889.7031,462.7969 Q890.0938,462.6406 890.5156,462.2031 Q890.7813,461.9375 890.9219,461.8594 Q891.0781,461.7813 891.2813,461.7813 Q891.6094,461.7813 891.8594,462.0469 Q892.125,462.2969 892.125,462.6406 Q892.125,462.9844 891.7813,463.3906 Q891.2813,463.9688 890.4844,464.2969 Q889.4063,464.75 888.1094,464.75 Q886.5938,464.75 885.3906,464.125 Q884.4063,463.625 883.7188,462.5625 Q883.0313,461.4844 883.0313,460.2031 L883.0313,459.0469 Q883.0313,457.7188 883.6406,456.5781 Q884.2656,455.4219 885.3594,454.8125 Q886.4531,454.1875 887.6875,454.1875 Q888.4219,454.1875 889.0625,454.3594 Q889.7188,454.5156 890.2656,454.875 Z "/><text fill="#000000" font-family="sans-serif" font-size="12" lengthAdjust="spacingAndGlyphs" textLength="61" x="901.5" y="463.9102">MoveAction</text><line style="stroke: #A80036; stroke-width: 1.5;" x1="873.5" x2="964.5" y1="475" y2="475"/><line style="stroke: #A80036; stroke-width: 1.5;" x1="873.5" x2="964.5" y1="483" y2="483"/><!--MD5=[b203f6b098b8dffe494a95d9c500f8e2]
class X--><rect fill="#FEFECE" filter="url(#f1uugcjsvx1odk)" height="48" id="X" style="stroke: #A80036; stroke-width: 1.5;" width="39" x="70.5" y="896"/><ellipse cx="85.5" cy="912" fill="#ADD1B2" rx="11" ry="11" style="stroke: #A80036; stroke-width: 1.0;"/><path d="M88.2656,907.875 Q88.4219,907.6563 88.6094,907.5469 Q88.7969,907.4375 89.0156,907.4375 Q89.3906,907.4375 89.625,907.7031 Q89.8594,907.9531 89.8594,908.5625 L89.8594,910.0156 Q89.8594,910.625 89.625,910.8906 Q89.3906,911.1563 89.0156,911.1563 Q88.6719,911.1563 88.4688,910.9531 Q88.2656,910.7656 88.1563,910.25 Q88.1094,909.8906 87.9219,909.7031 Q87.5938,909.3281 86.9844,909.1094 Q86.375,908.8906 85.75,908.8906 Q84.9844,908.8906 84.3438,909.2188 Q83.7188,909.5469 83.2188,910.2969 Q82.7344,911.0469 82.7344,912.0781 L82.7344,913.1719 Q82.7344,914.4063 83.625,915.2344 Q84.5156,916.0469 86.1094,916.0469 Q87.0469,916.0469 87.7031,915.7969 Q88.0938,915.6406 88.5156,915.2031 Q88.7813,914.9375 88.9219,914.8594 Q89.0781,914.7813 89.2813,914.7813 Q89.6094,914.7813 89.8594,915.0469 Q90.125,915.2969 90.125,915.6406 Q90.125,915.9844 89.7813,916.3906 Q89.2813,916.9688 88.4844,917.2969 Q87.4063,917.75 86.1094,917.75 Q84.5938,917.75 83.3906,917.125 Q82.4063,916.625 81.7188,915.5625 Q81.0313,914.4844 81.0313,913.2031 L81.0313,912.0469 Q81.0313,910.7188 81.6406,909.5781 Q82.2656,908.4219 83.3594,907.8125 Q84.4531,907.1875 85.6875,907.1875 Q86.4219,907.1875 87.0625,907.3594 Q87.7188,907.5156 88.2656,907.875 Z "/><text fill="#000000" font-family="sans-serif" font-size="12" lengthAdjust="spacingAndGlyphs" textLength="7" x="99.5" y="916.9102">X</text><line style="stroke: #A80036; stroke-width: 1.5;" x1="71.5" x2="108.5" y1="928" y2="928"/><line style="stroke: #A80036; stroke-width: 1.5;" x1="71.5" x2="108.5" y1="936" y2="936"/><!--MD5=[255014859fcd18787a2ae9f2a405ae60]
class O--><rect fill="#FEFECE" filter="url(#f1uugcjsvx1odk)" height="48" id="O" style="stroke: #A80036; stroke-width: 1.5;" width="41" x="144.5" y="896"/><ellipse cx="159.5" cy="912" fill="#ADD1B2" rx="11" ry="11" style="stroke: #A80036; stroke-width: 1.0;"/><path d="M162.2656,907.875 Q162.4219,907.6563 162.6094,907.5469 Q162.7969,907.4375 163.0156,907.4375 Q163.3906,907.4375 163.625,907.7031 Q163.8594,907.9531 163.8594,908.5625 L163.8594,910.0156 Q163.8594,910.625 163.625,910.8906 Q163.3906,911.1563 163.0156,911.1563 Q162.6719,911.1563 162.4688,910.9531 Q162.2656,910.7656 162.1563,910.25 Q162.1094,909.8906 161.9219,909.7031 Q161.5938,909.3281 160.9844,909.1094 Q160.375,908.8906 159.75,908.8906 Q158.9844,908.8906 158.3438,909.2188 Q157.7188,909.5469 157.2188,910.2969 Q156.7344,911.0469 156.7344,912.0781 L156.7344,913.1719 Q156.7344,914.4063 157.625,915.2344 Q158.5156,916.0469 160.1094,916.0469 Q161.0469,916.0469 161.7031,915.7969 Q162.0938,915.6406 162.5156,915.2031 Q162.7813,914.9375 162.9219,914.8594 Q163.0781,914.7813 163.2813,914.7813 Q163.6094,914.7813 163.8594,915.0469 Q164.125,915.2969 164.125,915.6406 Q164.125,915.9844 163.7813,916.3906 Q163.2813,916.9688 162.4844,917.2969 Q161.4063,917.75 160.1094,917.75 Q158.5938,917.75 157.3906,917.125 Q156.4063,916.625 155.7188,915.5625 Q155.0313,914.4844 155.0313,913.2031 L155.0313,912.0469 Q155.0313,910.7188 155.6406,909.5781 Q156.2656,908.4219 157.3594,907.8125 Q158.4531,907.1875 159.6875,907.1875 Q160.4219,907.1875 161.0625,907.3594 Q161.7188,907.5156 162.2656,907.875 Z "/><text fill="#000000" font-family="sans-serif" font-size="12" lengthAdjust="spacingAndGlyphs" textLength="9" x="173.5" y="916.9102">O</text><line style="stroke: #A80036; stroke-width: 1.5;" x1="145.5" x2="184.5" y1="928" y2="928"/><line style="stroke: #A80036; stroke-width: 1.5;" x1="145.5" x2="184.5" y1="936" y2="936"/><!--MD5=[5655ee3e2a0d028d03fe20f829576392]
class Square--><rect fill="#FEFECE" filter="url(#f1uugcjsvx1odk)" height="48" id="Square" style="stroke: #A80036; stroke-width: 1.5;" width="72" x="883" y="569"/><ellipse cx="898" cy="585" fill="#ADD1B2" rx="11" ry="11" style="stroke: #A80036; stroke-width: 1.0;"/><path d="M900.7656,580.875 Q900.9219,580.6563 901.1094,580.5469 Q901.2969,580.4375 901.5156,580.4375 Q901.8906,580.4375 902.125,580.7031 Q902.3594,580.9531 902.3594,581.5625 L902.3594,583.0156 Q902.3594,583.625 902.125,583.8906 Q901.8906,584.1563 901.5156,584.1563 Q901.1719,584.1563 900.9688,583.9531 Q900.7656,583.7656 900.6563,583.25 Q900.6094,582.8906 900.4219,582.7031 Q900.0938,582.3281 899.4844,582.1094 Q898.875,581.8906 898.25,581.8906 Q897.4844,581.8906 896.8438,582.2188 Q896.2188,582.5469 895.7188,583.2969 Q895.2344,584.0469 895.2344,585.0781 L895.2344,586.1719 Q895.2344,587.4063 896.125,588.2344 Q897.0156,589.0469 898.6094,589.0469 Q899.5469,589.0469 900.2031,588.7969 Q900.5938,588.6406 901.0156,588.2031 Q901.2813,587.9375 901.4219,587.8594 Q901.5781,587.7813 901.7813,587.7813 Q902.1094,587.7813 902.3594,588.0469 Q902.625,588.2969 902.625,588.6406 Q902.625,588.9844 902.2813,589.3906 Q901.7813,589.9688 900.9844,590.2969 Q899.9063,590.75 898.6094,590.75 Q897.0938,590.75 895.8906,590.125 Q894.9063,589.625 894.2188,588.5625 Q893.5313,587.4844 893.5313,586.2031 L893.5313,585.0469 Q893.5313,583.7188 894.1406,582.5781 Q894.7656,581.4219 895.8594,580.8125 Q896.9531,580.1875 898.1875,580.1875 Q898.9219,580.1875 899.5625,580.3594 Q900.2188,580.5156 900.7656,580.875 Z "/><text fill="#000000" font-family="sans-serif" font-size="12" lengthAdjust="spacingAndGlyphs" textLength="40" x="912" y="589.9102">Square</text><line style="stroke: #A80036; stroke-width: 1.5;" x1="884" x2="954" y1="601" y2="601"/><line style="stroke: #A80036; stroke-width: 1.5;" x1="884" x2="954" y1="609" y2="609"/><!--MD5=[8c7d7abc12e214c3cc12c9ab70edee11]
class Coordinate--><rect fill="#FEFECE" filter="url(#f1uugcjsvx1odk)" height="48" id="Coordinate" style="stroke: #A80036; stroke-width: 1.5;" width="93" x="872.5" y="678"/><ellipse cx="887.5" cy="694" fill="#ADD1B2" rx="11" ry="11" style="stroke: #A80036; stroke-width: 1.0;"/><path d="M890.2656,689.875 Q890.4219,689.6563 890.6094,689.5469 Q890.7969,689.4375 891.0156,689.4375 Q891.3906,689.4375 891.625,689.7031 Q891.8594,689.9531 891.8594,690.5625 L891.8594,692.0156 Q891.8594,692.625 891.625,692.8906 Q891.3906,693.1563 891.0156,693.1563 Q890.6719,693.1563 890.4688,692.9531 Q890.2656,692.7656 890.1563,692.25 Q890.1094,691.8906 889.9219,691.7031 Q889.5938,691.3281 888.9844,691.1094 Q888.375,690.8906 887.75,690.8906 Q886.9844,690.8906 886.3438,691.2188 Q885.7188,691.5469 885.2188,692.2969 Q884.7344,693.0469 884.7344,694.0781 L884.7344,695.1719 Q884.7344,696.4063 885.625,697.2344 Q886.5156,698.0469 888.1094,698.0469 Q889.0469,698.0469 889.7031,697.7969 Q890.0938,697.6406 890.5156,697.2031 Q890.7813,696.9375 890.9219,696.8594 Q891.0781,696.7813 891.2813,696.7813 Q891.6094,696.7813 891.8594,697.0469 Q892.125,697.2969 892.125,697.6406 Q892.125,697.9844 891.7813,698.3906 Q891.2813,698.9688 890.4844,699.2969 Q889.4063,699.75 888.1094,699.75 Q886.5938,699.75 885.3906,699.125 Q884.4063,698.625 883.7188,697.5625 Q883.0313,696.4844 883.0313,695.2031 L883.0313,694.0469 Q883.0313,692.7188 883.6406,691.5781 Q884.2656,690.4219 885.3594,689.8125 Q886.4531,689.1875 887.6875,689.1875 Q888.4219,689.1875 889.0625,689.3594 Q889.7188,689.5156 890.2656,689.875 Z "/><text fill="#000000" font-family="sans-serif" font-size="12" lengthAdjust="spacingAndGlyphs" textLength="61" x="901.5" y="698.9102">Coordinate</text><line style="stroke: #A80036; stroke-width: 1.5;" x1="873.5" x2="964.5" y1="710" y2="710"/><line style="stroke: #A80036; stroke-width: 1.5;" x1="873.5" x2="964.5" y1="718" y2="718"/><!--MD5=[05aedcff764caeeb5d443618a4d90de7]
class Row--><rect fill="#FEFECE" filter="url(#f1uugcjsvx1odk)" height="48" id="Row" style="stroke: #A80036; stroke-width: 1.5;" width="57" x="290.5" y="443"/><ellipse cx="305.5" cy="459" fill="#ADD1B2" rx="11" ry="11" style="stroke: #A80036; stroke-width: 1.0;"/><path d="M308.2656,454.875 Q308.4219,454.6563 308.6094,454.5469 Q308.7969,454.4375 309.0156,454.4375 Q309.3906,454.4375 309.625,454.7031 Q309.8594,454.9531 309.8594,455.5625 L309.8594,457.0156 Q309.8594,457.625 309.625,457.8906 Q309.3906,458.1563 309.0156,458.1563 Q308.6719,458.1563 308.4688,457.9531 Q308.2656,457.7656 308.1563,457.25 Q308.1094,456.8906 307.9219,456.7031 Q307.5938,456.3281 306.9844,456.1094 Q306.375,455.8906 305.75,455.8906 Q304.9844,455.8906 304.3438,456.2188 Q303.7188,456.5469 303.2188,457.2969 Q302.7344,458.0469 302.7344,459.0781 L302.7344,460.1719 Q302.7344,461.4063 303.625,462.2344 Q304.5156,463.0469 306.1094,463.0469 Q307.0469,463.0469 307.7031,462.7969 Q308.0938,462.6406 308.5156,462.2031 Q308.7813,461.9375 308.9219,461.8594 Q309.0781,461.7813 309.2813,461.7813 Q309.6094,461.7813 309.8594,462.0469 Q310.125,462.2969 310.125,462.6406 Q310.125,462.9844 309.7813,463.3906 Q309.2813,463.9688 308.4844,464.2969 Q307.4063,464.75 306.1094,464.75 Q304.5938,464.75 303.3906,464.125 Q302.4063,463.625 301.7188,462.5625 Q301.0313,461.4844 301.0313,460.2031 L301.0313,459.0469 Q301.0313,457.7188 301.6406,456.5781 Q302.2656,455.4219 303.3594,454.8125 Q304.4531,454.1875 305.6875,454.1875 Q306.4219,454.1875 307.0625,454.3594 Q307.7188,454.5156 308.2656,454.875 Z "/><text fill="#000000" font-family="sans-serif" font-size="12" lengthAdjust="spacingAndGlyphs" textLength="25" x="319.5" y="463.9102">Row</text><line style="stroke: #A80036; stroke-width: 1.5;" x1="291.5" x2="346.5" y1="475" y2="475"/><line style="stroke: #A80036; stroke-width: 1.5;" x1="291.5" x2="346.5" y1="483" y2="483"/><!--MD5=[e06ef809dd6be8ce79b58fe0a1161eb8]
class Column--><rect fill="#FEFECE" filter="url(#f1uugcjsvx1odk)" height="48" id="Column" style="stroke: #A80036; stroke-width: 1.5;" width="76" x="383" y="443"/><ellipse cx="398" cy="459" fill="#ADD1B2" rx="11" ry="11" style="stroke: #A80036; stroke-width: 1.0;"/><path d="M400.7656,454.875 Q400.9219,454.6563 401.1094,454.5469 Q401.2969,454.4375 401.5156,454.4375 Q401.8906,454.4375 402.125,454.7031 Q402.3594,454.9531 402.3594,455.5625 L402.3594,457.0156 Q402.3594,457.625 402.125,457.8906 Q401.8906,458.1563 401.5156,458.1563 Q401.1719,458.1563 400.9688,457.9531 Q400.7656,457.7656 400.6563,457.25 Q400.6094,456.8906 400.4219,456.7031 Q400.0938,456.3281 399.4844,456.1094 Q398.875,455.8906 398.25,455.8906 Q397.4844,455.8906 396.8438,456.2188 Q396.2188,456.5469 395.7188,457.2969 Q395.2344,458.0469 395.2344,459.0781 L395.2344,460.1719 Q395.2344,461.4063 396.125,462.2344 Q397.0156,463.0469 398.6094,463.0469 Q399.5469,463.0469 400.2031,462.7969 Q400.5938,462.6406 401.0156,462.2031 Q401.2813,461.9375 401.4219,461.8594 Q401.5781,461.7813 401.7813,461.7813 Q402.1094,461.7813 402.3594,462.0469 Q402.625,462.2969 402.625,462.6406 Q402.625,462.9844 402.2813,463.3906 Q401.7813,463.9688 400.9844,464.2969 Q399.9063,464.75 398.6094,464.75 Q397.0938,464.75 395.8906,464.125 Q394.9063,463.625 394.2188,462.5625 Q393.5313,461.4844 393.5313,460.2031 L393.5313,459.0469 Q393.5313,457.7188 394.1406,456.5781 Q394.7656,455.4219 395.8594,454.8125 Q396.9531,454.1875 398.1875,454.1875 Q398.9219,454.1875 399.5625,454.3594 Q400.2188,454.5156 400.7656,454.875 Z "/><text fill="#000000" font-family="sans-serif" font-size="12" lengthAdjust="spacingAndGlyphs" textLength="44" x="412" y="463.9102">Column</text><line style="stroke: #A80036; stroke-width: 1.5;" x1="384" x2="458" y1="475" y2="475"/><line style="stroke: #A80036; stroke-width: 1.5;" x1="384" x2="458" y1="483" y2="483"/><!--MD5=[a135607b44036ad87f368405615013d9]
class Diagonal--><rect fill="#FEFECE" filter="url(#f1uugcjsvx1odk)" height="48" id="Diagonal" style="stroke: #A80036; stroke-width: 1.5;" width="82" x="494" y="443"/><ellipse cx="509" cy="459" fill="#ADD1B2" rx="11" ry="11" style="stroke: #A80036; stroke-width: 1.0;"/><path d="M511.7656,454.875 Q511.9219,454.6563 512.1094,454.5469 Q512.2969,454.4375 512.5156,454.4375 Q512.8906,454.4375 513.125,454.7031 Q513.3594,454.9531 513.3594,455.5625 L513.3594,457.0156 Q513.3594,457.625 513.125,457.8906 Q512.8906,458.1563 512.5156,458.1563 Q512.1719,458.1563 511.9688,457.9531 Q511.7656,457.7656 511.6563,457.25 Q511.6094,456.8906 511.4219,456.7031 Q511.0938,456.3281 510.4844,456.1094 Q509.875,455.8906 509.25,455.8906 Q508.4844,455.8906 507.8438,456.2188 Q507.2188,456.5469 506.7188,457.2969 Q506.2344,458.0469 506.2344,459.0781 L506.2344,460.1719 Q506.2344,461.4063 507.125,462.2344 Q508.0156,463.0469 509.6094,463.0469 Q510.5469,463.0469 511.2031,462.7969 Q511.5938,462.6406 512.0156,462.2031 Q512.2813,461.9375 512.4219,461.8594 Q512.5781,461.7813 512.7813,461.7813 Q513.1094,461.7813 513.3594,462.0469 Q513.625,462.2969 513.625,462.6406 Q513.625,462.9844 513.2813,463.3906 Q512.7813,463.9688 511.9844,464.2969 Q510.9063,464.75 509.6094,464.75 Q508.0938,464.75 506.8906,464.125 Q505.9063,463.625 505.2188,462.5625 Q504.5313,461.4844 504.5313,460.2031 L504.5313,459.0469 Q504.5313,457.7188 505.1406,456.5781 Q505.7656,455.4219 506.8594,454.8125 Q507.9531,454.1875 509.1875,454.1875 Q509.9219,454.1875 510.5625,454.3594 Q511.2188,454.5156 511.7656,454.875 Z "/><text fill="#000000" font-family="sans-serif" font-size="12" lengthAdjust="spacingAndGlyphs" textLength="50" x="523" y="463.9102">Diagonal</text><line style="stroke: #A80036; stroke-width: 1.5;" x1="495" x2="575" y1="475" y2="475"/><line style="stroke: #A80036; stroke-width: 1.5;" x1="495" x2="575" y1="483" y2="483"/><!--MD5=[0f6df31fde49cef09278e2483512ca7d]
class InvertedDiagonal--><rect fill="#FEFECE" filter="url(#f1uugcjsvx1odk)" height="48" id="InvertedDiagonal" style="stroke: #A80036; stroke-width: 1.5;" width="125" x="130.5" y="443"/><ellipse cx="145.5" cy="459" fill="#ADD1B2" rx="11" ry="11" style="stroke: #A80036; stroke-width: 1.0;"/><path d="M148.2656,454.875 Q148.4219,454.6563 148.6094,454.5469 Q148.7969,454.4375 149.0156,454.4375 Q149.3906,454.4375 149.625,454.7031 Q149.8594,454.9531 149.8594,455.5625 L149.8594,457.0156 Q149.8594,457.625 149.625,457.8906 Q149.3906,458.1563 149.0156,458.1563 Q148.6719,458.1563 148.4688,457.9531 Q148.2656,457.7656 148.1563,457.25 Q148.1094,456.8906 147.9219,456.7031 Q147.5938,456.3281 146.9844,456.1094 Q146.375,455.8906 145.75,455.8906 Q144.9844,455.8906 144.3438,456.2188 Q143.7188,456.5469 143.2188,457.2969 Q142.7344,458.0469 142.7344,459.0781 L142.7344,460.1719 Q142.7344,461.4063 143.625,462.2344 Q144.5156,463.0469 146.1094,463.0469 Q147.0469,463.0469 147.7031,462.7969 Q148.0938,462.6406 148.5156,462.2031 Q148.7813,461.9375 148.9219,461.8594 Q149.0781,461.7813 149.2813,461.7813 Q149.6094,461.7813 149.8594,462.0469 Q150.125,462.2969 150.125,462.6406 Q150.125,462.9844 149.7813,463.3906 Q149.2813,463.9688 148.4844,464.2969 Q147.4063,464.75 146.1094,464.75 Q144.5938,464.75 143.3906,464.125 Q142.4063,463.625 141.7188,462.5625 Q141.0313,461.4844 141.0313,460.2031 L141.0313,459.0469 Q141.0313,457.7188 141.6406,456.5781 Q142.2656,455.4219 143.3594,454.8125 Q144.4531,454.1875 145.6875,454.1875 Q146.4219,454.1875 147.0625,454.3594 Q147.7188,454.5156 148.2656,454.875 Z "/><text fill="#000000" font-family="sans-serif" font-size="12" lengthAdjust="spacingAndGlyphs" textLength="93" x="159.5" y="463.9102">InvertedDiagonal</text><line style="stroke: #A80036; stroke-width: 1.5;" x1="131.5" x2="254.5" y1="475" y2="475"/><line style="stroke: #A80036; stroke-width: 1.5;" x1="131.5" x2="254.5" y1="483" y2="483"/><!--MD5=[434cd2fe8549537c128785c8ce0a3fa2]
link TicTacToe to Player--><path d="M596.2958,65.5144 C596.2958,65.5144 577.826,99.089 571,116 C558.356,147.325 548.651,184.581 542.521,211.513 " fill="none" id="TicTacToe-Player" style="stroke: #A80036; stroke-width: 1.0;"/><polygon fill="#A80036" points="539.644,224.569,545.4868,216.6404,540.7198,219.6861,537.6741,214.9191,539.644,224.569" style="stroke: #A80036; stroke-width: 1.0;"/><line style="stroke: #A80036; stroke-width: 1.0;" x1="540.7198" x2="542.4415" y1="219.6861" y2="211.873"/><polygon fill="#A80036" points="602.378,55.17,595.8888,58.3148,596.2958,65.5144,602.7851,62.3696,602.378,55.17" style="stroke: #A80036; stroke-width: 1.0;"/><text fill="#000000" font-family="sans-serif" font-size="13" lengthAdjust="spacingAndGlyphs" textLength="7" x="532.9229" y="214.2019">2</text><!--MD5=[a737d2231371e146ba098899a67f3b67]
link TicTacToe to Board--><path d="M646.6453,63.9038 C646.6453,63.9038 830.512,261.773 888.408,324.078 " fill="none" id="TicTacToe-Board" style="stroke: #A80036; stroke-width: 1.0;"/><polygon fill="#A80036" points="897.43,333.788,894.2333,324.4724,894.0262,330.1254,888.3732,329.9184,897.43,333.788" style="stroke: #A80036; stroke-width: 1.0;"/><line style="stroke: #A80036; stroke-width: 1.0;" x1="894.0262" x2="888.581" y1="330.1254" y2="324.2645"/><polygon fill="#A80036" points="638.477,55.113,639.6309,62.2312,646.6453,63.9038,645.4914,56.7856,638.477,55.113" style="stroke: #A80036; stroke-width: 1.0;"/><!--MD5=[02ea7f29950e23bda8c82d72bcbd4b5e]
link TicTacToe to Turn--><path d="M617,67.217 C617,67.217 617,91.502 617,102.563 " fill="none" id="TicTacToe-Turn" style="stroke: #A80036; stroke-width: 1.0;"/><polygon fill="#A80036" points="617,115.828,621,106.828,617,110.828,613,106.828,617,115.828" style="stroke: #A80036; stroke-width: 1.0;"/><line style="stroke: #A80036; stroke-width: 1.0;" x1="617" x2="617" y1="110.828" y2="102.828"/><polygon fill="#A80036" points="617,55.217,613,61.217,617,67.217,621,61.217,617,55.217" style="stroke: #A80036; stroke-width: 1.0;"/><!--MD5=[d81713d91ad05be3b975338c4816ee0b]
link Turn to Player--><path d="M599.207,164.217 C586.528,180.763 569.433,203.07 556.07,220.506 " fill="none" id="Turn-&gt;Player" style="stroke: #A80036; stroke-width: 1.0;"/><polygon fill="#A80036" points="552.758,224.828,561.4075,220.1177,555.7994,220.8594,555.0577,215.2514,552.758,224.828" style="stroke: #A80036; stroke-width: 1.0;"/><text fill="#000000" font-family="sans-serif" font-size="13" lengthAdjust="spacingAndGlyphs" textLength="7" x="549.4116" y="214.1241">2</text><!--MD5=[c1f7e88598f78d9459764ed93737eb14]
link Player to Board--><path d="M568.308,256.249 C629.075,268.116 761.57,296.148 869,334 C873.081,335.438 877.282,337.087 881.434,338.827 " fill="none" id="Player-&gt;Board" style="stroke: #A80036; stroke-width: 1.0;"/><polygon fill="#A80036" points="886.275,340.904,879.5816,333.6791,881.6802,338.9323,876.427,341.0309,886.275,340.904" style="stroke: #A80036; stroke-width: 1.0;"/><!--MD5=[3ada97fffb5bcc4da390db27b64fa26e]
link Player to Piece--><path d="M489.6987,251.0192 C489.6987,251.0192 77,273.14 77,357 C77,357 77,357 77,594 C77,661.392 305.339,688.864 404.226,697.601 " fill="none" id="Player-Piece" style="stroke: #A80036; stroke-width: 1.0;"/><polygon fill="#A80036" points="417.283,698.712,408.6542,693.9639,412.301,698.2884,407.9765,701.9352,417.283,698.712" style="stroke: #A80036; stroke-width: 1.0;"/><line style="stroke: #A80036; stroke-width: 1.0;" x1="412.301" x2="404.3305" y1="698.2884" y2="697.61"/><polygon fill="#FFFFFF" points="501.693,250.65,495.5728,246.8365,489.6987,251.0192,495.8189,254.8327,501.693,250.65" style="stroke: #A80036; stroke-width: 1.0;"/><text fill="#000000" font-family="sans-serif" font-size="13" lengthAdjust="spacingAndGlyphs" textLength="22" x="387.4071" y="694.1583">0..3</text><!--MD5=[1571e4e0b7cdbae74b04c97a95677c54]
link Player to Goal--><path d="M535,285.217 C535,285.217 535,309.502 535,320.563 " fill="none" id="Player-Goal" style="stroke: #A80036; stroke-width: 1.0;"/><polygon fill="#A80036" points="535,333.828,539,324.828,535,328.828,531,324.828,535,333.828" style="stroke: #A80036; stroke-width: 1.0;"/><line style="stroke: #A80036; stroke-width: 1.0;" x1="535" x2="535" y1="328.828" y2="320.828"/><polygon fill="#A80036" points="535,273.217,531,279.217,535,285.217,539,279.217,535,273.217" style="stroke: #A80036; stroke-width: 1.0;"/><!--MD5=[ebf52a6f230ff8b0d594dd9ce4cd7c5b]
link Player to Color--><path d="M489.909,249.5952 C489.909,249.5952 6,258.909 6,357 C6,357 6,357 6,703 C6,745.895 49.2005,775.731 83.9753,792.799 " fill="none" id="Player-Color" style="stroke: #A80036; stroke-width: 1.0;"/><polygon fill="#A80036" points="95.8395,798.304,89.3591,790.8875,91.304,796.1995,85.9919,798.1444,95.8395,798.304" style="stroke: #A80036; stroke-width: 1.0;"/><line style="stroke: #A80036; stroke-width: 1.0;" x1="91.304" x2="84.0472" y1="796.1995" y2="792.8325"/><polygon fill="#A80036" points="501.909,249.615,495.9156,245.6051,489.909,249.5952,495.9024,253.6051,501.909,249.615" style="stroke: #A80036; stroke-width: 1.0;"/><!--MD5=[68ab7a71f8552a80779fd7b46f32fc4f]
reverse link Action to PutAction--><path d="M785.068,397.218 C771.533,412.463 756.392,429.516 744.573,442.828 " fill="none" id="Action&lt;-PutAction" style="stroke: #A80036; stroke-width: 1.0;"/><polygon fill="none" points="779.873,392.526,798.386,382.217,790.342,401.821,779.873,392.526" style="stroke: #A80036; stroke-width: 1.0;"/><!--MD5=[48d67b7b46648ab6daeb4e900513da2f]
reverse link Action to MoveAction--><path d="M854.718,397.218 C868.966,412.463 884.903,429.516 897.344,442.828 " fill="none" id="Action&lt;-MoveAction" style="stroke: #A80036; stroke-width: 1.0;"/><polygon fill="none" points="849.24,401.609,840.699,382.217,859.469,392.05,849.24,401.609" style="stroke: #A80036; stroke-width: 1.0;"/><!--MD5=[2f378bb2f56593d68624f1790be1dbac]
link Piece to Color--><path d="M405.856,717.3353 C405.856,717.3353 232.088,775.079 170.713,795.474 " fill="none" id="Piece-Color" style="stroke: #A80036; stroke-width: 1.0;"/><polygon fill="#A80036" points="158.045,799.684,167.8471,800.6426,162.79,798.1076,165.3249,793.0505,158.045,799.684" style="stroke: #A80036; stroke-width: 1.0;"/><line style="stroke: #A80036; stroke-width: 1.0;" x1="162.79" x2="170.3815" y1="798.1076" y2="795.584"/><polygon fill="#A80036" points="417.244,713.552,410.2889,711.6476,405.856,717.3353,412.8111,719.2396,417.244,713.552" style="stroke: #A80036; stroke-width: 1.0;"/><!--MD5=[cadd997a6c0d1b409cb2c707bfea899e]
reverse link Color to X--><path d="M112.271,854.5948 C107.407,868.6608 102.1799,883.7771 98.0128,895.8279 " fill="none" id="Color&lt;-X" style="stroke: #A80036; stroke-width: 1.0;"/><polygon fill="none" points="105.8197,851.8316,118.972,835.217,119.051,856.4069,105.8197,851.8316" style="stroke: #A80036; stroke-width: 1.0;"/><!--MD5=[da3122694a19f792a32b14ff12c4d304]
reverse link Color to O--><path d="M141.953,854.1046 C146.998,868.3088 152.441,883.637 156.771,895.8279 " fill="none" id="Color&lt;-O" style="stroke: #A80036; stroke-width: 1.0;"/><polygon fill="none" points="135.342,856.4068,135.245,835.217,148.535,851.7215,135.342,856.4068" style="stroke: #A80036; stroke-width: 1.0;"/><!--MD5=[54c4a35b40d33fcdb73798b37710015d]
link Goal to PutAction--><path d="M564.115,369.511 C589.053,379.057 625.503,394.32 655,412 C668.247,419.94 681.84,430.076 693.42,439.417 " fill="none" id="Goal-&gt;PutAction" style="stroke: #A80036; stroke-width: 1.0; stroke-dasharray: 7.0,7.0;"/><polygon fill="#A80036" points="697.592,442.817,693.1443,434.0296,693.7168,439.6574,688.089,440.2299,697.592,442.817" style="stroke: #A80036; stroke-width: 1.0;"/><text fill="#000000" font-family="sans-serif" font-size="13" lengthAdjust="spacingAndGlyphs" textLength="7" x="682.9281" y="432.1103">3</text><!--MD5=[8f805d0aa28b26faa3c8ac5f922b5186]
link Goal to MoveAction--><path d="M564.178,367.13 C628.915,385.169 785.296,428.744 867.124,451.545 " fill="none" id="Goal-&gt;MoveAction" style="stroke: #A80036; stroke-width: 1.0; stroke-dasharray: 7.0,7.0;"/><polygon fill="#A80036" points="872.404,453.016,864.8069,446.7483,867.5873,451.6747,862.6608,454.455,872.404,453.016" style="stroke: #A80036; stroke-width: 1.0;"/><text fill="#000000" font-family="sans-serif" font-size="13" lengthAdjust="spacingAndGlyphs" textLength="5" x="859.5793" y="447.0354">*</text><!--MD5=[15df82f68831714e43f722f58194f411]
link Goal to Square--><path d="M552.914,382.431 C576.063,411.342 618.9,460.416 665,491 C733.381,536.365 825.275,566.527 877.716,581.326 " fill="none" id="Goal-&gt;Square" style="stroke: #A80036; stroke-width: 1.0; stroke-dasharray: 7.0,7.0;"/><polygon fill="#A80036" points="882.666,582.71,875.0746,576.4354,877.8505,581.3643,872.9215,584.1402,882.666,582.71" style="stroke: #A80036; stroke-width: 1.0;"/><text fill="#000000" font-family="sans-serif" font-size="13" lengthAdjust="spacingAndGlyphs" textLength="7" x="868.0726" y="576.7521">3</text><!--MD5=[4ad96441c8a01d959d4bf4f2a5e1a798]
link Board to Square--><path d="M963.534,364.9172 C963.534,364.9172 1066.57,394.492 1079,443 C1089.75,484.975 1092.42,508.139 1062,539 C1036.99,564.379 998.752,577.722 968.109,584.669 " fill="none" id="Board-Square" style="stroke: #A80036; stroke-width: 1.0;"/><polygon fill="#A80036" points="955.072,587.352,964.6934,589.4562,959.9694,586.3444,963.0813,581.6204,955.072,587.352" style="stroke: #A80036; stroke-width: 1.0;"/><line style="stroke: #A80036; stroke-width: 1.0;" x1="959.9694" x2="967.805" y1="586.3444" y2="584.732"/><polygon fill="#A80036" points="951.731,362.752,956.9108,367.7689,963.534,364.9172,958.3543,359.9002,951.731,362.752" style="stroke: #A80036; stroke-width: 1.0;"/><text fill="#000000" font-family="sans-serif" font-size="13" lengthAdjust="spacingAndGlyphs" textLength="21" x="963.0766" y="582.5316">3x3</text><!--MD5=[d1718f8040beedd4df7f7517ac9b645a]
link Square to Coordinate--><path d="M919,629.217 C919,629.217 919,653.502 919,664.563 " fill="none" id="Square-Coordinate" style="stroke: #A80036; stroke-width: 1.0;"/><polygon fill="#A80036" points="919,677.828,923,668.828,919,672.828,915,668.828,919,677.828" style="stroke: #A80036; stroke-width: 1.0;"/><line style="stroke: #A80036; stroke-width: 1.0;" x1="919" x2="919" y1="672.828" y2="664.828"/><polygon fill="#A80036" points="919,617.217,915,623.217,919,629.217,923,623.217,919,617.217" style="stroke: #A80036; stroke-width: 1.0;"/><!--MD5=[f6467046f93aba88bed66e3f7374a456]
link Square to Piece--><path d="M881.8228,624.2429 C881.8228,624.2429 853.652,642.411 839,648 C720.243,693.299 568.162,700.751 493.882,701.439 " fill="none" id="Square-Piece" style="stroke: #A80036; stroke-width: 1.0;"/><polygon fill="#A80036" points="480.52,701.496,489.5371,705.4574,485.52,701.4746,489.5028,697.4575,480.52,701.496" style="stroke: #A80036; stroke-width: 1.0;"/><line style="stroke: #A80036; stroke-width: 1.0;" x1="485.52" x2="493.5195" y1="701.4746" y2="701.441"/><polygon fill="#FFFFFF" points="891.527,617.184,884.3219,617.4787,881.8228,624.2429,889.0279,623.9482,891.527,617.184" style="stroke: #A80036; stroke-width: 1.0;"/><text fill="#000000" font-family="sans-serif" font-size="13" lengthAdjust="spacingAndGlyphs" textLength="22" x="488.6254" y="697.4036">0..1</text><!--MD5=[5dd37025bd56d3ce0dc94ae780f62769]
link Action to Piece--><path d="M817.729,382.201 C815.125,410.435 807.188,458.369 783,491 C704.331,597.13 554.617,662.542 485.563,688.349 " fill="none" id="Action-&gt;Piece" style="stroke: #A80036; stroke-width: 1.0; stroke-dasharray: 7.0,7.0;"/><polygon fill="#A80036" points="480.733,690.139,490.5621,690.763,485.4215,688.4019,487.7827,683.2613,480.733,690.139" style="stroke: #A80036; stroke-width: 1.0;"/><!--MD5=[d5b732a636ecb7f30d2b5d18fc14c0cd]
link Action to Square--><path d="M851.622,374.628 C898.361,397.173 979.214,436.808 983,443 C1007.45,482.999 973.014,534.007 945.952,564.777 " fill="none" id="Action-&gt;Square" style="stroke: #A80036; stroke-width: 1.0; stroke-dasharray: 7.0,7.0;"/><polygon fill="#A80036" points="942.357,568.796,951.3379,564.7534,945.6899,565.0688,945.3745,559.4208,942.357,568.796" style="stroke: #A80036; stroke-width: 1.0;"/><text fill="#000000" font-family="sans-serif" font-size="13" lengthAdjust="spacingAndGlyphs" textLength="33" x="993" y="472.4951">target</text><!--MD5=[0e6c3ab9e6f64e017acb955460568e7c]
link MoveAction to Square--><path d="M919,491.033 C919,511.522 919,541.561 919,563.546 " fill="none" id="MoveAction-&gt;Square" style="stroke: #A80036; stroke-width: 1.0; stroke-dasharray: 7.0,7.0;"/><polygon fill="#A80036" points="919,568.67,923,559.67,919,563.67,915,559.67,919,568.67" style="stroke: #A80036; stroke-width: 1.0;"/><text fill="#000000" font-family="sans-serif" font-size="13" lengthAdjust="spacingAndGlyphs" textLength="31" x="920" y="535.4951">origin</text><!--MD5=[cc08ae77311d3850838d7f60cf979d27]
reverse link Goal to Row--><path d="M487.831,382.233 C453.697,399.064 406.47,422.387 365,443 C359.403,445.782 353.428,448.762 347.699,451.624 " fill="none" id="Goal&lt;-Row" style="stroke: #A80036; stroke-width: 1.0;"/><polygon fill="none" points="484.766,375.939,505.8,373.376,490.956,388.497,484.766,375.939" style="stroke: #A80036; stroke-width: 1.0;"/><!--MD5=[21350569656573e18760c9f22b4a0078]
reverse link Goal to Column--><path d="M495.56,396.018 C478.998,411.563 460.244,429.166 445.688,442.828 " fill="none" id="Goal&lt;-Column" style="stroke: #A80036; stroke-width: 1.0;"/><polygon fill="none" points="490.89,390.801,510.264,382.217,500.471,401.009,490.89,390.801" style="stroke: #A80036; stroke-width: 1.0;"/><!--MD5=[5a16bdf27515cf253385e973d6fbc781]
reverse link Goal to Diagonal--><path d="M535,402.578 C535,416.362 535,431.057 535,442.828 " fill="none" id="Goal&lt;-Diagonal" style="stroke: #A80036; stroke-width: 1.0;"/><polygon fill="none" points="528,402.217,535,382.217,542,402.217,528,402.217" style="stroke: #A80036; stroke-width: 1.0;"/><!--MD5=[29f9a0939f51e848196471c67d635130]
reverse link Goal to InvertedDiagonal--><path d="M486.726,374.103 C426.176,393.047 322.233,425.567 255.619,446.409 " fill="none" id="Goal&lt;-InvertedDiagonal" style="stroke: #A80036; stroke-width: 1.0;"/><polygon fill="none" points="484.663,367.414,505.841,368.123,488.844,380.775,484.663,367.414" style="stroke: #A80036; stroke-width: 1.0;"/><!--MD5=[b00099432a223a3436707c7b9eb18dc5]
@startuml
TicTacToe *-down-> "2" Player
TicTacToe *-down-> Board
TicTacToe *-down-> Turn

Turn -down-> "2" Player

Player -down-> Board
Player o-down-> "0..3" Piece
Player *-down-> Goal
Player *-down-> Color


Action <|-down- PutAction
Action <|-down- MoveAction

Piece *-down-> Color

Color <|-down- X
Color <|-down- O

Goal ..> "3" PutAction
Goal ..> "*" MoveAction
Goal ..> "3" Square

Board *-down-> "3x3" Square
Square *-down-> Coordinate
Square o-down-> "0..1" Piece

Action .down.> Piece
Action .down.> Square : target
MoveAction .down.> Square : origin

Goal <|-down- Row
Goal <|-down- Column
Goal <|-down- Diagonal
Goal <|-down- InvertedDiagonal
@enduml

PlantUML version 1.2020.15(Sun Jun 28 13:39:45 CEST 2020)
(GPL source distribution)
Java Runtime: Java(TM) SE Runtime Environment
JVM: Java HotSpot(TM) 64-Bit Server VM
Default Encoding: windows-1252
Language: es
Country: ES
--></g></svg>